<?xml version="1.0" standalone="no"?>
<!DOCTYPE svg PUBLIC "-//W3C//DTD SVG 20010904//EN"
 "http://www.w3.org/TR/2001/REC-SVG-20010904/DTD/svg10.dtd">
<svg version="1.0" xmlns="http://www.w3.org/2000/svg"
 width="54.000000pt" height="114.000000pt" viewBox="0 0 54.000000 114.000000"
 preserveAspectRatio="xMidYMid meet">
<metadata>
Created by potrace 1.10, written by Peter Selinger 2001-2011
</metadata>
<g transform="translate(0.000000,114.000000) scale(0.100000,-0.100000)"
fill="#000000" stroke="none">
<path d="M240 983 c-23 -46 -24 -58 -25 -243 -1 -164 -4 -210 -23 -290 -28
-119 -28 -118 7 -81 40 43 71 41 121 -9 l39 -39 -5 102 c-17 385 -46 607 -77
607 -7 0 -24 -21 -37 -47z m55 -170 c4 -71 9 -137 12 -148 3 -11 6 -71 8 -132
4 -110 4 -113 -18 -117 -42 -8 -68 -3 -62 13 3 8 0 18 -7 23 -9 6 -10 10 -2
16 7 4 11 18 10 32 -1 14 2 36 6 49 10 28 11 214 2 294 -6 49 -4 60 12 77 10
10 22 19 25 19 4 1 10 -56 14 -126z"/>
<path d="M198 343 c-26 -27 -37 -50 -41 -78 -2 -22 -10 -54 -17 -71 -12 -27
-11 -36 8 -76 15 -29 35 -52 61 -66 76 -43 122 -24 166 68 l29 61 -19 55 c-20
59 -98 144 -133 144 -10 0 -34 -17 -54 -37z m89 1 c-3 -3 9 -25 28 -49 45 -60
52 -109 25 -169 -23 -47 -32 -52 -90 -47 -14 1 -38 16 -53 33 -23 24 -28 37
-24 62 20 116 43 162 85 169 15 2 29 5 31 6 2 0 2 -2 -2 -5z"/>
</g>
</svg>
