<?xml version="1.0" standalone="no"?>
<!DOCTYPE svg PUBLIC "-//W3C//DTD SVG 20010904//EN"
 "http://www.w3.org/TR/2001/REC-SVG-20010904/DTD/svg10.dtd">
<svg version="1.0" xmlns="http://www.w3.org/2000/svg"
 width="54.000000pt" height="115.000000pt" viewBox="0 0 54.000000 115.000000"
 preserveAspectRatio="xMidYMid meet">
<metadata>
Created by potrace 1.10, written by Peter Selinger 2001-2011
</metadata>
<g transform="translate(0.000000,115.000000) scale(0.100000,-0.100000)"
fill="#000000" stroke="none">
<path d="M286 872 c-12 -19 -23 -164 -19 -252 3 -67 -2 -126 -15 -198 l-20
-103 22 20 c32 30 79 27 106 -6 l21 -28 -4 120 c-4 97 -30 313 -53 433 -4 21
-28 30 -38 14z m28 -274 c1 -13 7 -22 14 -20 9 1 12 -22 12 -82 0 -98 -5 -116
-32 -116 -14 0 -18 5 -14 15 3 8 1 15 -4 15 -14 0 -12 27 3 33 9 4 8 8 -3 16
-11 8 -12 11 -2 11 7 0 12 8 11 18 -4 40 2 145 7 139 4 -4 7 -17 8 -29z"/>
<path d="M247 310 c-35 -41 -53 -130 -37 -182 19 -66 43 -81 112 -75 76 7 88
17 88 79 0 72 -18 131 -52 172 -38 47 -76 49 -111 6z m77 -3 c-2 -7 5 -22 16
-34 11 -12 20 -34 20 -48 0 -14 4 -25 8 -25 4 0 9 -14 10 -31 1 -16 3 -33 5
-37 1 -4 -7 -16 -19 -28 -27 -27 -77 -25 -104 4 -22 24 -31 113 -12 120 6 2 9
9 6 15 -2 7 5 23 16 35 12 12 18 27 15 32 -3 6 5 10 19 10 17 0 24 -4 20 -13z"/>
</g>
</svg>
