<?xml version="1.0" standalone="no"?>
<!DOCTYPE svg PUBLIC "-//W3C//DTD SVG 20010904//EN"
 "http://www.w3.org/TR/2001/REC-SVG-20010904/DTD/svg10.dtd">
<svg version="1.0" xmlns="http://www.w3.org/2000/svg"
 width="54.000000pt" height="115.000000pt" viewBox="0 0 54.000000 115.000000"
 preserveAspectRatio="xMidYMid meet">
<metadata>
Created by potrace 1.10, written by Peter Selinger 2001-2011
</metadata>
<g transform="translate(0.000000,115.000000) scale(0.100000,-0.100000)"
fill="#000000" stroke="none">
<path d="M250 834 c-6 -14 -10 -37 -10 -52 0 -15 -13 -79 -29 -142 -16 -63
-32 -140 -35 -171 -3 -31 -13 -75 -21 -98 l-15 -42 45 45 c49 51 84 59 118 29
20 -18 20 -17 11 107 -5 69 -7 163 -6 210 3 92 -8 140 -33 140 -9 0 -20 -12
-25 -26z m25 -221 c-5 -42 -3 -54 4 -43 8 11 11 -4 11 -56 l0 -72 -32 -5 c-18
-2 -35 -3 -38 0 -8 7 -2 111 6 125 5 7 10 31 11 52 3 48 10 56 22 25 l10 -24
0 28 c1 15 4 27 7 27 3 0 3 -26 -1 -57z"/>
<path d="M250 403 c-26 -10 -91 -77 -111 -115 -28 -54 -27 -180 1 -208 44 -44
192 -13 218 46 18 38 14 77 -13 136 -14 29 -25 61 -25 71 0 20 -37 78 -48 76
-4 0 -14 -3 -22 -6z m15 -41 c18 -15 76 -169 75 -198 0 -18 -43 -50 -88 -64
-35 -11 -46 -11 -67 0 -23 12 -25 19 -25 90 0 69 3 81 29 117 16 23 27 44 23
48 -3 3 1 3 11 -1 13 -5 16 -2 11 10 -8 21 6 20 31 -2z"/>
</g>
</svg>
