<?xml version="1.0" standalone="no"?>
<!DOCTYPE svg PUBLIC "-//W3C//DTD SVG 20010904//EN"
 "http://www.w3.org/TR/2001/REC-SVG-20010904/DTD/svg10.dtd">
<svg version="1.0" xmlns="http://www.w3.org/2000/svg"
 width="53.000000pt" height="115.000000pt" viewBox="0 0 53.000000 115.000000"
 preserveAspectRatio="xMidYMid meet">
<metadata>
Created by potrace 1.10, written by Peter Selinger 2001-2011
</metadata>
<g transform="translate(0.000000,115.000000) scale(0.100000,-0.100000)"
fill="#000000" stroke="none">
<path d="M270 901 c-5 -11 -10 -35 -10 -53 0 -18 -9 -88 -19 -155 -25 -155
-37 -333 -24 -333 5 0 18 9 28 20 24 26 63 25 92 -2 27 -26 28 -21 7 74 -11
49 -17 129 -19 243 -2 163 -11 225 -34 225 -6 0 -15 -9 -21 -19z m40 -426 c8
-9 6 -14 -7 -20 -17 -6 -17 -7 1 -21 19 -13 19 -14 -8 -14 -35 0 -60 22 -43
39 9 9 8 14 -3 21 -10 7 -11 13 -4 18 5 4 10 31 11 60 0 29 5 58 12 65 6 6 12
20 12 32 1 11 5 -22 10 -74 5 -51 13 -99 19 -106z"/>
<path d="M274 380 c-46 -18 -94 -128 -94 -217 0 -41 3 -45 35 -59 19 -7 54
-14 79 -14 36 0 48 5 65 26 69 88 2 296 -85 264z m20 -30 c14 -5 26 -16 26
-25 0 -8 5 -15 10 -15 6 0 10 -13 10 -28 0 -16 3 -32 8 -36 9 -10 10 -56 0
-56 -4 0 -5 -6 -2 -13 8 -22 -34 -51 -69 -49 -45 4 -66 26 -62 67 2 19 7 40
11 47 5 7 10 22 11 33 2 11 12 32 23 47 14 19 16 28 7 31 -23 10 2 7 27 -3z"/>
</g>
</svg>
