<?xml version="1.0" standalone="no"?>
<!DOCTYPE svg PUBLIC "-//W3C//DTD SVG 20010904//EN"
 "http://www.w3.org/TR/2001/REC-SVG-20010904/DTD/svg10.dtd">
<svg version="1.0" xmlns="http://www.w3.org/2000/svg"
 width="54.000000pt" height="115.000000pt" viewBox="0 0 54.000000 115.000000"
 preserveAspectRatio="xMidYMid meet">
<metadata>
Created by potrace 1.10, written by Peter Selinger 2001-2011
</metadata>
<g transform="translate(0.000000,115.000000) scale(0.100000,-0.100000)"
fill="#000000" stroke="none">
<path d="M266 747 c-11 -15 -16 -54 -18 -119 -3 -82 0 -99 16 -117 29 -32 41
-26 58 27 16 49 13 99 -11 190 -13 48 -24 52 -45 19z m39 -145 c5 -25 2 -38
-11 -53 -13 -15 -19 -16 -26 -7 -12 19 -10 76 4 98 14 22 22 14 33 -38z"/>
<path d="M362 758 c-8 -11 -9 -31 -1 -77 10 -66 -4 -138 -37 -188 -35 -55 -96
1 -100 92 -3 68 -13 135 -26 158 -8 15 -12 16 -24 6 -13 -11 -15 -42 -13 -188
1 -117 -2 -186 -10 -205 -6 -16 -10 -30 -8 -32 2 -2 19 2 39 8 29 8 45 7 84
-6 26 -9 66 -16 89 -16 22 0 46 -5 52 -11 8 -8 11 9 10 62 -1 41 2 121 7 179
9 113 0 170 -32 210 -15 19 -20 20 -30 8z m-124 -278 c51 -48 96 -31 124 46
18 49 18 49 15 12 -2 -29 0 -35 10 -26 10 8 13 6 13 -6 0 -9 -4 -16 -9 -16 -5
0 -7 -27 -4 -59 2 -44 -1 -63 -12 -74 -11 -12 -12 -17 -2 -21 6 -3 -17 -4 -52
-2 -35 2 -67 9 -70 14 -3 6 -17 12 -31 13 -23 4 -25 8 -28 72 -2 38 1 67 7 67
5 0 5 13 -1 34 -6 19 -7 43 -3 53 6 13 10 4 16 -35 4 -34 15 -61 27 -72z"/>
<path d="M160 307 c-41 -14 -59 -53 -59 -132 -1 -79 15 -95 99 -95 60 0 69 3
75 20 3 11 11 20 16 20 6 0 7 -9 4 -20 -6 -19 -2 -20 64 -20 70 0 72 1 91 32
24 40 25 76 3 122 -18 39 -53 56 -115 56 -21 0 -55 7 -75 15 -42 18 -56 18
-103 2z m140 -26 c88 -16 100 -21 100 -34 0 -7 5 -18 12 -25 17 -17 18 -63 2
-90 -15 -23 -67 -31 -79 -12 -8 14 -78 13 -109 -1 -41 -19 -74 -4 -85 38 -6
20 -7 41 -3 47 3 6 7 16 7 21 0 6 8 25 18 44 20 36 12 35 137 12z"/>
</g>
</svg>
