<?xml version="1.0" standalone="no"?>
<!DOCTYPE svg PUBLIC "-//W3C//DTD SVG 20010904//EN"
 "http://www.w3.org/TR/2001/REC-SVG-20010904/DTD/svg10.dtd">
<svg version="1.0" xmlns="http://www.w3.org/2000/svg"
 width="53.000000pt" height="114.000000pt" viewBox="0 0 53.000000 114.000000"
 preserveAspectRatio="xMidYMid meet">
<metadata>
Created by potrace 1.10, written by Peter Selinger 2001-2011
</metadata>
<g transform="translate(0.000000,114.000000) scale(0.100000,-0.100000)"
fill="#000000" stroke="none">
<path d="M226 758 c-31 -49 -50 -141 -47 -228 1 -47 3 -108 4 -137 2 -48 3
-50 22 -40 25 14 174 18 198 5 15 -8 17 -6 11 16 -3 14 4 71 16 126 20 91 21
108 10 168 -7 37 -15 71 -17 75 -10 16 -43 -26 -48 -62 -8 -46 -34 -108 -53
-123 -22 -19 -42 17 -42 74 0 54 -18 135 -31 143 -4 3 -15 -5 -23 -17z m53
-196 c10 -19 18 -22 39 -17 15 4 29 11 30 16 2 5 8 7 13 3 5 -3 9 6 9 19 0 14
7 40 15 58 l16 34 -6 -42 c-5 -41 9 -70 18 -36 4 18 1 -6 -9 -62 -3 -16 -5
-38 -5 -47 0 -10 -5 -18 -10 -18 -6 0 -7 -9 -4 -20 4 -13 1 -22 -10 -26 -14
-6 -14 -8 2 -19 15 -11 10 -14 -38 -20 -77 -10 -105 -5 -101 19 2 12 -1 17
-10 13 -11 -4 -14 18 -13 114 0 106 2 120 20 133 19 14 20 13 25 -32 3 -26 12
-58 19 -70z"/>
<path d="M316 718 c-17 -40 -22 -133 -7 -142 13 -8 45 71 44 109 -1 18 -6 41
-11 52 -10 16 -12 14 -26 -19z"/>
<path d="M201 330 c-36 -18 -91 -92 -91 -122 0 -24 18 -59 39 -75 9 -7 44 -13
77 -13 60 0 61 1 56 25 -2 14 0 25 6 25 5 0 12 -13 15 -29 6 -26 12 -30 53
-37 54 -8 93 14 106 62 12 39 -18 140 -48 163 -32 25 -166 26 -213 1z m183
-19 c9 -7 16 -19 16 -26 0 -8 5 -15 11 -17 17 -6 17 -90 1 -110 -20 -24 -57
-23 -91 1 -25 18 -31 19 -69 6 -52 -18 -87 -7 -94 29 -8 41 25 93 76 120 32
16 129 14 150 -3z"/>
</g>
</svg>
