<?xml version="1.0" standalone="no"?>
<!DOCTYPE svg PUBLIC "-//W3C//DTD SVG 20010904//EN"
 "http://www.w3.org/TR/2001/REC-SVG-20010904/DTD/svg10.dtd">
<svg version="1.0" xmlns="http://www.w3.org/2000/svg"
 width="54.000000pt" height="114.000000pt" viewBox="0 0 54.000000 114.000000"
 preserveAspectRatio="xMidYMid meet">
<metadata>
Created by potrace 1.10, written by Peter Selinger 2001-2011
</metadata>
<g transform="translate(0.000000,114.000000) scale(0.100000,-0.100000)"
fill="#000000" stroke="none">
<path d="M132 964 c-16 -11 -22 -25 -22 -53 0 -61 54 -95 167 -106 68 -7 73
-6 97 18 28 28 36 90 16 128 -14 25 -106 29 -96 3 3 -9 6 -20 6 -25 0 -5 7 -9
15 -9 8 0 15 5 15 12 0 6 9 3 20 -7 14 -13 18 -25 13 -44 -10 -42 -34 -59 -79
-55 -53 5 -114 25 -114 37 0 6 -7 18 -16 28 -14 16 -14 19 3 38 22 26 52 27
98 1 40 -22 41 -21 20 20 -14 27 -20 30 -68 30 -31 0 -62 -6 -75 -16z"/>
<path d="M149 798 c11 -18 26 -69 35 -112 9 -47 27 -98 43 -125 30 -48 124
-131 148 -131 26 0 16 35 -19 69 -38 37 -89 140 -90 183 -1 36 -16 37 -16 1 0
-28 17 -85 34 -113 8 -13 7 -13 -6 0 -19 18 -62 137 -60 165 1 11 -4 23 -11
27 -7 4 16 8 49 8 54 0 64 -3 78 -24 9 -14 13 -32 10 -40 -4 -9 -1 -16 6 -16
6 0 10 -6 8 -12 -3 -7 1 -33 9 -57 11 -39 11 -47 -2 -60 -13 -14 -15 -13 -15
4 0 11 -9 31 -20 45 -11 14 -20 33 -20 42 0 9 -5 20 -10 23 -6 4 -8 10 -5 15
3 5 0 12 -6 16 -18 11 -1 -62 27 -115 26 -50 106 -141 123 -141 18 0 13 32
-25 139 -33 95 -46 184 -30 210 4 5 -7 3 -24 -6 -39 -19 -132 -10 -187 18 -20
10 -38 19 -40 19 -1 0 6 -15 16 -32z"/>
</g>
</svg>
