<?xml version="1.0" standalone="no"?>
<!DOCTYPE svg PUBLIC "-//W3C//DTD SVG 20010904//EN"
 "http://www.w3.org/TR/2001/REC-SVG-20010904/DTD/svg10.dtd">
<svg version="1.0" xmlns="http://www.w3.org/2000/svg"
 width="54.000000pt" height="114.000000pt" viewBox="0 0 54.000000 114.000000"
 preserveAspectRatio="xMidYMid meet">
<metadata>
Created by potrace 1.10, written by Peter Selinger 2001-2011
</metadata>
<g transform="translate(0.000000,114.000000) scale(0.100000,-0.100000)"
fill="#000000" stroke="none">
<path d="M271 994 c-18 -8 -35 -24 -38 -34 -7 -25 -26 -27 -21 -2 4 19 -38 42
-79 42 -36 0 -73 -42 -73 -84 0 -83 35 -108 155 -111 44 -1 88 -5 97 -9 25
-11 75 42 83 87 9 46 0 82 -25 107 -23 23 -52 24 -99 4z m-98 -38 c3 3 15 -4
27 -16 19 -19 24 -20 38 -7 41 35 98 43 112 17 20 -38 1 -120 -28 -120 -7 0
-10 -4 -7 -10 3 -5 -1 -10 -10 -10 -9 0 -13 5 -10 10 5 7 -18 10 -68 8 -68 -3
-78 -1 -101 21 -30 28 -35 75 -10 102 12 13 21 16 34 9 10 -5 20 -7 23 -4z"/>
<path d="M83 785 c3 -22 9 -67 12 -100 15 -153 53 -257 103 -287 16 -10 32
-15 35 -12 3 3 -1 27 -9 52 -19 65 -19 252 0 252 9 0 26 -34 45 -91 16 -50 46
-119 66 -154 62 -112 75 -102 50 37 -10 57 -19 149 -19 205 -1 98 -2 102 -21
96 -11 -4 -29 -6 -40 -5 -11 1 -57 3 -101 5 -66 2 -86 6 -104 22 l-22 20 5
-40z m229 -33 c7 -7 12 -38 11 -80 -1 -44 2 -60 7 -47 6 15 9 7 9 -27 1 -27
-3 -48 -9 -48 -5 0 -10 10 -10 23 0 18 -2 19 -10 7 -8 -12 -10 -12 -11 5 0 11
-2 28 -5 38 -2 9 -6 25 -7 34 -2 9 -12 19 -21 23 -10 3 -17 10 -16 15 2 21
-32 16 -53 -7 -18 -20 -21 -31 -15 -59 4 -19 3 -49 -3 -66 -6 -18 -7 -38 -3
-44 4 -8 3 -9 -4 -5 -7 4 -12 16 -12 26 0 10 -4 20 -10 22 -5 2 -11 27 -12 55
-2 29 -5 53 -9 53 -3 0 -5 16 -6 35 -1 19 4 35 9 35 6 0 5 7 -3 16 -12 15 -5
16 78 13 56 -3 97 -9 105 -17z"/>
</g>
</svg>
