<?xml version="1.0" standalone="no"?>
<!DOCTYPE svg PUBLIC "-//W3C//DTD SVG 20010904//EN"
 "http://www.w3.org/TR/2001/REC-SVG-20010904/DTD/svg10.dtd">
<svg version="1.0" xmlns="http://www.w3.org/2000/svg"
 width="54.000000pt" height="114.000000pt" viewBox="0 0 54.000000 114.000000"
 preserveAspectRatio="xMidYMid meet">
<metadata>
Created by potrace 1.10, written by Peter Selinger 2001-2011
</metadata>
<g transform="translate(0.000000,114.000000) scale(0.100000,-0.100000)"
fill="#000000" stroke="none">
<path d="M332 993 c-42 -15 -43 -16 -23 -30 12 -8 21 -21 21 -29 0 -21 -9 -17
-32 11 -43 55 -134 73 -179 36 -21 -17 -24 -28 -23 -83 0 -40 6 -75 18 -96
l17 -34 146 4 c138 3 146 4 164 26 25 32 43 94 35 126 -9 35 -46 74 -76 80
-14 3 -44 -2 -68 -11z m-83 -45 c25 -13 48 -26 49 -30 8 -18 33 -6 47 22 9 18
23 30 35 30 20 0 59 -35 61 -54 4 -31 -20 -96 -34 -96 -5 0 -6 -4 -2 -9 9 -15
-22 -20 -132 -23 -116 -3 -122 0 -142 79 -9 35 -8 47 7 72 21 38 47 40 111 9z"/>
<path d="M417 763 c-12 -11 -228 -22 -254 -12 -26 10 -26 17 3 -166 16 -99 77
-240 104 -240 18 0 18 18 1 175 -20 180 6 236 62 133 20 -37 31 -77 38 -139
14 -128 59 -191 74 -103 4 23 3 96 -1 162 -4 67 -7 139 -5 160 3 34 -6 46 -22
30z m-152 -43 c-3 -5 -13 -10 -21 -10 -11 0 -13 -6 -9 -20 4 -13 2 -20 -7 -20
-10 0 -9 -3 2 -10 8 -5 10 -10 4 -10 -7 0 -8 -15 -3 -47 10 -60 9 -99 -1 -58
l-7 30 -10 -25 c-9 -23 -11 -23 -16 -5 -8 28 -12 144 -4 151 3 3 3 12 0 20 -4
11 5 14 37 14 25 0 39 -4 35 -10z m136 -2 c1 -7 3 -23 4 -35 1 -13 -4 -31 -11
-40 -13 -17 -13 -17 -14 0 0 10 -7 20 -15 23 -8 4 -15 14 -15 25 0 10 -8 23
-17 28 -14 8 -9 10 25 11 26 0 42 -5 43 -12z"/>
</g>
</svg>
