<?xml version="1.0" standalone="no"?>
<!DOCTYPE svg PUBLIC "-//W3C//DTD SVG 20010904//EN"
 "http://www.w3.org/TR/2001/REC-SVG-20010904/DTD/svg10.dtd">
<svg version="1.0" xmlns="http://www.w3.org/2000/svg"
 width="53.000000pt" height="114.000000pt" viewBox="0 0 53.000000 114.000000"
 preserveAspectRatio="xMidYMid meet">
<metadata>
Created by potrace 1.10, written by Peter Selinger 2001-2011
</metadata>
<g transform="translate(0.000000,114.000000) scale(0.100000,-0.100000)"
fill="#000000" stroke="none">
<path d="M170 988 c-37 -20 -54 -80 -41 -146 13 -68 39 -104 91 -127 52 -23
66 -16 100 51 31 61 36 182 9 209 -22 22 -126 30 -159 13z m131 -44 c16 -19
17 -120 1 -136 -6 -6 -8 -16 -5 -24 2 -7 -5 -19 -16 -26 -12 -7 -21 -19 -21
-26 0 -9 -7 -11 -22 -6 -31 9 -49 24 -42 36 3 5 -3 19 -13 31 -27 30 -32 127
-8 151 22 22 108 22 126 0z"/>
<path d="M155 729 c17 -27 36 -124 45 -233 11 -136 23 -182 56 -222 31 -40 47
-23 32 35 -9 35 -7 68 8 165 16 108 21 213 9 225 -3 2 -11 -2 -20 -9 -19 -16
-51 -8 -99 25 -21 14 -34 20 -31 14z m115 -79 c20 -20 27 -50 12 -50 -5 0 -10
-33 -11 -72 -1 -40 -3 -74 -4 -75 -2 -1 -8 2 -16 6 -8 5 -14 35 -17 77 -2 37
-8 72 -13 77 -10 10 7 57 21 57 4 0 17 -9 28 -20z"/>
</g>
</svg>
