<?xml version="1.0" standalone="no"?>
<!DOCTYPE svg PUBLIC "-//W3C//DTD SVG 20010904//EN"
 "http://www.w3.org/TR/2001/REC-SVG-20010904/DTD/svg10.dtd">
<svg version="1.0" xmlns="http://www.w3.org/2000/svg"
 width="54.000000pt" height="114.000000pt" viewBox="0 0 54.000000 114.000000"
 preserveAspectRatio="xMidYMid meet">
<metadata>
Created by potrace 1.10, written by Peter Selinger 2001-2011
</metadata>
<g transform="translate(0.000000,114.000000) scale(0.100000,-0.100000)"
fill="#000000" stroke="none">
<path d="M184 985 c-65 -28 -83 -146 -36 -236 27 -52 28 -61 31 -212 3 -163
17 -243 46 -267 28 -23 37 4 46 136 9 125 20 210 35 269 l7 30 -32 -28 c-39
-32 -51 -33 -82 -6 -21 18 -21 20 -4 14 51 -18 55 -17 90 21 40 43 55 88 54
154 -1 67 -12 93 -44 111 -45 25 -77 29 -111 14z m93 -49 c28 -23 29 -29 27
-91 -1 -44 -8 -75 -20 -93 -10 -15 -17 -31 -16 -35 1 -5 -2 -6 -8 -2 -5 3 -15
3 -21 -1 -8 -4 -7 -9 2 -15 11 -7 11 -9 1 -9 -7 0 -15 7 -19 16 -3 8 -12 13
-19 10 -7 -3 -11 0 -8 7 2 7 -4 22 -14 33 -29 31 -30 141 -2 177 27 34 59 35
97 3z m-27 -336 c0 -113 -12 -200 -28 -200 -12 0 -13 199 -1 221 13 25 29 14
29 -21z"/>
</g>
</svg>
