<?xml version="1.0" standalone="no"?>
<!DOCTYPE svg PUBLIC "-//W3C//DTD SVG 20010904//EN"
 "http://www.w3.org/TR/2001/REC-SVG-20010904/DTD/svg10.dtd">
<svg version="1.0" xmlns="http://www.w3.org/2000/svg"
 width="54.000000pt" height="115.000000pt" viewBox="0 0 54.000000 115.000000"
 preserveAspectRatio="xMidYMid meet">
<metadata>
Created by potrace 1.10, written by Peter Selinger 2001-2011
</metadata>
<g transform="translate(0.000000,115.000000) scale(0.100000,-0.100000)"
fill="#000000" stroke="none">
<path d="M170 998 c-38 -20 -38 -77 0 -176 23 -59 41 -90 70 -116 49 -44 69
-45 95 -4 83 133 81 215 -8 282 -33 24 -122 32 -157 14z m165 -70 c37 -44 37
-85 -3 -168 -14 -30 -28 -57 -30 -60 -7 -10 -82 80 -82 99 0 11 -6 24 -13 28
-18 11 -38 103 -26 125 10 19 62 27 101 15 15 -5 39 -22 53 -39z"/>
<path d="M204 694 c3 -16 13 -87 21 -159 20 -169 31 -232 61 -327 23 -73 39
-95 49 -65 2 6 6 62 9 122 3 61 9 166 14 235 11 143 10 210 0 210 -5 0 -8 -4
-8 -9 0 -4 -9 -20 -20 -34 -25 -31 -47 -27 -96 21 l-36 35 6 -29z m123 -83
c15 -20 16 -31 3 -31 -5 0 -10 -5 -10 -11 0 -5 5 -7 10 -4 6 3 10 -1 10 -9 0
-9 -4 -16 -10 -16 -5 0 -10 -5 -10 -11 0 -5 4 -7 10 -4 6 3 10 1 10 -4 0 -6
-4 -11 -10 -11 -6 0 -9 -3 -9 -7 1 -5 1 -46 0 -92 -1 -69 -3 -82 -16 -77 -8 3
-16 0 -17 -7 -1 -15 -16 93 -26 198 -10 104 -7 117 27 108 14 -3 31 -13 38
-22z"/>
</g>
</svg>
