<?xml version="1.0" standalone="no"?>
<!DOCTYPE svg PUBLIC "-//W3C//DTD SVG 20010904//EN"
 "http://www.w3.org/TR/2001/REC-SVG-20010904/DTD/svg10.dtd">
<svg version="1.0" xmlns="http://www.w3.org/2000/svg"
 width="54.000000pt" height="114.000000pt" viewBox="0 0 54.000000 114.000000"
 preserveAspectRatio="xMidYMid meet">
<metadata>
Created by potrace 1.10, written by Peter Selinger 2001-2011
</metadata>
<g transform="translate(0.000000,114.000000) scale(0.100000,-0.100000)"
fill="#000000" stroke="none">
<path d="M135 1005 c-19 -18 -25 -35 -26 -72 -2 -81 1 -96 32 -160 24 -51 35
-63 60 -68 40 -9 59 10 93 92 28 68 34 142 13 183 -25 50 -132 66 -172 25z
m85 -16 c0 -6 5 -7 11 -4 6 4 21 -3 35 -16 18 -17 24 -33 24 -67 0 -26 -6 -52
-15 -62 -8 -9 -16 -26 -18 -37 -2 -12 -15 -36 -29 -53 l-27 -32 -20 45 c-12
25 -21 53 -21 61 0 9 -4 16 -10 16 -6 0 -10 30 -10 71 0 38 4 68 9 65 5 -3 13
0 19 7 13 15 52 20 52 6z"/>
<path d="M162 617 c13 -165 49 -307 77 -307 5 0 12 53 15 118 3 64 8 154 11
200 l5 83 -22 -15 c-21 -15 -61 -13 -83 5 -7 5 -8 -23 -3 -84z m62 47 c-6 -2
-9 -18 -6 -34 3 -19 9 -27 16 -23 6 3 6 0 -1 -8 -7 -7 -13 -19 -13 -27 0 -7
-7 -20 -16 -29 -14 -14 -15 -9 -13 56 2 65 4 71 23 70 12 0 16 -3 10 -5z"/>
</g>
</svg>
