<?xml version="1.0" standalone="no"?>
<!DOCTYPE svg PUBLIC "-//W3C//DTD SVG 20010904//EN"
 "http://www.w3.org/TR/2001/REC-SVG-20010904/DTD/svg10.dtd">
<svg version="1.0" xmlns="http://www.w3.org/2000/svg"
 width="53.000000pt" height="115.000000pt" viewBox="0 0 53.000000 115.000000"
 preserveAspectRatio="xMidYMid meet">
<metadata>
Created by potrace 1.10, written by Peter Selinger 2001-2011
</metadata>
<g transform="translate(0.000000,115.000000) scale(0.100000,-0.100000)"
fill="#000000" stroke="none">
<path d="M256 1039 c-56 -13 -73 -33 -81 -91 -6 -42 -3 -62 21 -122 36 -91 50
-108 88 -104 59 6 114 133 101 233 -9 78 -48 103 -129 84z m78 -54 c6 -11 13
-22 16 -25 10 -10 11 -50 1 -68 -6 -11 -12 -34 -13 -51 -1 -17 -6 -31 -10 -31
-4 0 -8 -6 -8 -14 0 -8 -7 -17 -16 -20 -9 -4 -14 -13 -10 -21 8 -21 1 -19 -29
10 -14 14 -25 34 -25 43 0 10 -5 23 -12 30 -6 6 -12 39 -12 73 -1 53 2 63 23
80 31 25 80 22 95 -6z"/>
<path d="M232 628 c3 -51 7 -136 7 -188 1 -109 11 -135 34 -99 25 39 67 244
67 330 0 46 -1 49 -19 39 -25 -13 -68 -13 -76 0 -16 26 -19 3 -13 -82z m69 35
c2 -46 -4 -109 -12 -123 -7 -13 -9 -13 -10 0 0 8 -3 26 -5 40 -6 35 -6 41 -3
73 4 29 28 38 30 10z"/>
</g>
</svg>
