<?xml version="1.0" standalone="no"?>
<!DOCTYPE svg PUBLIC "-//W3C//DTD SVG 20010904//EN"
 "http://www.w3.org/TR/2001/REC-SVG-20010904/DTD/svg10.dtd">
<svg version="1.0" xmlns="http://www.w3.org/2000/svg"
 width="54.000000pt" height="114.000000pt" viewBox="0 0 54.000000 114.000000"
 preserveAspectRatio="xMidYMid meet">
<metadata>
Created by potrace 1.10, written by Peter Selinger 2001-2011
</metadata>
<g transform="translate(0.000000,114.000000) scale(0.100000,-0.100000)"
fill="#000000" stroke="none">
<path d="M261 998 c-63 -33 -84 -65 -83 -130 0 -29 6 -66 14 -83 15 -35 68
-115 76 -115 15 0 70 43 90 70 30 41 72 163 72 211 0 46 -15 58 -76 65 -39 4
-58 1 -93 -18z m124 -40 c10 -44 -13 -132 -47 -180 -11 -16 -16 -32 -13 -38 3
-6 -1 -7 -10 -4 -11 5 -14 2 -8 -12 5 -14 3 -16 -11 -11 -10 4 -22 7 -27 7
-16 0 -49 85 -53 138 -3 47 -1 54 29 85 27 28 40 34 83 36 46 2 52 0 57 -21z"/>
<path d="M347 705 c-22 -30 -74 -58 -93 -51 -8 3 -19 18 -26 33 l-11 28 -8
-40 c-4 -22 -3 -103 3 -180 5 -77 13 -187 17 -244 4 -67 10 -106 18 -108 7 -3
21 26 36 74 32 102 44 161 62 319 8 72 18 145 21 162 8 38 5 39 -19 7z m-28
-92 c0 -16 -8 -89 -18 -163 -16 -124 -18 -133 -31 -110 -7 14 -15 41 -16 60
-2 19 -7 62 -12 95 -12 76 -5 133 17 138 46 13 61 7 60 -20z"/>
</g>
</svg>
