<?xml version="1.0" standalone="no"?>
<!DOCTYPE svg PUBLIC "-//W3C//DTD SVG 20010904//EN"
 "http://www.w3.org/TR/2001/REC-SVG-20010904/DTD/svg10.dtd">
<svg version="1.0" xmlns="http://www.w3.org/2000/svg"
 width="55.000000pt" height="114.000000pt" viewBox="0 0 55.000000 114.000000"
 preserveAspectRatio="xMidYMid meet">
<metadata>
Created by potrace 1.10, written by Peter Selinger 2001-2011
</metadata>
<g transform="translate(0.000000,114.000000) scale(0.100000,-0.100000)"
fill="#000000" stroke="none">
<path d="M215 1007 c-34 -19 -41 -29 -48 -67 -17 -98 28 -211 90 -226 79 -20
152 147 109 250 -28 67 -82 82 -151 43z m98 -31 c25 -21 27 -29 27 -95 0 -46
-4 -70 -10 -66 -5 3 -10 -3 -10 -14 0 -12 -9 -26 -19 -33 -10 -6 -17 -18 -14
-25 3 -8 -3 -13 -16 -13 -14 0 -19 5 -15 15 4 8 1 15 -5 15 -6 0 -19 16 -28
35 -9 19 -20 35 -24 35 -3 0 -7 24 -7 53 -1 55 21 97 52 97 8 0 18 5 21 10 9
15 17 12 48 -14z"/>
<path d="M193 730 c16 -56 37 -219 37 -284 0 -85 17 -148 39 -144 31 6 49 94
52 259 4 154 4 156 -16 143 -32 -23 -61 -16 -91 19 -25 30 -27 30 -21 7z m95
-175 c3 -113 -2 -151 -17 -126 -5 7 -9 36 -11 65 -4 100 -5 111 -11 121 -10
15 9 57 23 53 9 -3 14 -37 16 -113z"/>
</g>
</svg>
