<?xml version="1.0" standalone="no"?>
<!DOCTYPE svg PUBLIC "-//W3C//DTD SVG 20010904//EN"
 "http://www.w3.org/TR/2001/REC-SVG-20010904/DTD/svg10.dtd">
<svg version="1.0" xmlns="http://www.w3.org/2000/svg"
 width="55.000000pt" height="115.000000pt" viewBox="0 0 55.000000 115.000000"
 preserveAspectRatio="xMidYMid meet">
<metadata>
Created by potrace 1.10, written by Peter Selinger 2001-2011
</metadata>
<g transform="translate(0.000000,115.000000) scale(0.100000,-0.100000)"
fill="#000000" stroke="none">
<path d="M160 963 c-18 -23 -21 -37 -17 -76 2 -27 13 -61 24 -75 20 -27 21
-27 129 -23 68 2 120 9 137 18 50 25 63 104 25 147 -27 29 -39 32 -95 22 -39
-7 -42 -10 -37 -32 4 -15 2 -24 -5 -24 -6 0 -11 9 -11 20 0 13 -12 25 -36 35
-55 23 -89 19 -114 -12z m97 -15 c21 -33 93 -47 93 -18 0 5 7 7 15 4 8 -4 17
1 21 10 5 13 10 12 35 -6 33 -24 40 -72 13 -82 -9 -3 -14 -13 -11 -21 4 -10 1
-12 -10 -8 -11 4 -14 2 -9 -5 4 -7 1 -12 -6 -13 -82 -5 -177 -4 -193 2 -11 4
-14 8 -7 8 10 1 10 5 -2 17 -9 8 -16 20 -17 25 -7 61 11 99 46 99 13 0 28 -6
32 -12z"/>
<path d="M430 785 c-29 -14 -219 -27 -241 -15 -12 7 -14 -8 -16 -93 0 -56 -8
-140 -17 -186 -9 -46 -16 -97 -16 -114 0 -29 1 -30 19 -13 28 26 94 159 121
244 14 43 28 72 36 72 20 0 19 -188 -1 -252 -16 -54 -7 -68 30 -44 50 33 81
121 100 285 8 68 14 126 12 127 -1 1 -13 -4 -27 -11z m-19 -42 c-15 -10 -14
-12 2 -18 11 -5 14 -12 9 -19 -5 -6 -9 -24 -10 -41 -5 -107 -20 -160 -35 -122
-3 6 -6 0 -6 -15 -1 -15 -5 -30 -11 -33 -14 -9 -13 81 1 107 8 15 8 19 0 14
-7 -5 -11 3 -11 19 0 36 -17 65 -38 65 -26 0 -63 -55 -70 -102 -4 -35 -6 -38
-16 -22 -6 11 -11 51 -11 89 l0 70 34 10 c18 6 66 10 106 10 58 0 69 -2 56
-12z"/>
</g>
</svg>
