<?xml version="1.0" standalone="no"?>
<!DOCTYPE svg PUBLIC "-//W3C//DTD SVG 20010904//EN"
 "http://www.w3.org/TR/2001/REC-SVG-20010904/DTD/svg10.dtd">
<svg version="1.0" xmlns="http://www.w3.org/2000/svg"
 width="54.000000pt" height="115.000000pt" viewBox="0 0 54.000000 115.000000"
 preserveAspectRatio="xMidYMid meet">
<metadata>
Created by potrace 1.10, written by Peter Selinger 2001-2011
</metadata>
<g transform="translate(0.000000,115.000000) scale(0.100000,-0.100000)"
fill="#000000" stroke="none">
<path d="M204 735 c-6 -16 -1 -110 12 -235 6 -55 5 -56 -38 -105 -25 -28 -47
-62 -50 -77 l-5 -27 42 24 c52 31 116 33 170 5 22 -11 41 -20 42 -20 2 0 -4
14 -12 30 -9 17 -27 86 -40 154 -23 121 -64 226 -99 255 -13 11 -17 10 -22 -4z
m47 -120 c5 4 9 -1 9 -9 0 -25 2 -30 15 -41 7 -5 15 -35 19 -65 3 -30 9 -74
12 -97 l7 -43 -51 0 c-49 0 -51 1 -48 28 1 15 8 26 15 24 7 -1 10 2 7 7 -9 13
5 72 15 65 5 -3 8 12 8 33 -1 37 -2 37 -9 8 -7 -30 -7 -30 -13 -5 -3 14 -8 48
-11 75 -4 37 -3 46 5 32 6 -9 14 -15 20 -12z"/>
<path d="M121 636 c-14 -55 -14 -106 -1 -140 5 -14 10 -45 12 -71 2 -25 6 -45
9 -45 8 0 34 31 48 57 21 41 -19 243 -48 243 -5 0 -14 -20 -20 -44z"/>
<path d="M157 290 c-26 -16 -47 -33 -47 -37 -1 -5 -5 -28 -9 -52 -11 -58 1
-88 41 -105 26 -11 38 -11 67 -1 35 12 36 14 34 59 -1 25 3 46 7 46 12 0 23
-56 15 -79 -5 -17 0 -21 29 -27 71 -13 126 18 126 70 -1 128 -148 199 -263
126z m156 -2 c15 -7 27 -18 27 -24 0 -5 8 -19 18 -30 21 -23 27 -71 11 -90 -6
-8 -26 -14 -44 -14 -26 0 -34 5 -38 22 -17 66 -66 75 -59 11 3 -25 1 -34 -7
-29 -7 4 -18 3 -26 -4 -15 -13 -49 0 -57 22 -9 26 -1 68 16 87 10 11 15 25 10
32 -5 9 -1 11 14 7 12 -3 21 -3 20 1 0 3 0 9 1 14 2 12 85 8 114 -5z"/>
</g>
</svg>
