<?xml version="1.0" standalone="no"?>
<!DOCTYPE svg PUBLIC "-//W3C//DTD SVG 20010904//EN"
 "http://www.w3.org/TR/2001/REC-SVG-20010904/DTD/svg10.dtd">
<svg version="1.0" xmlns="http://www.w3.org/2000/svg"
 width="54.000000pt" height="115.000000pt" viewBox="0 0 54.000000 115.000000"
 preserveAspectRatio="xMidYMid meet">
<metadata>
Created by potrace 1.10, written by Peter Selinger 2001-2011
</metadata>
<g transform="translate(0.000000,115.000000) scale(0.100000,-0.100000)"
fill="#000000" stroke="none">
<path d="M289 728 c-7 -24 -11 -58 -10 -77 2 -45 -17 -101 -35 -101 -18 0 -64
94 -64 131 0 15 -9 37 -19 50 l-19 24 -12 -30 c-21 -54 -23 -155 -6 -221 9
-34 16 -83 16 -108 0 -41 2 -46 18 -38 23 13 181 7 195 -7 6 -6 13 -11 17 -11
3 0 5 71 5 158 0 141 -2 163 -23 215 -13 31 -30 57 -37 57 -8 0 -19 -19 -26
-42z m37 -71 c11 4 14 -6 14 -52 0 -40 3 -54 12 -49 8 5 9 2 4 -11 -4 -11 -10
-44 -13 -75 -3 -30 -10 -58 -15 -61 -6 -4 -7 -12 -4 -18 5 -8 -9 -11 -46 -11
-86 0 -95 5 -109 63 -7 29 -12 60 -11 70 0 9 -3 17 -9 17 -14 0 -11 74 4 103
l13 25 13 -42 c16 -50 37 -76 65 -76 29 0 47 32 54 99 4 31 8 46 10 34 2 -14
8 -20 18 -16z"/>
<path d="M206 718 c-10 -38 -7 -61 15 -108 16 -35 22 -41 29 -30 13 21 12 75
-2 121 -12 43 -32 51 -42 17z"/>
<path d="M152 334 c-13 -9 -32 -36 -43 -61 -40 -94 -13 -173 59 -173 62 0 82
10 89 41 3 16 10 29 15 29 6 0 7 -11 4 -24 -5 -22 -2 -24 44 -30 63 -8 103 11
119 56 10 28 8 39 -12 78 -32 62 -76 90 -142 90 -29 0 -65 2 -81 6 -19 3 -37
-1 -52 -12z m188 -21 c0 -5 14 -24 30 -43 53 -62 32 -130 -36 -117 -13 2 -25
-1 -28 -7 -2 -6 -5 -4 -5 5 -1 24 -31 32 -51 14 -9 -8 -20 -15 -25 -15 -5 0
-16 -7 -24 -15 -15 -12 -20 -11 -49 11 -32 26 -39 50 -23 82 4 9 16 34 26 55
l18 37 84 0 c45 0 83 -3 83 -7z"/>
</g>
</svg>
