<?xml version="1.0" standalone="no"?>
<!DOCTYPE svg PUBLIC "-//W3C//DTD SVG 20010904//EN"
 "http://www.w3.org/TR/2001/REC-SVG-20010904/DTD/svg10.dtd">
<svg version="1.0" xmlns="http://www.w3.org/2000/svg"
 width="55.000000pt" height="114.000000pt" viewBox="0 0 55.000000 114.000000"
 preserveAspectRatio="xMidYMid meet">
<metadata>
Created by potrace 1.10, written by Peter Selinger 2001-2011
</metadata>
<g transform="translate(0.000000,114.000000) scale(0.100000,-0.100000)"
fill="#000000" stroke="none">
<path d="M134 713 c-20 -50 -20 -71 -13 -306 3 -99 6 -116 19 -111 14 7 60 14
176 30 32 4 59 2 72 -5 21 -11 21 -11 7 24 -11 26 -15 80 -15 214 0 176 -6
209 -32 183 -6 -6 -16 -57 -22 -114 -12 -102 -30 -150 -62 -162 -48 -18 -78
54 -79 189 0 84 -3 100 -16 103 -12 2 -22 -11 -35 -45z m48 -180 c6 -13 9 -26
5 -29 -10 -10 36 -54 56 -54 22 0 77 30 77 42 0 4 5 8 10 8 7 0 10 -27 8 -72
l-3 -73 -32 -3 c-18 -2 -33 -8 -33 -13 0 -6 -23 -9 -52 -7 l-53 3 -1 125 c0
68 1 118 4 110 2 -8 8 -25 14 -37z"/>
<path d="M229 718 c-24 -90 -27 -140 -12 -185 19 -56 31 -62 60 -29 20 23 23
38 23 106 0 79 -11 128 -33 142 -21 13 -26 9 -38 -34z m51 -137 c0 -28 -5 -53
-12 -57 -8 -5 -9 0 -5 15 5 22 5 22 -14 5 -18 -16 -19 -16 -19 9 0 38 17 77
35 77 11 0 15 -12 15 -49z"/>
<path d="M281 305 c-18 -8 -53 -15 -78 -15 -64 0 -98 -21 -118 -74 -14 -37
-15 -50 -5 -80 16 -48 50 -65 117 -59 43 5 53 9 56 27 l4 21 8 -22 c6 -17 16
-22 58 -25 70 -6 95 5 113 48 12 29 13 46 5 86 -16 70 -26 86 -69 98 -47 13
-50 12 -91 -5z m76 -11 c13 -4 20 -11 17 -16 -3 -5 4 -19 15 -30 14 -13 20
-26 16 -39 -4 -10 -2 -19 4 -19 15 0 -8 -59 -28 -69 -16 -9 -32 -8 -108 4 -28
5 -43 4 -43 -3 0 -5 -9 -8 -20 -5 -12 3 -20 0 -20 -6 0 -7 -5 -9 -12 -4 -7 4
-20 8 -28 10 -22 3 -51 46 -37 55 6 4 8 10 5 14 -4 4 1 19 12 34 11 16 20 33
20 39 0 6 18 11 43 11 23 0 62 7 87 14 54 18 50 17 77 10z"/>
</g>
</svg>
