<?xml version="1.0" standalone="no"?>
<!DOCTYPE svg PUBLIC "-//W3C//DTD SVG 20010904//EN"
 "http://www.w3.org/TR/2001/REC-SVG-20010904/DTD/svg10.dtd">
<svg version="1.0" xmlns="http://www.w3.org/2000/svg"
 width="55.000000pt" height="115.000000pt" viewBox="0 0 55.000000 115.000000"
 preserveAspectRatio="xMidYMid meet">
<metadata>
Created by potrace 1.10, written by Peter Selinger 2001-2011
</metadata>
<g transform="translate(0.000000,115.000000) scale(0.100000,-0.100000)"
fill="#000000" stroke="none">
<path d="M229 793 c-1 -10 -1 -125 -1 -255 0 -137 -3 -240 -9 -243 -5 -4 -9
-14 -9 -23 0 -9 -9 -28 -20 -42 -29 -37 -27 -114 3 -144 25 -25 102 -42 140
-30 42 12 67 45 67 86 0 65 -21 127 -53 160 -27 27 -36 30 -74 25 -42 -4 -58
5 -27 17 28 11 69 6 92 -10 26 -18 26 -21 2 90 -11 50 -20 118 -20 152 0 92
-49 234 -81 234 -5 0 -10 -8 -10 -17z m76 -356 c9 -55 1 -71 -25 -57 -16 8
-19 21 -18 61 0 32 4 46 9 37 6 -9 9 -4 9 17 1 27 2 28 10 9 5 -12 11 -42 15
-67z m2 -133 c12 -3 20 -11 17 -18 -2 -6 5 -22 16 -34 12 -12 18 -26 15 -31
-3 -5 -1 -12 3 -15 9 -5 8 -28 -4 -83 -4 -22 -30 -35 -74 -38 -17 -1 -36 10
-57 32 l-32 33 25 46 c13 25 22 50 19 55 -4 5 -1 9 5 9 6 0 15 11 20 25 10 27
13 28 47 19z"/>
</g>
</svg>
