<?xml version="1.0" standalone="no"?>
<!DOCTYPE svg PUBLIC "-//W3C//DTD SVG 20010904//EN"
 "http://www.w3.org/TR/2001/REC-SVG-20010904/DTD/svg10.dtd">
<svg version="1.0" xmlns="http://www.w3.org/2000/svg"
 width="55.000000pt" height="115.000000pt" viewBox="0 0 55.000000 115.000000"
 preserveAspectRatio="xMidYMid meet">
<metadata>
Created by potrace 1.10, written by Peter Selinger 2001-2011
</metadata>
<g transform="translate(0.000000,115.000000) scale(0.100000,-0.100000)"
fill="#000000" stroke="none">
<path d="M285 830 c-4 -6 -3 -55 0 -108 8 -105 -4 -190 -35 -252 -9 -19 -20
-68 -24 -109 l-6 -73 31 26 c40 34 79 38 110 10 14 -13 15 -9 13 38 -2 29 -6
109 -8 178 -6 174 -52 337 -81 290z m54 -328 l1 -119 -27 -12 c-21 -10 -29 -9
-40 2 -12 11 -12 22 0 68 8 30 18 78 22 106 8 64 21 78 18 20 -3 -48 2 -40 12
16 3 20 8 37 10 37 2 0 4 -53 4 -118z"/>
<path d="M240 723 c0 -27 -2 -93 -5 -148 -5 -98 -5 -99 11 -65 18 38 31 191
20 234 -10 42 -26 30 -26 -21z"/>
<path d="M270 307 c-50 -33 -72 -78 -78 -157 -4 -59 -2 -70 17 -89 44 -44 188
-18 205 37 10 30 -41 194 -65 215 -28 22 -39 22 -79 -6z m62 -11 c7 4 8 2 4
-5 -4 -6 -2 -19 5 -27 6 -8 9 -17 6 -21 -4 -3 -3 -11 2 -17 4 -6 14 -33 21
-59 12 -45 11 -50 -6 -68 -12 -11 -38 -21 -64 -24 -37 -3 -47 0 -66 21 -19 20
-22 29 -14 50 6 14 12 39 15 56 3 17 17 42 31 55 14 13 23 27 19 32 -3 5 3 11
12 13 10 2 20 0 21 -4 2 -5 9 -5 14 -2z"/>
</g>
</svg>
