<?xml version="1.0" standalone="no"?>
<!DOCTYPE svg PUBLIC "-//W3C//DTD SVG 20010904//EN"
 "http://www.w3.org/TR/2001/REC-SVG-20010904/DTD/svg10.dtd">
<svg version="1.0" xmlns="http://www.w3.org/2000/svg"
 width="53.000000pt" height="115.000000pt" viewBox="0 0 53.000000 115.000000"
 preserveAspectRatio="xMidYMid meet">
<metadata>
Created by potrace 1.10, written by Peter Selinger 2001-2011
</metadata>
<g transform="translate(0.000000,115.000000) scale(0.100000,-0.100000)"
fill="#000000" stroke="none">
<path d="M209 843 c-6 -15 -9 -64 -8 -108 2 -44 -1 -138 -5 -210 -9 -129 -9
-130 11 -112 36 31 78 18 131 -41 l32 -37 -15 45 c-9 25 -18 72 -22 105 -3 33
-19 111 -34 174 -16 63 -29 127 -29 143 0 64 -42 91 -61 41z m51 -199 c0 -8 7
-25 15 -37 20 -31 35 -144 21 -156 -13 -11 -68 -2 -61 9 3 5 1 11 -5 15 -5 3
-7 22 -4 41 5 31 12 104 13 142 1 18 21 5 21 -14z"/>
<path d="M211 391 c-12 -16 -21 -36 -21 -45 0 -9 -12 -44 -26 -78 -51 -122 1
-198 135 -198 69 0 91 28 91 118 0 78 -22 131 -77 184 -54 51 -76 56 -102 19z
m52 -14 c-4 -6 0 -8 10 -4 9 3 19 2 22 -3 3 -4 -1 -11 -7 -13 -9 -4 -8 -6 3
-6 8 -1 23 -20 33 -43 10 -24 21 -52 26 -63 15 -34 9 -103 -11 -120 -26 -24
-92 -21 -128 5 -26 18 -31 28 -31 60 0 22 9 59 19 82 35 78 45 103 43 109 0 3
5 6 13 6 8 0 11 -5 8 -10z"/>
</g>
</svg>
