<?xml version="1.0" standalone="no"?>
<!DOCTYPE svg PUBLIC "-//W3C//DTD SVG 20010904//EN"
 "http://www.w3.org/TR/2001/REC-SVG-20010904/DTD/svg10.dtd">
<svg version="1.0" xmlns="http://www.w3.org/2000/svg"
 width="54.000000pt" height="115.000000pt" viewBox="0 0 54.000000 115.000000"
 preserveAspectRatio="xMidYMid meet">
<metadata>
Created by potrace 1.10, written by Peter Selinger 2001-2011
</metadata>
<g transform="translate(0.000000,115.000000) scale(0.100000,-0.100000)"
fill="#000000" stroke="none">
<path d="M260 1016 c-21 -58 -56 -389 -62 -612 l-3 -81 39 38 c48 49 78 50
124 7 28 -27 33 -29 28 -12 -39 129 -64 361 -48 447 7 35 12 75 12 87 0 28
-58 150 -71 150 -5 0 -14 -11 -19 -24z m45 -236 c-4 -99 -2 -173 8 -233 7 -49
9 -91 5 -93 -5 -3 -4 -12 3 -20 9 -11 6 -14 -18 -14 -16 0 -34 -5 -40 -11 -8
-8 -13 -3 -18 19 -10 47 -8 182 3 232 6 25 11 82 11 128 1 45 6 92 10 105 5
12 12 31 16 42 5 16 8 17 16 5 5 -9 7 -75 4 -160z"/>
<path d="M274 371 c-47 -29 -81 -72 -103 -129 l-21 -53 28 -62 c16 -34 35 -67
43 -73 72 -58 195 13 193 110 -3 79 -22 148 -51 178 -43 45 -56 49 -89 29z
m41 -27 c17 -7 46 -57 52 -89 2 -11 6 -43 9 -71 6 -50 5 -51 -37 -87 -23 -21
-48 -37 -54 -37 -17 0 -70 61 -85 99 -11 28 -11 38 2 65 9 17 22 45 29 62 10
25 29 43 66 63 1 1 9 -2 18 -5z"/>
</g>
</svg>
