<?xml version="1.0" standalone="no"?>
<!DOCTYPE svg PUBLIC "-//W3C//DTD SVG 20010904//EN"
 "http://www.w3.org/TR/2001/REC-SVG-20010904/DTD/svg10.dtd">
<svg version="1.0" xmlns="http://www.w3.org/2000/svg"
 width="54.000000pt" height="114.000000pt" viewBox="0 0 54.000000 114.000000"
 preserveAspectRatio="xMidYMid meet">
<metadata>
Created by potrace 1.10, written by Peter Selinger 2001-2011
</metadata>
<g transform="translate(0.000000,114.000000) scale(0.100000,-0.100000)"
fill="#000000" stroke="none">
<path d="M242 854 c-28 -55 -53 -214 -55 -361 -2 -138 -1 -150 14 -137 26 23
74 17 107 -15 l31 -28 -5 66 c-4 40 -16 90 -32 126 -25 56 -27 70 -27 202 0
93 -4 146 -12 154 -8 8 -14 6 -21 -7z m22 -326 c0 -21 4 -38 8 -38 4 0 12 -18
18 -41 10 -35 9 -43 -5 -53 -10 -7 -31 -10 -47 -8 -27 4 -28 6 -13 15 18 9 18
10 0 23 -17 13 -17 14 0 20 17 7 17 8 1 20 -10 7 -13 15 -8 18 7 4 6 19 -1 42
-9 29 -8 40 6 64 11 18 17 53 18 102 l2 73 10 -100 c5 -55 10 -117 11 -137z"/>
<path d="M296 787 c-14 -30 -1 -219 17 -257 17 -35 17 -34 11 65 -8 140 -19
214 -28 192z"/>
<path d="M190 318 c-11 -18 -20 -43 -20 -54 0 -12 -7 -38 -15 -57 -23 -55 -19
-82 16 -111 26 -22 40 -26 95 -26 80 0 104 19 104 82 0 68 -19 120 -58 161
-49 50 -93 52 -122 5z m84 -4 c9 -3 16 -12 16 -19 0 -7 7 -18 15 -25 8 -7 15
-23 15 -36 0 -12 5 -26 10 -29 17 -10 7 -69 -15 -87 -21 -18 -95 -25 -95 -9 0
5 -10 11 -21 14 -19 5 -21 11 -17 49 3 24 12 59 20 78 9 19 18 43 22 53 6 18
23 21 50 11z"/>
</g>
</svg>
