<?xml version="1.0" standalone="no"?>
<!DOCTYPE svg PUBLIC "-//W3C//DTD SVG 20010904//EN"
 "http://www.w3.org/TR/2001/REC-SVG-20010904/DTD/svg10.dtd">
<svg version="1.0" xmlns="http://www.w3.org/2000/svg"
 width="54.000000pt" height="115.000000pt" viewBox="0 0 54.000000 115.000000"
 preserveAspectRatio="xMidYMid meet">
<metadata>
Created by potrace 1.10, written by Peter Selinger 2001-2011
</metadata>
<g transform="translate(0.000000,115.000000) scale(0.100000,-0.100000)"
fill="#000000" stroke="none">
<path d="M254 779 c-33 -65 -46 -117 -54 -214 -4 -55 -15 -131 -24 -170 -8
-38 -13 -71 -11 -73 2 -2 14 3 27 12 25 18 61 21 86 7 16 -8 17 8 16 218 0
124 -1 232 -2 239 -3 22 -21 13 -38 -19z m-3 -382 c-20 -53 -40 -21 -32 50 2
22 7 30 17 26 10 -4 15 3 16 23 1 16 3 6 5 -22 2 -27 -1 -62 -6 -77z"/>
<path d="M175 297 c-36 -36 -55 -89 -55 -154 0 -34 5 -46 32 -68 30 -25 38
-27 93 -22 74 7 105 36 105 99 0 46 -51 163 -76 172 -35 14 -67 5 -99 -27z
m86 -14 c27 -30 59 -101 59 -133 0 -32 -39 -60 -83 -60 -67 0 -79 12 -76 83 2
44 8 68 22 84 10 12 16 26 13 32 -5 8 2 13 34 20 3 0 17 -11 31 -26z"/>
</g>
</svg>
