<?xml version="1.0" standalone="no"?>
<!DOCTYPE svg PUBLIC "-//W3C//DTD SVG 20010904//EN"
 "http://www.w3.org/TR/2001/REC-SVG-20010904/DTD/svg10.dtd">
<svg version="1.0" xmlns="http://www.w3.org/2000/svg"
 width="54.000000pt" height="115.000000pt" viewBox="0 0 54.000000 115.000000"
 preserveAspectRatio="xMidYMid meet">
<metadata>
Created by potrace 1.10, written by Peter Selinger 2001-2011
</metadata>
<g transform="translate(0.000000,115.000000) scale(0.100000,-0.100000)"
fill="#000000" stroke="none">
<path d="M260 703 c-33 -52 -51 -109 -75 -237 -9 -50 -23 -105 -31 -124 -8
-19 -14 -36 -14 -38 0 -2 17 5 38 16 32 17 160 35 146 21 -4 -4 52 -41 62 -41
17 0 -12 59 -46 97 -46 49 -55 77 -42 129 15 56 25 179 17 203 -10 32 -22 26
-55 -26z m30 -98 c0 -34 -4 -45 -16 -45 -8 0 -13 -4 -10 -8 3 -5 6 -32 7 -60
2 -29 6 -52 11 -52 4 0 8 -9 8 -19 0 -11 7 -26 15 -35 22 -22 20 -23 -37 -22
-61 1 -69 8 -57 49 5 16 6 33 4 37 -2 4 0 22 6 41 5 19 12 50 15 69 3 19 10
37 16 39 5 2 13 14 18 27 14 36 20 29 20 -21z"/>
<path d="M356 668 c-13 -21 -36 -148 -36 -204 0 -13 13 -38 30 -56 l29 -33 1
34 c0 18 7 61 16 94 13 52 14 71 3 120 -14 67 -23 76 -43 45z"/>
<path d="M218 320 c-65 -20 -94 -47 -112 -106 -17 -55 -17 -57 1 -82 24 -32
64 -46 108 -38 32 6 34 9 37 53 2 26 8 48 14 50 8 3 10 -12 6 -45 -4 -45 -2
-50 19 -55 43 -12 76 -7 103 14 29 23 33 57 16 121 -18 63 -122 111 -192 88z
m98 -26 c19 -9 34 -22 34 -29 0 -6 9 -20 19 -29 23 -21 21 -70 -3 -95 -24 -23
-70 -4 -74 32 -6 54 -62 42 -62 -13 0 -23 -4 -27 -20 -23 -12 3 -20 0 -20 -7
0 -10 -3 -10 -15 0 -8 7 -15 9 -15 4 0 -4 -6 1 -14 12 -16 22 -11 70 10 95 8
8 14 20 14 26 0 9 27 26 60 36 28 10 52 7 86 -9z"/>
</g>
</svg>
