<?xml version="1.0" standalone="no"?>
<!DOCTYPE svg PUBLIC "-//W3C//DTD SVG 20010904//EN"
 "http://www.w3.org/TR/2001/REC-SVG-20010904/DTD/svg10.dtd">
<svg version="1.0" xmlns="http://www.w3.org/2000/svg"
 width="54.000000pt" height="115.000000pt" viewBox="0 0 54.000000 115.000000"
 preserveAspectRatio="xMidYMid meet">
<metadata>
Created by potrace 1.10, written by Peter Selinger 2001-2011
</metadata>
<g transform="translate(0.000000,115.000000) scale(0.100000,-0.100000)"
fill="#000000" stroke="none">
<path d="M187 1003 c-41 -11 -49 -115 -16 -203 11 -30 25 -61 31 -67 25 -30
110 -1 142 49 36 56 40 178 7 211 -12 12 -133 19 -164 10z m133 -45 c14 -16
20 -35 20 -70 0 -26 -5 -48 -10 -48 -6 0 -9 -3 -8 -7 1 -5 -4 -22 -12 -39 -10
-24 -19 -30 -34 -27 -17 4 -18 3 -6 -6 12 -8 12 -11 -3 -17 -13 -5 -23 1 -35
17 -9 13 -17 29 -17 34 0 6 -6 15 -13 20 -7 6 -16 36 -19 66 -5 49 -3 59 16
78 29 29 93 29 121 -1z"/>
<path d="M325 740 c-4 -7 -26 -20 -49 -31 -36 -16 -44 -16 -62 -4 -21 14 -22
12 -28 -38 -4 -29 -5 -59 -2 -67 3 -8 12 -63 21 -122 11 -81 13 -119 5 -153
-17 -75 10 -85 47 -17 27 49 31 70 43 209 5 65 17 142 25 171 16 51 15 77 0
52z m-45 -79 c13 -25 13 -44 0 -36 -5 3 -10 -26 -12 -72 -2 -63 -6 -78 -19
-81 -12 -2 -17 4 -16 20 0 13 -3 56 -7 96 -6 52 -5 72 4 72 6 0 8 5 5 10 -3 6
3 10 14 10 11 0 25 -9 31 -19z"/>
</g>
</svg>
