<?xml version="1.0" standalone="no"?>
<!DOCTYPE svg PUBLIC "-//W3C//DTD SVG 20010904//EN"
 "http://www.w3.org/TR/2001/REC-SVG-20010904/DTD/svg10.dtd">
<svg version="1.0" xmlns="http://www.w3.org/2000/svg"
 width="55.000000pt" height="115.000000pt" viewBox="0 0 55.000000 115.000000"
 preserveAspectRatio="xMidYMid meet">
<metadata>
Created by potrace 1.10, written by Peter Selinger 2001-2011
</metadata>
<g transform="translate(0.000000,115.000000) scale(0.100000,-0.100000)"
fill="#000000" stroke="none">
<path d="M141 994 c-40 -34 -48 -79 -25 -144 23 -63 43 -70 205 -70 135 0 145
5 158 88 14 92 -5 138 -59 143 -62 5 -83 -2 -122 -41 -45 -45 -48 -46 -48 -26
0 8 10 22 22 30 26 18 26 19 -35 34 -62 16 -61 16 -96 -14z m83 -20 c9 -3 16
-15 16 -25 0 -30 28 -34 50 -8 13 16 19 19 20 10 0 -12 3 -11 13 2 19 27 83
34 107 12 25 -23 28 -106 5 -125 -8 -7 -15 -19 -15 -26 0 -17 -7 -18 -135 -14
-104 2 -119 5 -110 21 4 5 1 9 -4 9 -6 0 -11 7 -11 15 0 8 -5 15 -11 15 -15 0
-6 84 11 105 13 16 38 19 64 9z"/>
<path d="M136 608 c-10 -223 0 -267 43 -197 12 20 22 61 26 108 7 76 32 150
62 183 24 26 31 23 43 -22 8 -29 7 -73 -5 -175 -9 -74 -13 -140 -10 -145 10
-17 36 2 57 43 37 73 58 150 68 243 5 50 12 98 15 106 5 13 0 15 -25 9 -36 -7
-228 2 -251 13 -15 6 -17 -12 -23 -166z m102 132 c23 -1 25 -2 10 -11 -10 -5
-18 -17 -18 -25 0 -8 -6 -17 -14 -20 -8 -3 -16 -14 -19 -25 -9 -34 -30 -23
-23 12 3 17 6 43 6 56 0 19 4 24 16 19 9 -3 28 -6 42 -6z m147 -10 c3 -5 0
-10 -7 -10 -8 -1 -5 -7 7 -16 12 -9 16 -18 10 -22 -12 -8 -13 -14 -16 -80 -1
-28 -6 -49 -11 -46 -4 3 -8 -6 -8 -20 0 -14 -4 -28 -10 -31 -6 -4 -8 35 -6
105 3 87 1 110 -9 110 -8 0 -17 5 -20 10 -4 6 8 10 29 10 19 0 38 -4 41 -10z"/>
</g>
</svg>
