<?xml version="1.0" standalone="no"?>
<!DOCTYPE svg PUBLIC "-//W3C//DTD SVG 20010904//EN"
 "http://www.w3.org/TR/2001/REC-SVG-20010904/DTD/svg10.dtd">
<svg version="1.0" xmlns="http://www.w3.org/2000/svg"
 width="54.000000pt" height="114.000000pt" viewBox="0 0 54.000000 114.000000"
 preserveAspectRatio="xMidYMid meet">
<metadata>
Created by potrace 1.10, written by Peter Selinger 2001-2011
</metadata>
<g transform="translate(0.000000,114.000000) scale(0.100000,-0.100000)"
fill="#000000" stroke="none">
<path d="M265 950 c-16 -31 -3 -43 14 -12 8 13 10 13 11 3 0 -12 3 -12 12 -3
19 19 62 14 81 -9 17 -19 17 -22 3 -38 -9 -10 -16 -22 -16 -27 0 -15 -61 -34
-113 -36 -51 -3 -72 10 -82 50 -5 21 -1 31 16 45 17 14 24 15 30 5 9 -15 14
-11 23 20 7 21 4 22 -38 22 -53 0 -66 -16 -66 -80 0 -31 6 -47 26 -67 24 -24
29 -25 97 -18 113 11 167 45 167 106 0 50 -27 69 -97 69 -48 0 -54 -2 -68 -30z"/>
<path d="M362 810 c-52 -28 -143 -35 -182 -15 -32 16 -32 16 -24 -7 14 -39 6
-95 -31 -200 -53 -152 -46 -173 31 -90 51 54 89 122 99 176 5 24 11 34 17 28
21 -21 -40 -158 -91 -206 -33 -31 -41 -66 -16 -66 24 0 118 83 148 131 16 27
34 78 43 125 9 43 24 94 35 112 21 36 18 37 -29 12z m-29 -47 c-7 -2 -13 -11
-13 -19 0 -9 5 -12 10 -9 6 3 10 2 10 -4 0 -5 -5 -11 -11 -13 -6 -2 -13 -21
-16 -43 -3 -22 -9 -41 -14 -43 -5 -2 -9 -12 -9 -23 0 -10 -5 -19 -11 -19 -7 0
-9 8 -4 23 16 49 17 89 4 98 -19 11 -36 -6 -45 -44 -10 -47 -33 -89 -45 -81
-7 4 -9 -1 -4 -15 4 -13 2 -21 -5 -21 -19 0 -23 30 -10 73 8 23 13 47 12 54
-2 6 2 14 7 18 6 3 8 12 4 21 -11 28 35 54 96 53 31 0 50 -3 44 -6z"/>
</g>
</svg>
