<?xml version="1.0" standalone="no"?>
<!DOCTYPE svg PUBLIC "-//W3C//DTD SVG 20010904//EN"
 "http://www.w3.org/TR/2001/REC-SVG-20010904/DTD/svg10.dtd">
<svg version="1.0" xmlns="http://www.w3.org/2000/svg"
 width="300.000000pt" height="86.000000pt" viewBox="0 0 300.000000 86.000000"
 preserveAspectRatio="xMidYMid meet">
<metadata>
Created by potrace 1.10, written by Peter Selinger 2001-2011
</metadata>
<g transform="translate(0.000000,86.000000) scale(0.100000,-0.100000)"
fill="#000000" stroke="none">
<path d="M1075 821 c-4 -12 -8 -59 -9 -104 -2 -45 -7 -91 -12 -102 -7 -18 -6
-18 9 -6 14 11 20 11 33 0 15 -13 16 -5 12 99 -4 110 -18 158 -33 113z"/>
<path d="M1917 824 c-3 -10 -9 -66 -13 -124 -5 -87 -4 -103 7 -92 15 14 39 16
39 2 0 -5 -6 -7 -13 -4 -7 2 -21 -4 -31 -15 -33 -37 -17 -101 25 -101 21 0 54
44 44 59 -13 22 -34 175 -29 214 4 29 1 48 -9 61 -14 20 -15 20 -20 0z"/>
<path d="M920 768 c0 -10 -4 -18 -10 -18 -5 0 -9 -31 -9 -72 1 -71 1 -73 26
-73 25 0 25 1 21 70 -3 39 -10 80 -16 90 -10 18 -11 18 -12 3z"/>
<path d="M1239 770 c-1 -8 -3 -44 -4 -80 -3 -63 -6 -88 -19 -140 -10 -37 14
-65 48 -56 25 6 27 10 21 39 -9 41 -13 46 -39 58 -20 9 -20 9 3 5 l24 -5 -7
87 c-3 47 -11 91 -16 96 -7 7 -11 5 -11 -4z"/>
<path d="M1398 718 c-2 -86 -5 -127 -13 -165 -6 -28 -4 -34 18 -44 40 -18 57
-6 57 40 0 31 -6 44 -26 60 -15 12 -22 21 -17 21 5 0 15 -6 22 -12 11 -11 13
-9 8 12 -3 14 -11 53 -18 88 -6 34 -16 62 -20 62 -5 0 -10 -28 -11 -62z"/>
<path d="M1597 773 c-11 -20 -50 -242 -44 -256 8 -22 39 -21 68 2 21 17 22 20
9 52 -19 48 -26 54 -47 38 -17 -13 -17 -13 -4 4 8 10 20 16 27 13 10 -4 13 12
11 69 -2 69 -9 97 -20 78z"/>
<path d="M1757 758 c-3 -13 -9 -54 -12 -93 -7 -69 -7 -70 17 -70 24 0 24 1 20
85 -4 87 -15 120 -25 78z"/>
<path d="M2074 733 c-4 -27 -8 -70 -9 -98 -1 -27 -5 -67 -9 -87 -7 -34 -6 -38
18 -44 14 -3 33 -4 41 0 33 12 4 95 -33 97 -11 0 -12 2 -4 6 7 3 20 -1 29 -8
14 -12 15 -11 8 10 -4 14 -7 45 -6 70 2 99 -22 137 -35 54z"/>
<path d="M350 718 c0 -40 -17 -59 -31 -37 -5 8 -9 24 -9 37 0 12 -5 22 -11 22
-9 0 -10 -20 -6 -67 4 -43 2 -80 -5 -100 -17 -47 2 -63 62 -54 36 5 46 10 48
27 4 27 -25 57 -48 51 -10 -3 -24 0 -31 5 -10 6 -2 8 24 6 l37 -4 0 56 c0 34
-6 64 -15 76 -13 18 -14 17 -15 -18z"/>
<path d="M723 671 c1 -47 6 -78 12 -76 5 1 7 0 2 -3 -15 -8 -37 -61 -31 -76 7
-18 47 -31 63 -21 12 7 15 68 4 79 -4 4 -8 13 -8 19 -1 21 -16 121 -21 140
-12 41 -22 11 -21 -62z"/>
<path d="M2266 723 c-3 -16 -8 -52 -11 -81 -6 -46 -5 -51 10 -46 11 4 7 -3
-10 -20 -29 -29 -30 -62 -2 -80 26 -17 53 5 49 40 -2 16 -6 71 -8 122 -5 90
-17 119 -28 65z"/>
<path d="M2640 716 c-6 -20 -9 -53 -5 -74 6 -35 8 -37 45 -37 l38 0 7 52 c10
78 -15 113 -27 39 -5 -32 -28 -31 -28 1 0 49 -16 60 -30 19z"/>
<path d="M128 735 c-3 -6 -3 -29 2 -53 5 -28 3 -47 -5 -58 -10 -15 -11 -12 -7
14 2 18 1 44 -3 59 -7 28 -7 28 -16 5 -5 -12 -5 -39 -1 -60 5 -20 4 -51 -1
-69 -12 -39 -4 -63 22 -63 12 0 21 8 24 23 l4 22 2 -23 c1 -18 6 -23 24 -20
24 3 33 33 18 57 -5 8 -25 15 -44 15 -19 1 -33 5 -30 9 3 5 18 7 33 5 27 -4
28 -3 23 31 -7 47 -37 118 -45 106z"/>
<path d="M508 734 c-5 -4 -8 -40 -8 -80 l0 -73 32 10 c42 12 51 11 43 -1 -3
-5 -19 -10 -35 -10 -30 0 -60 -22 -60 -45 0 -19 33 -36 50 -25 7 4 23 5 34 1
12 -5 27 -6 34 -4 14 5 16 59 2 68 -5 3 -10 42 -10 86 0 46 -4 79 -10 79 -5 0
-10 -15 -10 -34 0 -44 -9 -66 -26 -66 -14 0 -21 21 -26 73 -2 16 -6 25 -10 21z"/>
<path d="M535 717 c-8 -31 -4 -57 10 -60 14 -3 19 63 6 76 -7 7 -12 2 -16 -16z"/>
<path d="M2431 683 c-1 -34 -4 -69 -7 -77 -4 -11 -2 -15 7 -11 8 3 28 0 44 -5
30 -10 30 -10 -6 -6 -44 5 -55 -1 -64 -36 -8 -32 -3 -35 59 -39 59 -4 78 14
57 55 -10 17 -11 41 -7 80 8 58 2 96 -15 96 -5 0 -7 -10 -4 -23 8 -29 -11 -80
-28 -75 -6 3 -17 27 -24 54 l-11 49 -1 -62z"/>
<path d="M2460 695 c0 -25 5 -45 10 -45 6 0 10 20 10 45 0 25 -4 45 -10 45 -5
0 -10 -20 -10 -45z"/>
<path d="M2869 718 c-6 -12 -17 -45 -23 -73 l-12 -50 37 0 37 0 7 53 c6 51 2
73 -11 60 -3 -4 -6 -26 -7 -51 -1 -25 -5 -40 -10 -34 -4 7 -4 36 -1 65 7 56 2
65 -17 30z"/>
<path d="M1063 598 c-21 -26 -25 -75 -8 -92 26 -25 51 -20 65 15 11 27 11 33
-7 57 -23 31 -37 37 -50 20z"/>
<path d="M913 592 c-6 -4 -17 -20 -23 -36 -17 -47 22 -74 64 -43 16 11 16 15
1 50 -16 38 -21 42 -42 29z"/>
<path d="M2630 583 c-30 -21 -23 -57 13 -61 17 -2 27 1 27 9 0 7 6 5 14 -6 19
-26 46 -13 46 24 0 16 -6 33 -12 38 -22 13 -66 11 -88 -4z"/>
<path d="M1740 571 c-19 -37 -12 -70 16 -77 30 -8 44 7 44 47 0 45 -40 66 -60
30z"/>
<path d="M2830 570 c-39 -39 -21 -59 50 -56 29 1 36 5 38 25 7 47 -52 67 -88
31z"/>
<path d="M1408 319 c-21 -12 -23 -41 -7 -72 7 -11 11 -54 10 -94 -2 -67 9 -94
23 -58 14 36 18 115 7 115 -8 0 -7 6 3 16 49 48 18 126 -36 93z"/>
<path d="M701 311 c-10 -7 -12 -19 -7 -47 7 -41 11 -74 14 -159 2 -46 4 -49
17 -31 8 11 15 36 15 55 0 19 7 63 16 98 13 50 13 67 4 78 -14 17 -38 19 -59
6z"/>
<path d="M883 309 c-42 -15 -26 -99 17 -99 24 0 42 44 30 74 -11 31 -20 36
-47 25z"/>
<path d="M1068 309 c-17 -10 -26 -68 -12 -81 3 -4 6 -52 6 -108 1 -55 5 -103
9 -105 8 -6 25 65 35 145 5 45 4 53 -7 43 -7 -7 -17 -13 -22 -13 -4 0 4 10 18
23 18 15 28 36 32 65 5 39 4 42 -18 42 -13 0 -32 -5 -41 -11z"/>
<path d="M1246 304 c-17 -44 15 -107 45 -88 8 5 10 3 5 -5 -5 -7 -14 -10 -22
-7 -11 4 -14 -10 -14 -74 0 -44 4 -80 9 -80 17 0 48 213 36 251 -8 23 -50 26
-59 3z"/>
<path d="M1544 305 c-11 -29 15 -95 37 -95 16 0 41 62 35 86 -5 19 -13 24 -37
24 -17 0 -32 -6 -35 -15z"/>
<path d="M1711 306 c-20 -24 7 -256 29 -256 5 0 11 39 13 88 3 48 8 102 12
120 11 50 -26 82 -54 48z"/>
<path d="M1886 307 c-16 -12 -17 -16 -3 -48 8 -19 17 -66 21 -104 9 -83 24
-147 34 -141 4 2 9 45 10 94 3 87 2 90 -17 85 -12 -3 -21 -1 -21 6 0 5 6 8 14
5 8 -3 19 3 25 15 18 32 13 69 -11 85 -27 19 -29 19 -52 3z"/>
<path d="M255 291 c-12 -37 4 -52 53 -49 55 4 77 28 49 55 -17 17 -19 17 -30
2 -10 -14 -14 -14 -25 -3 -18 20 -40 17 -47 -5z"/>
<path d="M470 295 c-7 -8 -10 -25 -6 -40 6 -23 11 -25 66 -25 l60 0 0 35 c0
43 -20 54 -56 30 -15 -9 -24 -13 -20 -7 3 5 -1 13 -10 16 -21 8 -20 8 -34 -9z"/>
<path d="M2078 284 c-10 -21 -9 -31 3 -52 9 -15 23 -26 32 -26 9 1 14 -3 11
-8 -3 -5 -12 -7 -20 -4 -18 7 -20 -78 -3 -121 10 -26 12 -27 19 -8 5 11 9 38
9 59 1 22 6 66 13 97 9 46 9 61 -1 73 -20 24 -50 19 -63 -10z"/>
<path d="M2245 291 c-9 -29 2 -59 27 -72 18 -10 24 -8 35 7 8 11 13 33 11 49
-3 26 -8 30 -35 33 -24 2 -33 -1 -38 -17z"/>
<path d="M2718 303 c-10 -3 -18 -10 -18 -16 0 -8 -3 -7 -9 1 -14 23 -46 10
-46 -18 0 -21 5 -25 35 -28 19 -2 39 -7 44 -12 5 -5 -9 -7 -34 -5 l-43 4 6
-43 c14 -99 50 -135 40 -39 -5 41 -3 54 5 49 7 -4 12 -13 12 -19 1 -18 40
-101 45 -95 3 2 0 33 -7 68 -8 49 -8 71 2 98 10 28 10 36 -1 46 -8 7 -22 11
-31 9z"/>
<path d="M75 280 c-9 -29 2 -40 40 -40 41 0 71 25 54 46 -14 17 -46 18 -52 2
-4 -10 -6 -10 -6 0 -1 20 -29 14 -36 -8z"/>
<path d="M2422 263 c3 -35 6 -38 37 -41 48 -5 79 5 86 27 9 29 -5 51 -32 51
-20 0 -24 -4 -19 -17 6 -16 6 -16 -12 0 -10 9 -29 17 -41 17 -20 0 -22 -4 -19
-37z"/>
<path d="M2846 287 c-16 -12 -16 -15 -2 -42 9 -17 16 -38 16 -49 0 -24 36 -82
55 -90 20 -7 19 1 -5 31 -11 14 -19 35 -19 47 1 20 2 20 6 1 7 -26 42 -75 54
-75 5 0 2 16 -6 36 -8 20 -15 47 -15 59 0 18 -4 22 -19 18 -11 -3 -28 0 -38 7
-15 10 -13 11 14 6 20 -3 35 0 43 9 17 20 4 48 -19 42 -10 -2 -25 -1 -33 4 -9
5 -22 3 -32 -4z"/>
<path d="M118 233 c-29 -3 -38 -9 -38 -22 0 -10 -7 -37 -15 -60 -8 -22 -11
-41 -8 -41 9 0 32 32 48 65 8 17 14 23 15 14 0 -9 -10 -28 -21 -43 -12 -15
-18 -30 -15 -33 13 -13 55 43 64 85 6 23 9 41 8 40 0 -1 -18 -3 -38 -5z"/>
<path d="M310 230 c-36 -4 -45 -9 -46 -25 0 -11 -3 -42 -7 -70 l-7 -50 20 23
c11 13 22 39 26 58 11 58 27 40 20 -23 -6 -58 -6 -58 13 -36 16 20 40 120 30
126 -2 1 -24 0 -49 -3z"/>
<path d="M472 155 c-2 -37 1 -65 6 -65 13 0 22 25 22 58 0 36 16 60 29 47 7
-7 8 -30 2 -63 -5 -30 -4 -52 1 -52 14 0 38 65 38 102 0 32 -1 33 -48 36 l-47
2 -3 -65z"/>
<path d="M2479 212 l-46 -3 8 -49 c9 -55 26 -93 38 -85 5 2 4 25 -1 50 -5 25
-7 54 -3 63 6 16 8 15 21 -2 8 -11 14 -32 14 -47 0 -34 9 -59 21 -59 10 0 10
71 0 110 -5 23 -10 25 -52 22z"/>
<path d="M877 156 c9 -116 28 -125 39 -19 6 58 6 60 -18 65 -24 4 -25 3 -21
-46z"/>
<path d="M1565 150 c8 -63 24 -102 25 -59 0 14 3 46 6 70 6 41 4 45 -16 45
-21 0 -21 -3 -15 -56z"/>
<path d="M2267 146 c5 -54 20 -104 27 -94 2 1 6 37 10 78 6 75 6 75 -19 76
-24 2 -24 1 -18 -60z"/>
</g>
</svg>
