<?xml version="1.0" standalone="no"?>
<!DOCTYPE svg PUBLIC "-//W3C//DTD SVG 20010904//EN"
 "http://www.w3.org/TR/2001/REC-SVG-20010904/DTD/svg10.dtd">
<svg version="1.0" xmlns="http://www.w3.org/2000/svg"
 width="89.000000pt" height="164.000000pt" viewBox="0 0 89.000000 164.000000"
 preserveAspectRatio="xMidYMid meet">
<metadata>
Created by potrace 1.10, written by Peter Selinger 2001-2011
</metadata>
<g transform="translate(0.000000,164.000000) scale(0.100000,-0.100000)"
fill="#000000" stroke="none">
<path d="M395 1566 c-27 -12 -101 -67 -163 -120 -28 -25 -67 -85 -59 -92 3 -3
8 4 12 15 9 30 145 153 199 180 46 23 49 23 91 6 24 -9 57 -32 74 -50 16 -19
31 -30 33 -24 5 15 74 -58 94 -100 34 -69 18 -229 -42 -447 -24 -84 -29 -92
-65 -115 -21 -13 -39 -27 -39 -31 0 -12 7 -10 24 8 15 14 16 14 16 -4 0 -10
-11 -50 -25 -90 -17 -50 -28 -110 -36 -209 -6 -76 -13 -147 -14 -158 -2 -11
-4 -29 -5 -40 -2 -17 -3 -16 -9 5 -6 19 -9 11 -15 -40 -4 -36 -8 -78 -7 -94 0
-16 -6 -37 -13 -48 -35 -50 -67 79 -125 512 -7 47 -14 97 -17 112 -5 20 -2 27
12 30 14 2 12 6 -10 16 -27 12 -28 12 -22 -10 4 -13 13 -70 21 -128 63 -451
91 -575 133 -588 30 -9 75 196 91 423 11 149 23 202 76 330 40 97 79 256 96
385 10 82 10 103 -4 150 -21 72 -71 130 -155 179 -81 48 -108 55 -147 37z"/>
<path d="M161 1310 c0 -19 8 -75 20 -125 33 -148 90 -370 96 -375 3 -3 2 10
-2 29 -5 21 -4 31 3 27 5 -3 1 11 -9 30 -10 20 -28 80 -39 133 -12 53 -30 132
-40 176 -11 44 -21 94 -23 110 -4 28 -4 28 -6 -5z"/>
<path d="M558 907 c-10 -23 -18 -49 -18 -57 1 -8 10 8 20 35 24 61 22 81 -2
22z"/>
</g>
</svg>
