<?xml version="1.0" standalone="no"?>
<!DOCTYPE svg PUBLIC "-//W3C//DTD SVG 20010904//EN"
 "http://www.w3.org/TR/2001/REC-SVG-20010904/DTD/svg10.dtd">
<svg version="1.0" xmlns="http://www.w3.org/2000/svg"
 width="88.000000pt" height="159.000000pt" viewBox="0 0 88.000000 159.000000"
 preserveAspectRatio="xMidYMid meet">
<metadata>
Created by potrace 1.10, written by Peter Selinger 2001-2011
</metadata>
<g transform="translate(0.000000,159.000000) scale(0.100000,-0.100000)"
fill="#000000" stroke="none">
<path d="M320 1491 c-30 -3 19 -6 110 -6 107 0 144 2 105 6 -71 8 -139 8 -215
0z"/>
<path d="M241 1466 c-8 -9 -11 -52 -8 -127 l3 -114 2 116 c1 73 6 119 14 127
7 7 9 12 6 12 -3 0 -11 -6 -17 -14z"/>
<path d="M618 1468 c7 -7 20 -13 30 -13 15 0 17 -16 15 -180 -3 -206 -20 -322
-46 -317 -19 3 -24 -27 -7 -44 7 -7 3 -18 -11 -33 -11 -12 -18 -29 -15 -37 4
-10 2 -13 -6 -8 -8 5 -9 2 -5 -9 3 -10 3 -17 -1 -17 -26 0 -62 -267 -71 -517
-3 -105 -9 -194 -13 -198 -19 -19 -56 135 -112 475 -9 52 -25 149 -36 215 -24
146 -24 139 -2 131 13 -5 13 -3 -3 9 -11 8 -26 20 -34 27 -12 10 -13 8 -7 -13
25 -87 37 -148 52 -249 26 -182 100 -561 118 -604 28 -67 38 -33 48 156 12
270 33 403 83 553 59 173 74 266 82 479 6 167 5 180 -12 192 -25 18 -64 19
-47 2z"/>
<path d="M241 1188 c-1 -39 21 -157 38 -198 13 -33 14 -11 1 26 -6 16 -16 70
-24 119 -8 52 -14 74 -15 53z"/>
</g>
</svg>
