<?xml version="1.0" standalone="no"?>
<!DOCTYPE svg PUBLIC "-//W3C//DTD SVG 20010904//EN"
 "http://www.w3.org/TR/2001/REC-SVG-20010904/DTD/svg10.dtd">
<svg version="1.0" xmlns="http://www.w3.org/2000/svg"
 width="113.000000pt" height="158.000000pt" viewBox="0 0 113.000000 158.000000"
 preserveAspectRatio="xMidYMid meet">
<metadata>
Created by potrace 1.10, written by Peter Selinger 2001-2011
</metadata>
<g transform="translate(0.000000,158.000000) scale(0.100000,-0.100000)"
fill="#000000" stroke="none">
<path d="M745 1425 l-50 -12 90 0 c70 0 80 2 45 7 l-45 7 58 1 c49 2 62 -2 82
-23 26 -25 26 -23 27 -200 l0 -80 9 85 c4 47 6 94 4 105 -2 11 -4 33 -4 48 -1
16 -12 39 -26 52 -20 21 -33 25 -82 24 -32 -1 -80 -7 -108 -14z"/>
<path d="M241 1426 c3 -4 37 -9 75 -11 118 -8 377 -15 372 -10 -2 3 -65 7
-139 9 -74 3 -174 8 -224 12 -49 4 -87 4 -84 0z"/>
<path d="M176 1399 c-24 -19 -26 -26 -25 -97 0 -42 7 -156 14 -252 15 -182 14
-128 -2 197 l-6 131 34 21 c19 12 29 21 23 21 -6 0 -23 -9 -38 -21z"/>
<path d="M240 1390 c19 -5 54 -14 77 -21 32 -10 46 -10 54 -2 9 9 7 11 -9 6
-12 -3 -40 2 -62 11 -22 9 -53 15 -68 15 -24 -1 -24 -2 8 -9z"/>
<path d="M702 1384 c-33 -10 -61 -11 -115 -4 -109 14 -156 10 -67 -5 105 -19
159 -17 205 4 47 23 38 25 -23 5z"/>
<path d="M930 970 c-7 -83 -11 -152 -8 -155 2 -3 10 63 18 145 7 83 11 153 8
155 -3 3 -11 -62 -18 -145z"/>
<path d="M905 788 c-6 -6 -9 -27 -7 -45 3 -19 -1 -62 -8 -96 -23 -120 -125
-420 -156 -460 -41 -51 -56 -34 -83 93 -19 90 -20 91 -14 30 3 -36 13 -85 22
-110 14 -39 21 -45 48 -48 40 -4 58 21 89 126 13 43 39 124 59 181 29 87 48
172 69 319 4 24 -3 27 -19 10z"/>
<path d="M487 779 c-42 -25 -47 -64 -32 -240 30 -329 30 -331 60 -357 16 -13
31 -20 36 -15 5 5 24 68 43 139 30 119 32 136 24 209 -11 104 -46 233 -70 257
-20 20 -35 22 -61 7z m63 -69 c8 -25 19 -51 24 -59 7 -10 6 -12 -4 -6 -9 6 -9
0 2 -21 38 -71 48 -172 25 -245 -9 -30 -19 -66 -22 -81 -3 -15 -12 -34 -20
-42 -9 -8 -16 -18 -15 -21 2 -34 -2 -55 -11 -55 -21 0 -37 68 -43 190 -11 192
-16 254 -21 268 -2 7 0 24 5 38 7 16 7 23 0 19 -6 -4 -6 3 0 21 16 41 20 45
43 42 16 -2 26 -16 37 -48z"/>
<path d="M186 706 c16 -195 45 -315 111 -452 29 -62 42 -79 69 -90 24 -10 40
-11 60 -4 23 9 26 15 22 48 -3 20 -13 66 -23 102 -19 69 -25 198 -13 290 6 45
5 51 -4 30 -18 -40 -19 -256 -1 -315 26 -87 28 -122 6 -134 -26 -13 -83 20
-83 50 0 11 -12 36 -26 54 -52 69 -103 276 -104 422 l0 62 33 4 c25 3 23 4
-10 4 l-43 -1 6 -70z"/>
</g>
</svg>
