<?xml version="1.0" standalone="no"?>
<!DOCTYPE svg PUBLIC "-//W3C//DTD SVG 20010904//EN"
 "http://www.w3.org/TR/2001/REC-SVG-20010904/DTD/svg10.dtd">
<svg version="1.0" xmlns="http://www.w3.org/2000/svg"
 width="101.000000pt" height="158.000000pt" viewBox="0 0 101.000000 158.000000"
 preserveAspectRatio="xMidYMid meet">
<metadata>
Created by potrace 1.10, written by Peter Selinger 2001-2011
</metadata>
<g transform="translate(0.000000,158.000000) scale(0.100000,-0.100000)"
fill="#000000" stroke="none">
<path d="M475 1400 c-42 -5 -17 -5 61 -3 141 5 167 -1 209 -47 17 -19 21 -42
26 -164 l7 -141 -2 140 c-1 119 -4 144 -20 168 -38 57 -90 65 -281 47z"/>
<path d="M265 1372 c-16 -11 -35 -25 -41 -33 -19 -24 -44 -111 -43 -148 1 -30
3 -27 10 18 16 92 42 139 91 161 24 11 36 20 28 20 -8 0 -28 -8 -45 -18z"/>
<path d="M181 1068 c-2 -80 23 -196 58 -275 17 -37 31 -63 31 -56 0 6 -11 35
-25 65 -28 61 -42 119 -54 238 -8 77 -8 80 -10 28z"/>
<path d="M753 950 c-6 -41 -10 -76 -8 -78 6 -6 26 108 23 130 -2 13 -8 -11
-15 -52z"/>
<path d="M287 660 c15 -54 32 -169 38 -250 12 -170 43 -267 102 -321 68 -63
92 -43 132 111 72 277 111 433 109 435 -2 1 -16 5 -33 8 -27 6 -28 5 -7 -5 26
-13 27 -17 6 -93 -9 -33 -20 -76 -24 -95 -18 -80 -71 -278 -87 -322 -9 -26
-24 -49 -34 -51 -19 -5 -59 18 -59 34 0 6 -13 27 -29 47 -37 46 -57 127 -65
254 -3 54 -11 121 -17 149 -6 28 -9 62 -6 75 3 15 0 24 -9 24 -7 0 -14 3 -17
8 -2 4 -2 0 0 -8z"/>
</g>
</svg>
