<?xml version="1.0" standalone="no"?>
<!DOCTYPE svg PUBLIC "-//W3C//DTD SVG 20010904//EN"
 "http://www.w3.org/TR/2001/REC-SVG-20010904/DTD/svg10.dtd">
<svg version="1.0" xmlns="http://www.w3.org/2000/svg"
 width="300.000000pt" height="256.000000pt" viewBox="0 0 300.000000 256.000000"
 preserveAspectRatio="xMidYMid meet">
<metadata>
Created by potrace 1.10, written by Peter Selinger 2001-2011
</metadata>
<g transform="translate(0.000000,256.000000) scale(0.100000,-0.100000)"
fill="#000000" stroke="none">
<path d="M289 2455 c-52 -34 -89 -82 -89 -115 0 -54 39 -140 74 -161 38 -23
71 -26 38 -3 -34 24 -82 114 -82 155 0 59 88 129 143 115 28 -7 97 -73 98 -95
3 -50 -11 -92 -52 -158 -11 -17 -24 -60 -30 -95 -17 -111 -20 -123 -25 -140
-7 -25 -23 -22 -29 5 -14 61 -21 167 -11 168 6 0 1 5 -12 11 -12 6 -24 9 -26
7 -3 -2 3 -57 13 -122 18 -124 36 -162 65 -138 17 14 22 35 46 175 12 73 25
115 38 130 27 30 52 100 52 144 0 31 -7 45 -37 73 -80 76 -113 84 -174 44z"/>
<path d="M716 2437 c-29 -29 -30 -43 -15 -136 12 -80 31 -116 69 -136 50 -26
55 -17 12 25 -30 30 -43 52 -51 90 -25 114 -7 156 57 143 45 -9 64 -9 123 1
69 12 83 -7 77 -101 -4 -63 -10 -80 -37 -118 -36 -51 -58 -107 -67 -173 -7
-53 -20 -74 -33 -53 -13 21 -34 128 -27 139 3 5 -1 13 -10 16 -22 8 -36 8 -30
-2 2 -4 11 -43 20 -87 21 -103 34 -135 56 -135 23 0 37 35 55 140 8 47 15 86
15 87 0 0 15 20 34 42 37 44 56 109 56 191 0 41 -4 52 -27 70 -22 17 -34 20
-68 13 -50 -10 -110 -9 -152 1 -27 7 -36 4 -57 -17z"/>
<path d="M2605 2444 c-5 -1 -23 -5 -40 -9 l-30 -7 35 -13 c19 -8 67 -14 105
-14 78 -1 109 -15 119 -55 7 -27 -25 -185 -48 -239 l-13 -32 -16 35 -15 35 -1
-72 c-1 -106 17 -135 44 -70 26 63 75 276 75 326 0 51 -22 90 -52 92 -50 3
-88 8 -118 16 -19 5 -39 9 -45 7z"/>
<path d="M1234 2412 c-57 -38 -39 -205 42 -381 50 -111 75 -109 79 4 2 71 22
111 57 118 16 3 12 5 -12 5 -51 2 -62 -9 -67 -69 -6 -72 -17 -80 -42 -31 -53
104 -79 283 -45 316 20 21 20 21 106 -14 41 -16 94 -32 119 -35 l44 -5 -55 18
c-30 10 -80 33 -111 50 -54 31 -93 39 -115 24z"/>
<path d="M1445 2407 l-70 -12 41 -17 c47 -19 137 -36 94 -18 -20 9 -22 13 -10
20 47 30 90 -4 90 -71 0 -84 -65 -289 -91 -289 -5 0 -9 27 -9 61 0 54 -3 64
-29 90 -18 17 -40 29 -56 29 -29 0 -90 -28 -81 -38 4 -3 12 0 18 6 20 20 83
15 104 -9 16 -18 19 -34 16 -115 -2 -75 0 -94 11 -94 21 0 43 28 76 100 60
129 86 309 50 345 -21 22 -72 26 -154 12z"/>
<path d="M1836 2398 c-20 -28 -21 -110 -1 -148 8 -15 24 -70 35 -121 23 -102
59 -184 81 -184 11 0 15 20 19 86 5 93 18 119 56 119 33 0 38 -14 44 -114 3
-57 9 -91 17 -93 19 -7 58 83 82 185 11 51 28 106 36 122 22 43 20 125 -5 150
-21 21 -53 24 -165 11 l-60 -6 48 -22 c26 -12 65 -25 85 -28 35 -5 35 -4 10 6
-16 6 -28 15 -28 20 0 13 74 11 88 -3 16 -16 15 -90 -2 -135 -8 -21 -25 -75
-37 -121 -11 -45 -25 -84 -29 -87 -4 -2 -10 16 -13 41 -3 28 -13 54 -28 70
-54 57 -123 6 -131 -98 -4 -43 -16 -20 -38 72 -12 47 -27 102 -35 123 -18 45
-19 119 -3 135 18 18 43 15 99 -13 51 -26 139 -48 139 -35 0 4 -16 10 -35 13
-19 3 -59 22 -88 41 -65 43 -117 48 -141 14z"/>
<path d="M2436 2407 c-33 -24 -32 -94 4 -239 18 -73 39 -147 47 -166 23 -55
38 -34 40 54 2 64 0 75 -9 56 -6 -12 -16 -21 -22 -19 -15 5 -66 212 -60 245 8
42 24 54 63 48 20 -2 61 -7 91 -10 42 -4 46 -3 18 3 -20 4 -48 15 -62 24 -30
20 -85 22 -110 4z"/>
<path d="M2550 2136 c0 -3 7 -38 15 -78 32 -151 52 -174 79 -90 19 60 39 162
33 168 -6 7 -34 -65 -42 -109 -4 -20 -11 -37 -15 -37 -10 0 -30 47 -30 71 0
20 -26 79 -35 79 -3 0 -5 -2 -5 -4z"/>
<path d="M287 1629 c-58 -38 -87 -78 -87 -117 0 -41 24 -106 54 -145 19 -25
28 -56 40 -143 19 -134 29 -164 55 -164 25 0 46 58 61 171 7 47 18 97 26 110
69 120 81 185 42 234 -25 32 -105 85 -128 85 -9 0 -38 -14 -63 -31z m169 -62
c37 -44 26 -114 -29 -195 -19 -28 -29 -63 -41 -145 -16 -114 -32 -161 -46
-136 -5 8 -13 55 -19 104 -6 50 -14 100 -17 113 -6 19 -3 22 27 23 l34 0 -41
19 c-51 22 -80 62 -96 129 l-12 52 39 39 c21 21 52 46 69 54 28 14 33 13 69
-7 22 -12 50 -35 63 -50z"/>
<path d="M704 1605 c-16 -24 -16 -36 -7 -111 6 -47 17 -93 27 -106 9 -13 27
-37 40 -55 15 -20 30 -66 41 -123 10 -52 26 -100 36 -113 l19 -22 19 22 c10
12 24 53 30 90 7 37 15 81 18 96 3 16 18 44 35 63 38 43 58 109 58 189 0 85
-17 101 -97 90 -69 -8 -82 -8 -149 1 -49 6 -53 5 -70 -21z m141 -8 c17 0 51 3
76 8 37 6 49 4 63 -11 16 -15 18 -28 12 -85 -7 -83 -16 -105 -54 -147 -25 -27
-33 -50 -47 -130 -28 -155 -35 -158 -64 -33 -25 105 -26 125 -7 118 34 -13 21
7 -16 27 -23 11 -50 32 -60 46 -25 35 -44 165 -29 198 11 22 15 24 54 17 23
-4 56 -8 72 -8z"/>
<path d="M2570 1620 c-14 -4 -42 -8 -62 -9 -75 -2 -108 -35 -108 -108 0 -42
66 -305 86 -345 28 -54 44 -25 44 80 0 34 4 62 8 62 4 0 13 -32 20 -71 20
-117 55 -169 81 -121 5 10 17 56 26 103 20 98 35 123 35 57 0 -66 11 -138 22
-138 16 0 47 85 78 213 32 136 36 182 19 221 -14 30 -28 36 -94 47 -108 16
-131 18 -155 9z m102 -24 c25 -8 55 -12 67 -9 28 7 71 -38 71 -74 0 -42 -71
-324 -80 -318 -4 2 -10 40 -13 82 -4 62 -2 82 11 96 8 9 11 17 5 17 -30 0 -68
-76 -90 -180 -10 -45 -22 -82 -28 -83 -5 -1 -18 34 -28 78 -10 44 -28 100 -40
125 l-21 45 -7 -45 c-4 -25 -8 -66 -8 -92 -1 -27 -5 -48 -9 -48 -12 0 -75 267
-75 318 0 74 40 90 155 60 35 -8 53 -9 70 0 21 10 20 11 -14 11 -49 1 -74 11
-56 22 18 12 36 11 90 -5z"/>
<path d="M1842 1613 c-21 -8 -42 -60 -42 -104 0 -24 10 -60 24 -88 13 -25 29
-80 35 -121 12 -79 60 -194 86 -204 25 -9 36 29 33 116 -1 46 1 89 6 96 9 16
62 16 73 0 4 -7 8 -54 8 -105 0 -112 13 -135 51 -88 34 42 61 120 69 196 4 35
18 86 31 113 13 28 24 65 24 83 0 48 -24 100 -50 108 -13 4 -64 1 -115 -5 -70
-10 -99 -10 -125 -2 -34 12 -85 15 -108 5z m143 -46 c82 -39 115 -49 133 -38
7 4 -7 12 -38 20 -27 7 -52 17 -55 21 -7 11 129 33 154 25 20 -6 41 -52 41
-88 0 -11 -11 -45 -24 -76 -14 -31 -30 -90 -36 -131 -12 -81 -53 -185 -70
-175 -6 4 -8 36 -4 89 6 76 5 85 -15 105 -21 21 -65 28 -87 13 -27 -18 -35
-54 -29 -127 5 -46 3 -75 -3 -79 -20 -12 -62 101 -76 208 -5 38 -5 38 24 32
39 -7 38 5 -3 25 -63 31 -95 115 -66 172 26 48 60 49 154 4z"/>
<path d="M1244 1588 c-53 -25 -58 -123 -14 -260 36 -114 87 -203 115 -203 18
0 20 8 25 89 4 75 8 91 26 102 17 12 23 12 40 0 16 -13 19 -25 16 -93 -2 -88
7 -114 35 -97 45 27 119 212 129 321 7 77 -4 115 -38 137 -21 14 -32 14 -100
0 -69 -14 -82 -14 -138 0 -70 18 -68 18 -96 4z m326 -26 c32 -26 36 -85 11
-182 -25 -96 -84 -230 -101 -230 -9 0 -10 19 -5 69 7 75 -1 103 -36 122 -60
32 -101 -26 -92 -129 4 -41 2 -62 -5 -62 -17 0 -80 138 -102 224 -25 100 -25
137 1 170 26 33 57 33 126 1 64 -31 139 -46 167 -35 19 8 18 9 -7 9 -41 1
-117 22 -117 32 0 5 17 9 38 10 20 1 48 5 62 9 36 12 36 12 60 -8z"/>
<path d="M0 875 c0 -13 179 -15 1500 -15 1329 0 1500 2 1500 15 0 13 -171 15
-1500 15 -1321 0 -1500 -2 -1500 -15z"/>
<path d="M267 639 c-101 -66 -112 -133 -45 -270 27 -55 41 -102 53 -179 17
-111 31 -144 64 -153 49 -12 73 34 92 178 8 58 21 97 45 140 65 117 65 192 1
252 -74 71 -137 80 -210 32z m113 11 c19 0 108 -80 119 -108 11 -25 10 -40 -3
-85 -8 -29 -27 -70 -41 -90 -18 -27 -30 -69 -44 -153 -20 -118 -39 -164 -66
-164 -22 0 -35 40 -51 155 -17 121 -21 134 -45 160 -23 25 -49 99 -51 141 -1
18 8 45 21 63 26 36 119 93 139 86 8 -3 17 -5 22 -5z"/>
<path d="M298 601 c-59 -38 -80 -75 -68 -124 12 -53 41 -99 78 -120 49 -29 58
-15 13 18 -45 34 -71 78 -71 123 0 22 10 39 40 66 22 20 48 36 57 36 21 0 73
-35 95 -65 16 -21 16 -28 4 -68 -7 -25 -27 -65 -43 -89 -17 -26 -30 -59 -31
-83 -3 -49 -11 -75 -22 -75 -5 0 -8 8 -8 18 0 9 0 22 -2 27 -6 24 1 45 17 45
24 0 13 6 -26 14 -26 5 -32 3 -28 -8 3 -8 11 -52 17 -98 14 -111 20 -138 30
-138 10 0 16 25 35 150 12 80 22 113 44 146 15 24 34 64 41 90 11 40 11 51 -1
73 -16 28 -94 91 -113 91 -7 0 -33 -13 -58 -29z"/>
<path d="M698 631 c-26 -22 -34 -89 -18 -178 9 -55 20 -81 50 -122 27 -36 41
-66 45 -99 14 -102 49 -172 86 -172 38 0 63 57 84 192 3 21 16 50 29 65 37 44
54 85 67 158 14 79 1 137 -34 159 -34 21 -282 19 -309 -3z m147 -12 c17 -1 53
2 82 6 47 7 54 5 78 -19 25 -25 26 -30 19 -94 -9 -85 -28 -139 -58 -167 -25
-23 -33 -48 -55 -165 -16 -80 -26 -100 -52 -100 -25 0 -42 40 -58 134 -14 78
-22 97 -61 143 -50 57 -68 215 -29 254 17 17 28 20 62 14 23 -3 56 -6 72 -6z"/>
<path d="M728 594 c-12 -11 -10 -109 3 -160 13 -50 66 -104 102 -104 20 1 20
2 -8 23 -64 48 -85 88 -85 168 0 48 19 63 63 51 21 -6 55 -6 91 0 51 9 59 8
72 -8 7 -11 12 -28 9 -39 -3 -11 -5 -34 -5 -51 0 -20 -15 -54 -40 -91 -22 -33
-44 -83 -51 -111 -6 -29 -14 -52 -19 -52 -12 0 -22 49 -15 71 5 15 1 19 -15
19 -18 0 -21 -4 -17 -22 3 -13 13 -58 22 -101 9 -42 21 -77 26 -77 5 0 9 1 9
3 0 1 9 49 20 107 18 88 26 110 51 136 43 45 73 180 49 224 -11 21 -17 22 -69
15 -70 -8 -75 -9 -136 0 -27 4 -53 4 -57 -1z"/>
<path d="M2515 635 c-68 -12 -84 -19 -107 -45 -23 -25 -28 -39 -28 -83 1 -28
7 -80 14 -114 7 -35 11 -63 9 -63 -3 0 -1 -6 4 -13 5 -6 15 -37 22 -67 25
-108 62 -157 100 -133 17 11 23 9 41 -17 13 -18 30 -30 44 -30 24 0 56 28 56
48 0 15 5 15 29 0 47 -29 73 14 117 189 60 242 44 301 -86 324 -102 18 -130
18 -215 4z m212 -24 c77 -10 103 -38 103 -110 0 -60 -58 -299 -85 -350 -30
-58 -45 -31 -45 82 0 78 -15 82 -25 6 -11 -78 -38 -153 -56 -157 -22 -4 -50
57 -63 140 -6 38 -14 68 -18 68 -4 0 -8 -31 -8 -69 0 -104 -15 -128 -45 -72
-22 44 -85 300 -85 348 0 81 31 112 113 114 23 1 53 5 67 9 14 5 41 6 60 3 19
-3 59 -8 87 -12z"/>
<path d="M2574 591 c4 -6 22 -11 40 -11 19 0 49 -6 67 -14 19 -7 40 -11 47 -9
25 9 52 -28 52 -72 0 -43 -18 -110 -27 -101 -3 3 -13 -5 -23 -17 -14 -18 -16
-33 -9 -82 4 -33 8 -69 9 -80 3 -33 70 236 72 287 2 64 -17 84 -90 92 -31 4
-77 10 -101 13 -30 4 -42 2 -37 -6z"/>
<path d="M2447 565 c-10 -10 -17 -33 -17 -58 0 -46 60 -317 71 -317 7 0 20
163 13 170 -3 2 -9 -1 -13 -8 -12 -20 -27 4 -41 68 -25 113 -6 140 88 124 43
-7 70 -6 94 2 32 11 31 11 -37 18 -38 3 -86 9 -106 12 -26 4 -40 1 -52 -11z"/>
<path d="M2705 389 c-30 -15 -56 -56 -69 -107 -15 -58 -31 -64 -40 -15 -6 42
-40 103 -56 103 -6 0 -3 -15 7 -32 10 -18 27 -73 38 -123 11 -50 25 -88 30
-86 6 2 18 38 27 81 18 84 38 132 71 168 22 24 22 25 -8 11z"/>
<path d="M1845 631 c-67 -29 -85 -129 -41 -227 14 -33 30 -90 36 -129 13 -85
55 -175 92 -195 24 -13 29 -13 47 4 18 16 21 31 21 100 0 83 9 114 29 102 7
-4 11 -40 11 -92 0 -71 3 -87 20 -104 25 -25 41 -25 67 -1 34 32 63 103 78
194 9 47 25 107 36 133 30 66 23 154 -13 191 -25 24 -32 26 -100 23 -113 -5
-169 -4 -218 3 -25 4 -54 3 -65 -2z m99 -23 c32 -8 66 -9 131 -1 101 12 136 5
154 -33 17 -38 13 -106 -9 -149 -12 -22 -25 -72 -31 -111 -13 -94 -23 -127
-54 -180 -49 -83 -83 -49 -71 71 3 34 3 70 0 79 -10 26 -41 38 -64 26 -18 -10
-20 -21 -20 -103 0 -102 -9 -128 -37 -111 -35 21 -73 109 -87 201 -8 53 -21
102 -34 123 -14 23 -22 51 -22 82 0 105 40 134 144 106z"/>
<path d="M1842 578 c-7 -7 -12 -37 -12 -69 0 -63 20 -98 70 -124 48 -25 47
-17 -3 28 -43 40 -47 48 -47 88 0 77 30 87 125 39 72 -36 117 -46 142 -31 15
9 13 10 -17 11 -20 0 -66 16 -104 35 -72 36 -132 45 -154 23z"/>
<path d="M2068 583 c-46 -5 -49 -17 -7 -32 46 -16 70 -14 63 4 -7 18 18 20 47
5 26 -14 25 -77 -2 -129 -11 -22 -24 -67 -29 -101 -5 -34 -11 -64 -14 -67 -3
-3 -11 11 -20 30 -20 48 -56 71 -101 63 -37 -7 -75 -46 -75 -77 0 -30 -18 -22
-25 11 -4 18 -2 36 5 45 9 11 7 16 -9 25 -20 10 -21 8 -21 -28 0 -74 54 -225
73 -206 3 4 3 42 0 86 -6 73 -4 80 17 103 26 28 66 32 96 11 16 -12 20 -31 24
-113 l6 -98 27 57 c19 39 30 80 34 129 4 49 14 86 29 113 26 44 32 122 14 157
-11 19 -36 22 -132 12z"/>
<path d="M1213 584 c-34 -33 -39 -53 -34 -149 5 -94 96 -307 142 -330 24 -13
30 -13 51 4 20 17 23 28 23 90 1 38 4 73 7 77 17 17 28 -14 28 -80 0 -79 9
-96 50 -96 33 0 49 18 90 99 58 116 87 285 60 355 -18 48 -50 59 -143 50 -54
-6 -110 -5 -162 2 l-80 11 -32 -33z m136 -4 c33 -9 65 -8 133 1 l90 13 24 -27
c46 -54 25 -210 -49 -357 -68 -136 -97 -134 -97 5 0 79 -9 105 -36 105 -33 0
-44 -30 -41 -110 4 -135 -32 -136 -99 -2 -70 138 -96 292 -60 348 19 27 52 45
76 39 8 -2 35 -9 59 -15z"/>
<path d="M1465 555 l-60 -12 40 -11 c22 -7 57 -12 78 -12 26 0 36 -4 31 -11
-12 -20 -124 -4 -181 25 -66 33 -118 35 -134 4 -15 -29 -13 -109 6 -183 19
-71 80 -205 94 -205 6 0 9 31 8 80 -2 63 1 83 15 96 25 26 77 22 101 -7 17
-21 19 -34 13 -96 -4 -48 -2 -73 5 -73 14 0 74 132 93 206 22 87 21 176 -2
197 -21 19 -24 19 -107 2z m-108 -41 c61 -28 146 -37 192 -20 24 8 24 8 18
-50 -6 -69 -37 -166 -54 -171 -6 -2 -14 10 -18 26 -8 39 -39 61 -85 61 -46 -1
-69 -20 -84 -70 l-12 -42 -15 23 c-22 35 -49 138 -49 189 0 41 20 80 41 80 5
0 34 -12 66 -26z"/>
</g>
</svg>
