<?xml version="1.0" standalone="no"?>
<!DOCTYPE svg PUBLIC "-//W3C//DTD SVG 20010904//EN"
 "http://www.w3.org/TR/2001/REC-SVG-20010904/DTD/svg10.dtd">
<svg version="1.0" xmlns="http://www.w3.org/2000/svg"
 width="300.000000pt" height="192.000000pt" viewBox="0 0 300.000000 192.000000"
 preserveAspectRatio="xMidYMid meet">
<metadata>
Created by potrace 1.10, written by Peter Selinger 2001-2011
</metadata>
<g transform="translate(0.000000,192.000000) scale(0.100000,-0.100000)"
fill="#000000" stroke="none">
<path d="M127 1882 c9 -6 15 -53 24 -189 0 -13 4 -23 8 -23 4 0 6 -18 6 -39 0
-22 3 -37 7 -35 5 3 8 0 8 -6 0 -6 4 -9 8 -6 5 3 5 31 1 63 -4 32 -8 83 -8
113 -2 84 -17 130 -44 130 -13 0 -17 -3 -10 -8z"/>
<path d="M2861 1858 c-5 -13 -15 -70 -21 -128 -12 -115 -26 -181 -47 -220 -7
-14 -13 -31 -13 -37 0 -7 -4 -13 -10 -13 -6 0 -10 30 -11 68 -1 49 -3 60 -9
42 -7 -21 -8 -19 -9 18 -1 25 -6 42 -13 42 -6 0 -8 3 -5 7 4 3 3 11 -2 17 -4
6 -11 43 -15 83 -8 88 -13 103 -37 100 -27 -4 -36 -17 -12 -17 24 0 33 -18 33
-68 0 -20 5 -55 10 -77 5 -22 17 -83 26 -135 9 -52 19 -99 24 -103 10 -11 50
40 50 64 0 11 4 19 8 19 4 0 14 21 22 48 17 55 17 54 19 110 1 34 5 44 24 52
17 7 18 9 5 9 -11 1 -18 8 -17 19 0 10 3 12 6 5 2 -7 9 -13 15 -13 10 0 7 34
-9 98 -8 35 16 26 32 -12 8 -18 22 -66 31 -107 20 -87 13 -246 -13 -319 -9
-25 -15 -55 -15 -67 1 -12 -3 -25 -8 -28 -12 -8 -13 -45 -1 -45 5 0 12 8 15
17 11 28 24 2 31 -62 15 -134 5 -170 -46 -163 -15 3 -27 0 -26 -5 3 -16 -20
-19 -34 -4 -9 10 -24 12 -52 6 -29 -5 -50 -2 -81 12 -22 10 -53 19 -68 19 -16
0 -28 5 -28 12 0 6 -3 8 -6 5 -12 -12 -44 14 -44 35 l0 21 -23 -21 c-27 -25
-82 -39 -99 -25 -7 6 -23 9 -35 7 -12 -2 -28 3 -36 10 -12 13 -12 26 5 98 12
54 16 100 12 133 -6 50 -37 162 -55 200 -12 27 -2 -129 15 -210 12 -62 11 -95
-4 -95 -5 0 -9 -23 -8 -51 0 -31 -6 -56 -14 -64 -14 -14 -88 -28 -88 -17 0 4
-10 12 -22 17 -23 10 -26 27 -20 130 5 85 -37 306 -80 423 -14 37 -25 52 -38
52 -18 0 -19 -9 -13 -189 6 -180 5 -193 -17 -257 -15 -45 -20 -80 -17 -106 7
-49 7 -49 54 -54 84 -8 116 -14 127 -23 13 -11 104 -9 122 2 6 3 26 -2 45 -12
26 -14 54 -17 122 -16 63 1 90 -2 98 -12 6 -7 28 -13 49 -13 22 0 48 -8 63
-20 27 -22 53 -25 77 -10 9 6 23 3 41 -7 35 -21 88 -11 124 23 27 25 27 25 20
122 -4 53 -13 108 -20 122 -10 20 -10 35 2 80 8 31 15 112 16 185 2 110 -2
142 -21 210 -13 43 -28 85 -34 92 -16 20 -37 15 -47 -9z m-772 -159 c7 -23 15
-48 18 -58 4 -14 3 -14 -6 -1 -9 12 -11 13 -11 1 0 -29 -11 -2 -19 48 -10 61
1 67 18 10z m50 -299 c13 -93 16 -141 9 -154 -5 -10 -7 -33 -4 -51 l7 -34 -50
1 c-31 0 -55 5 -62 14 -18 22 -5 91 21 112 21 17 22 26 22 167 0 82 3 154 6
160 10 16 31 -71 51 -215z"/>
<path d="M82 1803 c-11 -38 -23 -81 -27 -97 -11 -53 -6 -244 10 -311 13 -60
13 -69 -1 -96 -9 -19 -17 -70 -21 -132 l-5 -102 28 -21 c34 -25 101 -39 117
-26 16 14 50 18 64 9 16 -10 59 1 74 19 6 8 25 14 42 14 17 0 38 7 48 16 13
12 37 16 92 15 54 0 78 3 87 14 8 9 21 13 35 9 13 -3 26 -1 29 4 3 5 -6 13
-21 16 -19 5 -23 10 -14 19 13 13 15 117 2 117 -17 0 -19 41 -5 98 7 31 13
102 12 157 l0 100 -13 -50 c-7 -27 -11 -73 -8 -100 3 -30 -1 -76 -11 -113 -10
-39 -12 -70 -7 -84 18 -49 22 -117 9 -137 -10 -13 -18 -17 -28 -11 -10 6 -18
2 -28 -11 -17 -24 -22 -24 -66 6 -35 24 -36 24 -36 4 0 -11 -4 -18 -9 -14 -5
3 -17 -2 -26 -11 -12 -12 -19 -14 -27 -6 -8 8 -22 3 -49 -19 -41 -33 -57 -36
-105 -25 -23 5 -36 3 -47 -8 -20 -21 -63 -12 -101 20 -27 24 -28 28 -21 82 3
31 9 77 12 102 6 58 16 67 43 40 12 -12 24 -20 26 -17 7 7 -15 57 -25 57 -5 0
-11 11 -13 25 -3 13 -1 22 3 19 11 -7 12 -8 -7 51 -21 68 -26 240 -9 305 8 29
11 58 8 66 -3 8 -1 14 3 14 5 0 10 14 11 30 1 17 1 30 -1 30 -2 0 -12 -30 -24
-67z"/>
<path d="M323 1836 c4 -9 3 -16 -2 -16 -12 0 -22 -116 -12 -142 7 -18 11 -3
16 60 11 120 37 127 51 12 9 -77 8 -175 -5 -377 0 -13 -11 -33 -23 -45 -25
-25 -26 -71 -2 -115 15 -26 15 -26 9 -3 -17 60 -17 90 -2 96 9 3 18 23 22 45
4 21 11 39 17 39 6 0 8 -9 5 -20 -3 -11 0 -20 6 -20 8 0 7 -3 -1 -9 -9 -5 -11
-17 -6 -35 5 -22 11 -27 28 -22 11 3 28 6 36 6 9 0 6 6 -9 16 -18 13 -25 14
-31 4 -5 -8 -9 -8 -13 4 -4 10 -1 16 8 16 19 0 19 14 0 76 -16 53 -21 296 -5
259 5 -11 9 -14 9 -7 1 7 -5 25 -13 40 -7 15 -16 51 -19 81 -7 61 -8 64 -44
69 -20 2 -24 0 -20 -12z"/>
<path d="M611 1808 c-5 -18 -12 -51 -15 -73 -5 -33 -3 -31 10 15 9 30 19 62
22 70 3 8 9 -39 14 -105 5 -66 12 -127 17 -136 5 -8 7 -37 6 -64 -2 -27 0 -43
4 -36 12 18 21 -22 10 -42 -6 -10 -4 -17 5 -20 7 -3 16 -23 19 -44 7 -44 40
-83 53 -62 4 7 3 10 -4 5 -14 -9 -62 219 -83 399 -15 126 -36 161 -58 93z"/>
<path d="M2300 1804 c-6 -14 -10 -46 -10 -72 -1 -56 -18 -149 -55 -295 -15
-59 -25 -110 -22 -113 11 -11 32 11 35 36 3 28 8 59 17 105 37 179 45 230 48
293 3 39 3 72 0 72 -2 0 -8 -12 -13 -26z"/>
<path d="M2334 1795 c3 -22 8 -65 11 -95 5 -50 18 -145 30 -210 2 -14 2 27 0
90 -5 124 -20 229 -37 245 -7 7 -8 -3 -4 -30z"/>
<path d="M2625 1774 c-8 -46 -18 -159 -16 -199 2 -63 22 -259 27 -264 10 -11
23 23 13 35 -6 7 -13 38 -16 69 -5 47 -3 58 13 70 17 13 17 14 1 9 -14 -5 -18
-1 -18 22 0 16 0 43 0 59 -1 100 2 165 9 165 4 0 9 16 10 35 3 46 -14 45 -23
-1z"/>
<path d="M454 1785 c15 -40 19 -105 7 -119 -7 -8 -13 -43 -13 -78 0 -64 16
-116 46 -153 16 -19 17 -19 10 15 -3 19 -13 47 -21 63 -15 30 -16 79 -1 148
10 50 -3 122 -24 135 -8 5 -9 1 -4 -11z"/>
<path d="M563 1645 c0 -116 2 -145 7 -105 11 74 11 176 1 225 -6 27 -9 -11 -8
-120z"/>
<path d="M417 1783 c-4 -3 -6 -22 -6 -42 1 -24 3 -28 6 -13 2 12 9 20 14 17 5
-4 9 5 9 19 0 25 -10 33 -23 19z"/>
<path d="M2406 1773 c-9 -21 -5 -382 4 -418 7 -31 8 -12 10 287 0 140 6 157
37 118 13 -16 18 -2 5 15 -11 17 -50 15 -56 -2z"/>
<path d="M2546 1698 c4 -51 7 -94 8 -95 1 -1 8 23 17 53 17 55 16 73 -1 32 -7
-18 -9 -10 -9 34 -1 31 -6 60 -11 63 -8 5 -9 -23 -4 -87z"/>
<path d="M229 1761 c15 -10 30 -68 38 -156 5 -51 4 -58 -8 -48 -13 10 -15 -5
-15 -107 -1 -66 2 -117 6 -115 3 2 6 -6 6 -18 -1 -12 6 -23 15 -25 15 -3 15 3
6 50 -14 69 -13 105 6 207 14 79 14 86 -4 139 -20 59 -35 82 -53 82 -6 0 -5
-4 3 -9z"/>
<path d="M2495 1750 c-3 -11 -3 -25 1 -31 4 -8 3 -9 -4 -5 -7 4 -6 -10 3 -41
17 -55 20 -161 5 -183 -9 -13 -10 -13 -11 0 -1 21 -17 -30 -18 -60 l-1 -25 24
30 c13 17 31 56 40 87 18 66 20 79 6 58 -7 -11 -10 -2 -10 33 0 28 -4 47 -11
47 -8 0 -10 16 -6 50 6 50 -6 77 -18 40z"/>
<path d="M855 1750 c-4 -6 1 -7 11 -3 12 5 15 2 11 -13 -3 -10 -9 -41 -12 -69
-4 -27 -11 -66 -15 -85 -12 -45 -15 -188 -5 -217 6 -18 3 -23 -9 -23 -9 0 -16
-8 -16 -17 0 -15 2 -15 9 -4 7 11 14 8 35 -15 30 -34 39 -60 34 -100 -3 -25
-7 -29 -35 -29 -17 0 -29 -3 -26 -7 2 -5 -2 -8 -9 -8 -7 0 -23 -3 -35 -6 -22
-6 -22 -6 -7 25 18 37 11 86 -11 77 -8 -3 -16 3 -19 12 -2 9 -2 -5 1 -33 4
-41 1 -55 -17 -78 -12 -15 -30 -27 -40 -25 -9 2 -19 -1 -21 -7 -6 -15 50 -18
68 -3 17 14 20 14 94 17 39 1 48 5 57 26 17 36 15 78 -5 127 -15 35 -18 72
-17 208 1 91 6 181 12 202 7 25 7 39 -1 47 -14 14 -24 14 -32 1z"/>
<path d="M211 1690 c0 -42 3 -60 8 -51 5 8 7 21 3 29 -3 10 -1 13 6 8 8 -5 12
1 12 18 0 14 -4 26 -9 26 -5 0 -12 8 -14 18 -3 9 -5 -12 -6 -48z"/>
<path d="M2746 1728 c-9 -12 -16 -27 -16 -33 0 -5 5 -3 11 5 7 11 8 4 4 -25
-4 -37 -4 -38 5 -10 5 17 8 36 5 44 -3 7 0 20 6 27 6 8 9 14 6 14 -3 0 -13
-10 -21 -22z"/>
<path d="M2776 1723 c-15 -52 -16 -93 -2 -143 l15 -55 0 70 c1 39 4 87 7 108
7 38 -10 54 -20 20z"/>
<path d="M1044 1623 c0 -27 -2 -82 -3 -123 -2 -94 7 -160 26 -182 8 -9 13 -29
11 -44 -2 -22 -10 -30 -38 -37 -41 -10 -60 -24 -60 -44 0 -11 6 -10 26 6 15
12 35 21 45 21 9 0 19 5 21 12 7 21 28 -3 28 -32 0 -37 4 -39 66 -33 l52 5 17
66 c15 52 16 71 6 97 -6 18 -11 93 -11 178 0 141 -7 171 -28 130 -5 -10 -21
-67 -36 -128 -15 -60 -33 -135 -41 -165 -8 -30 -16 -68 -17 -85 -3 -24 -7 -15
-22 40 -12 46 -20 120 -24 218 -2 81 -7 147 -11 147 -3 0 -6 -21 -7 -47z m171
-117 c-3 -55 -9 -111 -12 -123 -3 -13 1 -29 11 -38 23 -23 20 -44 -7 -56 -13
-6 -31 -23 -40 -39 -17 -28 -24 -55 -9 -35 4 6 19 16 35 22 24 11 27 11 27 -7
0 -30 -28 -52 -50 -40 -13 7 -21 7 -25 0 -17 -27 -24 -3 -20 67 4 60 9 80 25
95 21 20 27 34 10 23 -13 -8 -13 8 -1 20 5 6 11 33 13 60 1 28 6 52 9 55 6 5
18 66 19 98 0 7 5 10 11 6 8 -4 9 -38 4 -108z"/>
<path d="M1874 1662 c-8 -4 -12 -48 -13 -119 -2 -104 -9 -177 -27 -248 -4 -17
-3 -27 2 -22 5 5 8 12 7 15 0 4 3 15 9 25 7 14 16 17 34 13 32 -8 31 8 -2 23
-19 8 -24 16 -19 29 9 23 18 116 18 179 -1 67 22 82 32 20 3 -23 10 -62 15
-87 5 -25 11 -85 13 -135 3 -69 9 -98 26 -125 25 -41 27 -54 6 -46 -9 3 -19
-3 -25 -15 -14 -24 -43 -18 -79 18 -31 30 -22 38 24 23 42 -14 57 -6 29 15
-22 17 -74 20 -74 4 0 -5 -4 -7 -10 -4 -14 9 -13 -1 5 -35 9 -17 34 -39 57
-51 l42 -21 33 36 c38 41 40 56 14 134 -10 31 -21 88 -24 125 -7 72 -42 215
-58 232 -6 5 -9 4 -9 -4 0 -7 -5 -9 -11 -6 -6 4 -8 13 -5 21 6 16 5 16 -10 6z"/>
<path d="M820 1647 c-36 -27 -71 -249 -54 -336 8 -39 24 -41 24 -3 0 47 29
224 46 281 16 56 10 78 -16 58z"/>
<path d="M1703 1653 c-9 -3 -13 -29 -13 -81 0 -42 -5 -128 -11 -191 -8 -84 -7
-126 1 -161 l12 -48 51 -4 c29 -3 55 -3 60 -1 10 6 8 101 -3 143 -17 67 -29
116 -56 233 -15 64 -27 117 -28 116 -1 0 -7 -3 -13 -6z m33 -164 c3 -6 11 -45
16 -88 13 -108 14 -112 33 -149 18 -35 17 -63 -2 -69 -7 -3 -17 13 -23 37 -8
29 -20 47 -41 58 -32 19 -35 28 -14 56 8 10 12 23 9 28 -10 15 -16 210 -8 238
6 20 9 12 15 -37 4 -35 11 -68 15 -74z m4 -258 c5 -11 10 -27 10 -36 0 -14 -2
-14 -25 1 -27 18 -34 54 -10 54 8 0 19 -9 25 -19z"/>
<path d="M990 1574 c-11 -36 -18 -70 -15 -74 3 -5 0 -10 -6 -12 -5 -2 -13 -39
-16 -83 -3 -44 -12 -92 -19 -107 -32 -63 -3 -178 45 -178 22 0 111 76 111 95
0 8 -11 3 -29 -13 -46 -43 -59 -52 -76 -52 -8 0 -15 6 -15 14 0 7 -9 16 -20
19 -15 4 -20 14 -20 41 0 37 18 86 32 86 11 0 10 -17 -2 -41 -8 -13 -7 -19 0
-19 19 0 29 46 29 131 1 86 20 199 40 237 10 18 9 22 -3 22 -10 0 -22 -23 -36
-66z"/>
<path d="M1543 1628 c-13 -17 -43 -164 -43 -211 0 -21 -6 -53 -14 -71 -13 -32
-21 -101 -18 -158 2 -28 2 -28 76 -28 51 0 77 4 85 14 14 17 6 85 -19 146 -9
25 -23 101 -30 170 -13 134 -20 160 -37 138z m40 -308 c2 -8 12 -32 22 -53 14
-28 17 -44 9 -65 -11 -32 -53 -42 -77 -17 -14 14 -17 14 -26 -2 -13 -25 -22
-12 -28 42 -4 31 -2 45 7 45 6 0 10 6 7 13 -2 6 2 26 10 44 7 18 13 49 13 70
0 21 6 73 12 117 l13 79 17 -129 c9 -71 19 -136 21 -144z"/>
<path d="M1506 1265 c-3 -10 1 -15 12 -15 10 0 28 -7 40 -16 18 -12 22 -13 22
-1 0 18 -32 47 -52 47 -9 0 -18 -7 -22 -15z"/>
<path d="M1341 1553 c-7 -43 -16 -107 -20 -143 -5 -36 -12 -74 -16 -84 -6 -14
-5 -17 3 -12 17 10 15 0 -4 -18 -15 -16 -36 -121 -26 -131 3 -3 38 -5 79 -5
75 0 93 10 80 42 -4 8 -8 4 -13 -10 -6 -21 -11 -23 -68 -20 l-61 3 2 39 c2 21
12 54 24 73 17 27 19 37 9 43 -10 6 -10 8 0 12 8 2 14 28 17 69 2 35 5 78 7
94 3 17 5 46 6 65 2 74 20 1 27 -106 3 -60 12 -120 20 -134 20 -38 16 -50 -15
-50 -27 0 -52 -20 -65 -53 -9 -23 5 -21 27 4 13 15 26 20 49 17 29 -3 32 -1
34 27 2 16 -1 41 -7 55 -5 14 -11 48 -14 75 -4 49 -25 188 -32 213 -2 6 -10
12 -17 12 -10 0 -18 -23 -26 -77z"/>
<path d="M2565 1396 c-11 -44 -25 -84 -31 -90 -6 -6 -14 -43 -17 -81 -5 -51
-4 -65 4 -52 5 9 18 17 28 17 12 0 21 12 29 38 10 33 10 35 -3 18 -8 -11 -16
-18 -19 -15 -6 7 -26 47 -26 52 0 7 22 3 37 -6 16 -10 25 41 21 128 l-3 70
-20 -79z"/>
<path d="M473 1428 c3 -13 9 -40 12 -60 4 -21 14 -43 23 -50 13 -11 15 -10 9
5 -4 10 -14 42 -23 72 -15 53 -32 79 -21 33z"/>
<path d="M2755 1374 c-6 -43 -2 -64 10 -52 9 8 12 89 4 94 -4 2 -10 -17 -14
-42z"/>
<path d="M561 1383 c0 -12 -9 -35 -18 -51 -14 -24 -15 -35 -5 -63 l12 -34 -5
34 c-3 19 2 47 11 66 9 19 14 42 11 52 -4 15 -5 14 -6 -4z"/>
<path d="M2432 1258 c-17 -66 -14 -93 4 -35 8 27 14 56 12 65 -2 10 -9 -4 -16
-30z"/>
<path d="M456 1247 c-6 -19 -13 -26 -23 -22 -11 4 -13 1 -9 -11 3 -8 6 -20 6
-25 0 -11 37 -12 42 -1 2 4 1 25 -2 47 -6 39 -6 39 -14 12z"/>
<path d="M2666 1217 c-9 -23 -15 -54 -15 -67 1 -21 2 -22 6 -5 3 11 14 39 24
62 21 47 23 53 10 53 -4 0 -16 -19 -25 -43z"/>
<path d="M130 1090 c0 -5 7 -10 15 -10 8 0 15 -4 15 -10 0 -5 7 -7 16 -3 15 6
15 8 -2 20 -21 15 -44 17 -44 3z"/>
<path d="M1333 1080 c-27 -11 -30 -48 -9 -112 14 -39 19 -88 31 -282 4 -71 9
-86 24 -70 11 11 31 123 42 234 23 226 23 212 3 227 -20 15 -58 16 -91 3z m82
-77 c-3 -85 -23 -285 -35 -332 -6 -29 -9 -14 -11 69 -5 163 -6 173 -19 205
-15 39 -19 113 -5 119 5 2 24 5 41 5 l31 1 -2 -67z"/>
<path d="M1480 1075 c-8 -9 -10 -34 -6 -72 15 -167 26 -245 40 -311 9 -40 16
-76 16 -78 0 -3 5 -4 11 -2 13 4 15 15 23 188 4 69 13 143 21 165 23 65 20
104 -11 115 -37 14 -80 12 -94 -5z m99 -52 c1 -29 -4 -48 -16 -60 -10 -10 -18
-28 -19 -40 0 -13 -2 -74 -3 -135 l-3 -113 -14 70 c-8 39 -12 79 -10 89 3 11
0 41 -6 68 -10 41 -9 51 2 58 12 7 11 13 -7 32 -15 16 -20 31 -16 51 5 26 9
27 47 25 42 -3 43 -3 45 -45z"/>
<path d="M1168 1073 c-10 -2 -21 -15 -24 -28 -8 -31 11 -118 32 -151 15 -22
16 -36 5 -123 -13 -104 -7 -181 14 -181 8 0 16 20 20 48 4 26 15 66 25 89 25
56 46 255 34 308 -9 38 -12 40 -49 42 -22 0 -48 -1 -57 -4z m88 -27 c10 -39 1
-61 -24 -60 -28 1 -23 -20 6 -24 14 -2 22 -11 22 -23 0 -10 -3 -19 -7 -19 -5
0 -9 -33 -11 -74 -1 -41 -10 -91 -19 -113 -9 -21 -17 -46 -18 -55 -1 -10 -5
-21 -10 -25 -4 -5 -4 17 0 47 4 30 10 95 14 144 5 74 4 89 -9 94 -23 9 -30 23
-30 69 0 45 16 62 57 63 16 0 25 -8 29 -24z"/>
<path d="M1645 1070 c-12 -19 -18 -140 -7 -140 6 0 12 3 14 8 2 4 19 15 38 24
l35 17 -39 0 c-38 1 -38 2 -32 32 3 17 6 35 6 40 0 12 77 12 84 0 10 -16 -6
-102 -22 -118 -18 -17 -18 -133 0 -226 6 -32 8 -60 5 -63 -11 -11 -47 137 -47
195 0 49 -4 62 -19 70 -18 10 -18 7 -14 -57 3 -37 14 -88 25 -113 11 -25 22
-68 26 -94 4 -27 12 -50 18 -52 20 -7 25 45 18 171 -6 106 -4 126 10 148 10
15 20 52 23 84 5 48 3 59 -12 70 -21 16 -101 19 -110 4z"/>
<path d="M1852 1051 c-10 -9 -13 -13 -8 -8 6 4 19 7 31 7 19 0 18 -2 -5 -20
-28 -22 -24 -25 14 -10 20 7 24 6 20 -5 -4 -9 -20 -13 -46 -12 -61 3 -66 -13
-39 -122 12 -50 27 -147 32 -214 15 -184 33 -181 73 13 13 69 28 170 31 225 6
92 5 102 -14 126 -26 33 -66 42 -89 20z m83 -58 c-4 -10 -9 -52 -11 -93 -6
-125 -23 -312 -29 -318 -8 -9 -21 84 -13 94 4 6 6 13 3 15 -2 3 -5 24 -6 47
-2 23 -7 42 -11 42 -4 0 -7 3 -6 8 1 4 -2 27 -7 52 -5 25 -8 50 -7 57 2 6 -2
14 -8 18 -5 3 -10 17 -10 31 0 19 5 24 24 24 13 0 34 9 47 20 30 24 43 25 34
3z"/>
<path d="M993 1041 l-22 -18 29 -22 c30 -22 60 -28 60 -12 0 5 -10 11 -22 13
-27 4 -35 23 -13 32 21 8 51 -8 70 -38 14 -20 14 -26 1 -51 -8 -16 -13 -32
-10 -37 3 -4 1 -8 -5 -8 -5 0 -10 -8 -10 -17 0 -10 -4 -38 -10 -63 -6 -25 -10
-81 -11 -125 0 -44 -4 -86 -9 -94 -12 -19 -40 144 -42 241 -1 43 -5 76 -9 73
-8 -5 -20 17 -20 36 0 16 18 10 23 -8 4 -15 5 -14 6 3 0 11 -6 29 -14 40 -12
15 -16 16 -23 6 -7 -11 -10 -9 -14 6 -10 35 -115 55 -150 28 -17 -12 -17 -15
0 -47 9 -19 25 -35 35 -37 27 -5 20 21 -12 43 l-29 21 73 1 74 1 6 -38 c5 -28
1 -48 -16 -79 -23 -44 -26 -85 -28 -340 -1 -46 -3 -82 -6 -79 -7 7 -27 173
-26 216 0 22 -3 31 -11 26 -8 -5 -9 -1 -5 11 9 22 -3 116 -13 110 -5 -3 -6 3
-3 14 3 10 -3 32 -12 47 -9 16 -14 21 -11 11 5 -15 -15 -60 -34 -77 -17 -15
-67 -378 -56 -407 3 -8 3 -33 -1 -56 -9 -58 -21 -23 -23 68 -2 51 -4 62 -9 40
l-7 -30 -5 33 c-3 19 -1 32 5 32 8 0 8 3 0 8 -6 4 -14 43 -17 87 -3 48 -2 70
3 55 6 -20 8 -21 8 -5 1 25 -16 67 -18 45 -1 -8 -8 5 -15 30 -8 25 -12 52 -9
62 2 9 0 19 -6 23 -6 4 -10 -5 -10 -20 0 -15 -9 -38 -20 -52 -11 -14 -18 -29
-15 -33 3 -4 -1 -26 -9 -48 -10 -27 -15 -89 -15 -193 -2 -199 -9 -228 -33
-134 -9 39 -18 89 -18 112 0 23 -4 45 -10 48 -5 3 -10 24 -10 47 0 33 3 39 16
34 14 -6 16 0 12 38 -5 41 14 96 41 116 11 8 41 114 41 143 0 15 -4 27 -10 27
-5 0 -10 -17 -10 -39 0 -47 -25 -120 -46 -136 -9 -6 -29 -49 -44 -96 l-29 -84
31 -140 c17 -77 31 -147 33 -155 3 -22 31 -24 40 -3 4 10 11 90 16 178 12 236
20 303 35 316 12 10 14 0 14 -57 1 -114 55 -384 81 -399 15 -10 26 35 32 140
3 55 15 152 26 215 10 63 22 136 26 163 7 56 25 53 25 -4 0 -21 11 -106 25
-187 13 -81 26 -158 27 -171 4 -35 26 -37 38 -5 6 16 13 105 16 199 5 164 19
285 34 285 4 0 10 -37 13 -83 3 -46 12 -112 21 -147 8 -36 18 -85 23 -110 5
-29 13 -45 23 -45 17 0 29 53 29 137 1 31 10 100 22 155 31 143 33 162 19 188
-13 24 -50 45 -78 45 -9 -1 -27 -9 -39 -19z"/>
<path d="M2066 1041 c-7 -10 17 -21 45 -21 10 0 19 -7 19 -15 0 -8 -5 -15 -11
-15 -5 0 -7 -4 -4 -10 4 -6 -1 -7 -11 -3 -14 5 -15 3 -5 -15 14 -26 14 -35 1
-27 -5 3 -10 -1 -10 -10 0 -10 5 -13 12 -9 7 5 8 3 3 -6 -4 -7 -2 -16 6 -21
11 -6 10 -11 -4 -27 -11 -12 -20 -41 -22 -73 -2 -30 -5 -54 -6 -54 -1 0 -2
-18 -4 -40 -3 -59 -26 -208 -36 -225 -4 -8 -7 66 -6 165 0 99 -3 204 -7 233
-7 48 -9 51 -22 35 -13 -17 -13 -17 -14 0 0 9 -5 17 -10 17 -6 0 -4 -15 5 -36
9 -22 15 -67 15 -113 0 -78 16 -288 26 -329 7 -35 28 -21 36 24 3 21 14 80 23
129 9 50 20 128 25 173 5 46 13 89 19 96 6 7 8 22 4 34 -3 12 0 43 7 69 11 44
10 49 -10 65 -24 19 -55 24 -64 9z"/>
<path d="M1992 1018 c-7 -7 -12 -16 -12 -22 0 -5 6 -3 13 6 9 13 17 14 37 6
35 -15 60 -19 60 -10 0 8 -57 32 -76 32 -6 0 -15 -5 -22 -12z"/>
<path d="M2165 1001 c-3 -6 0 -9 8 -5 18 7 101 -12 105 -25 2 -6 15 -6 35 0
41 12 50 11 42 -1 -4 -6 -3 -9 2 -8 4 1 18 -3 29 -10 20 -11 34 -7 34 9 0 26
-240 63 -255 40z"/>
<path d="M581 973 c-40 -21 -56 -25 -69 -17 -23 14 -42 7 -35 -13 5 -13 1 -15
-20 -9 -15 3 -37 8 -50 12 -16 4 -29 -2 -47 -23 -22 -24 -22 -25 -2 -9 19 17
25 18 47 6 14 -7 25 -20 25 -29 1 -14 2 -14 14 1 16 21 99 50 120 42 11 -4 15
-2 11 8 -6 15 41 30 150 48 l50 8 -70 1 c-59 1 -80 -4 -124 -26z"/>
<path d="M2016 974 c-3 -9 -6 -23 -5 -32 0 -13 3 -11 11 6 6 12 15 22 20 22 5
0 6 5 3 10 -9 15 -22 12 -29 -6z"/>
<path d="M659 957 c-10 -8 -18 -35 -22 -72 -7 -69 4 -60 29 23 17 59 17 66 -7
49z"/>
<path d="M2495 957 c14 -11 15 -16 5 -22 -8 -5 -18 -2 -25 8 -13 18 -35 23
-35 8 0 -5 10 -18 23 -28 13 -10 22 -23 20 -30 -3 -7 3 -9 17 -6 14 4 20 12
18 27 -3 18 2 21 32 21 45 0 78 -14 60 -25 -10 -6 -8 -10 6 -18 28 -14 83 -25
65 -13 -23 15 37 27 60 12 25 -15 44 -14 59 4 21 26 63 18 108 -21 l42 -35 -6
-77 c-3 -42 -9 -95 -15 -117 -7 -31 -5 -53 9 -99 30 -92 28 -199 -3 -292 -14
-42 -40 -97 -58 -121 -27 -38 -33 -42 -43 -29 -11 16 -10 28 14 146 11 55 4
183 -9 174 -4 -2 -6 8 -6 22 0 13 -7 32 -15 42 -8 9 -26 39 -39 66 -22 46 -32
53 -86 70 -33 10 -28 -10 5 -25 15 -7 40 -29 55 -50 23 -31 25 -42 17 -63 -5
-15 -15 -79 -21 -144 -7 -64 -16 -128 -21 -141 -8 -21 -11 -22 -22 -10 -22 22
-44 139 -37 194 4 30 1 64 -6 85 -6 19 -12 33 -13 30 0 -3 -3 -73 -6 -156 -5
-129 -3 -152 10 -163 13 -11 19 -11 31 -1 11 9 15 10 15 1 0 -7 10 -11 22 -9
26 3 25 3 54 201 10 64 21 117 26 117 4 0 8 -8 8 -17 0 -10 8 -44 18 -76 18
-56 18 -62 1 -150 -33 -164 -34 -176 -15 -183 24 -9 50 18 100 106 69 118 81
245 39 386 -11 38 -12 57 -4 71 5 11 11 64 13 117 l2 96 -39 40 -39 40 -96 -3
c-52 -2 -105 -9 -117 -15 -25 -14 -54 -6 -47 12 8 20 -37 44 -72 39 -18 -3
-35 0 -38 6 -4 6 -15 11 -24 11 -14 0 -13 -2 3 -13z"/>
<path d="M2320 930 c0 -5 -7 -10 -15 -10 -8 0 -15 -8 -16 -17 0 -10 -2 -26 -4
-36 -2 -12 2 -17 13 -15 13 2 18 -6 20 -38 2 -24 -2 -47 -10 -55 -7 -8 -13
-30 -14 -49 0 -19 -5 -78 -10 -130 -8 -90 -9 -92 -15 -45 -5 44 -6 39 -8 -35
-1 -47 -6 -105 -10 -130 -5 -35 -8 -15 -14 96 -4 77 -5 149 -2 160 7 19 6 19
-9 0 -9 -11 -17 -18 -19 -15 -2 2 -9 38 -15 79 -6 41 -14 87 -18 103 -5 22 -3
27 12 28 18 0 18 1 -1 9 -33 14 -48 12 -41 -7 20 -52 57 -265 65 -376 9 -134
21 -168 46 -134 19 27 79 404 79 497 -1 53 -7 130 -11 130 -1 0 -3 -4 -3 -10z"/>
<path d="M80 872 c-38 -37 -40 -41 -40 -101 0 -34 5 -93 11 -132 9 -58 8 -81
-6 -137 -13 -50 -16 -91 -12 -160 6 -101 20 -139 93 -255 28 -45 41 -57 58
-55 26 4 27 32 0 176 -17 96 -18 106 -2 165 18 70 15 84 -11 58 -23 -23 -33
-115 -22 -196 5 -33 5 -61 1 -63 -4 -2 1 -26 11 -55 21 -58 23 -67 11 -67 -11
0 -101 171 -110 207 -9 37 -7 228 3 273 4 19 12 41 17 47 7 9 5 23 -5 45 -9
21 -15 67 -16 123 l-2 89 38 33 c38 33 71 45 57 21 -6 -9 -3 -9 9 1 14 11 21
10 48 -7 26 -16 37 -18 56 -9 19 8 30 7 53 -6 28 -17 51 -8 27 10 -26 20 -75
31 -149 32 -76 1 -77 1 -118 -37z"/>
<path d="M2815 859 c-5 -7 2 -19 16 -30 31 -24 58 -26 32 -2 -10 9 -23 23 -30
30 -8 11 -13 11 -18 2z"/>
<path d="M447 846 c-4 -10 -5 -22 -2 -26 9 -15 -33 -184 -49 -196 -9 -6 -16
-17 -16 -24 0 -9 7 -6 20 8 19 20 50 116 50 154 0 23 24 14 37 -14 6 -15 9 -6
9 36 1 31 0 56 -2 56 -2 0 -8 -15 -13 -32 -8 -30 -9 -31 -11 -8 -1 14 -5 34
-9 44 -7 18 -8 18 -14 2z"/>
<path d="M2396 820 c4 -25 10 -52 14 -60 13 -25 50 -54 57 -46 4 4 -3 16 -17
26 -14 11 -32 41 -42 72 l-17 53 5 -45z"/>
<path d="M2486 827 c4 -12 11 -23 15 -25 5 -2 9 -11 9 -20 0 -15 2 -15 10 -2
11 17 13 12 30 -60 6 -25 12 -49 13 -55 2 -5 8 -19 14 -30 11 -19 12 -19 18
-2 4 9 2 23 -4 31 -16 19 -51 125 -51 155 0 22 -5 26 -31 28 -27 2 -29 0 -23
-20z"/>
<path d="M369 828 c-1 -2 -2 -39 -4 -83 -1 -52 0 -70 5 -50 13 47 18 135 9
135 -5 0 -10 -1 -10 -2z"/>
<path d="M2355 765 c17 -45 26 -120 33 -298 7 -154 12 -191 25 -204 11 -11 20
-14 26 -8 10 12 59 223 63 275 l3 35 15 -25 c10 -17 15 -54 15 -122 0 -53 3
-100 7 -103 24 -24 70 49 82 130 5 31 1 25 -19 -30 -14 -38 -27 -76 -30 -84
-4 -9 -9 -11 -15 -5 -5 5 -5 30 1 59 13 67 3 115 -32 167 -16 24 -36 67 -45
96 -8 28 -17 52 -20 52 -2 0 -3 -30 -3 -67 1 -38 3 -60 6 -50 7 25 23 10 23
-21 0 -19 -3 -23 -9 -14 -5 9 -11 -25 -15 -87 -4 -56 -12 -99 -16 -96 -5 3
-12 -11 -16 -32 -14 -74 -25 6 -22 159 2 81 0 149 -4 151 -4 1 -12 23 -16 48
-5 25 -17 57 -27 70 -14 19 -16 20 -10 4z"/>
<path d="M351 637 c-5 -13 -24 -30 -43 -38 -34 -14 -58 -32 -58 -45 0 -4 -9
-18 -21 -30 -12 -12 -21 -33 -21 -46 0 -44 53 -323 64 -335 7 -9 16 -10 28 -3
9 5 20 7 23 3 4 -3 13 0 21 6 12 10 15 41 15 154 0 78 4 166 10 196 13 63 9
76 -9 29 -17 -45 -16 -39 -24 -168 -10 -165 -33 -245 -55 -188 -9 23 -13 55
-26 213 -5 52 -13 84 -22 92 -13 10 -4 23 54 81 62 62 92 102 77 102 -2 0 -9
-11 -13 -23z"/>
<path d="M425 485 c-14 -35 -16 -60 -11 -115 4 -38 5 -70 3 -70 -3 0 -14 15
-26 33 -24 37 -28 20 -6 -23 33 -64 51 -29 57 113 3 59 4 107 2 107 -1 0 -10
-20 -19 -45z"/>
</g>
</svg>
