<?xml version="1.0" standalone="no"?>
<!DOCTYPE svg PUBLIC "-//W3C//DTD SVG 20010904//EN"
 "http://www.w3.org/TR/2001/REC-SVG-20010904/DTD/svg10.dtd">
<svg version="1.0" xmlns="http://www.w3.org/2000/svg"
 width="300.000000pt" height="130.000000pt" viewBox="0 0 300.000000 130.000000"
 preserveAspectRatio="xMidYMid meet">
<metadata>
Created by potrace 1.10, written by Peter Selinger 2001-2011
</metadata>
<g transform="translate(0.000000,130.000000) scale(0.100000,-0.100000)"
fill="#000000" stroke="none">
<path d="M1040 1273 c0 -5 -5 -35 -11 -68 -5 -33 -14 -118 -20 -190 -5 -71
-12 -152 -15 -178 -6 -44 -3 -52 22 -78 35 -37 56 -37 88 2 30 35 31 44 12
159 -8 47 -20 147 -27 223 -11 122 -14 137 -30 137 -11 0 -19 -3 -19 -7z m33
-173 c2 -58 2 -95 0 -84 -3 17 -9 20 -25 16 -18 -4 -20 -2 -15 19 3 13 9 51
13 84 6 57 12 80 19 73 2 -2 5 -50 8 -108z m17 -169 c4 -8 5 -31 2 -53 -3 -26
-1 -43 8 -48 22 -14 2 -47 -33 -53 -46 -7 -63 12 -48 54 6 17 11 49 11 69 0
20 2 39 5 42 9 9 47 2 55 -11z"/>
<path d="M1169 1243 c-8 -26 -13 -110 -13 -263 l-1 -225 53 -3 c36 -2 54 1 57
10 3 7 -2 49 -10 93 -32 171 -55 337 -53 376 4 54 -16 62 -33 12z m21 -124 c0
-37 -4 -58 -10 -54 -5 3 -10 31 -10 61 0 30 5 54 10 54 6 0 10 -27 10 -61z m7
-176 c-4 -3 -1 -13 6 -21 17 -22 47 -135 38 -145 -5 -5 -17 -4 -27 1 -11 6
-27 13 -37 16 -13 4 -16 12 -12 25 3 10 6 41 7 67 0 54 4 64 20 64 6 0 8 -3 5
-7z"/>
<path d="M1335 1193 c-9 -122 -22 -216 -42 -295 -31 -126 -2 -166 115 -152 72
9 79 24 53 117 -20 73 -32 145 -51 297 -14 113 -17 120 -45 120 -22 0 -24 -4
-30 -87z m54 -49 c5 -32 12 -71 16 -86 7 -29 -8 -40 -19 -13 -3 8 -12 12 -21
9 -8 -3 -12 -10 -9 -15 3 -5 1 -9 -5 -9 -10 0 -7 89 5 170 7 45 20 24 33 -56z
m23 -176 c4 -7 8 -32 8 -55 0 -25 9 -57 21 -78 12 -21 18 -40 13 -44 -5 -5
-37 -11 -72 -15 -59 -5 -63 -4 -71 17 -5 12 -4 33 1 47 6 14 11 46 13 72 1 26
8 55 15 63 14 17 59 13 72 -7z"/>
<path d="M1576 1271 c-3 -5 -15 -80 -26 -167 -11 -88 -29 -189 -40 -226 -34
-114 -26 -130 73 -132 104 -2 121 31 88 166 -21 86 -41 244 -41 323 0 41 -2
45 -24 45 -14 0 -27 -4 -30 -9z m34 -93 c0 -29 4 -69 9 -89 10 -43 -2 -76 -14
-39 l-7 23 -20 -24 -20 -24 5 25 c3 14 11 60 18 103 14 89 29 101 29 25z m21
-215 c5 -14 8 -30 7 -37 -2 -6 4 -37 11 -69 13 -52 13 -60 -1 -74 -12 -11 -24
-13 -45 -8 -15 4 -40 7 -56 6 -37 -3 -43 18 -18 65 12 21 21 54 21 72 0 47 15
70 45 70 19 0 29 -8 36 -25z"/>
<path d="M1757 1168 c-3 -62 -15 -157 -27 -212 -11 -54 -22 -121 -23 -150 l-2
-51 34 -3 c19 -2 44 -1 57 2 l23 6 -6 223 c-5 213 -15 286 -39 294 -8 3 -13
-33 -17 -109z m41 -44 c-4 -52 -12 -73 -23 -62 -3 2 -2 32 1 66 8 76 28 72 22
-4z m-8 -216 c0 -24 3 -59 6 -78 5 -33 4 -36 -30 -46 -20 -6 -39 -8 -41 -3
-12 19 39 169 57 169 5 0 8 -19 8 -42z"/>
<path d="M1886 1223 c-21 -194 -38 -333 -46 -367 -10 -46 -6 -62 28 -98 33
-36 54 -35 86 3 27 32 33 70 16 113 -5 14 -11 75 -14 135 -7 166 -25 271 -47
271 -13 0 -18 -12 -23 -57z m39 -120 c7 -69 6 -72 -14 -70 -19 1 -21 7 -21 73
0 40 3 80 7 90 6 16 7 16 13 -2 4 -10 11 -51 15 -91z m9 -177 c3 -11 5 -28 4
-36 0 -8 3 -36 7 -61 8 -52 -3 -63 -52 -50 -24 7 -28 12 -25 37 2 16 4 47 6
69 4 62 4 63 31 63 18 0 27 -7 29 -22z"/>
<path d="M869 1268 c-1 -2 -3 -70 -4 -153 -2 -100 -8 -169 -19 -208 -23 -81
-21 -119 7 -145 31 -29 62 -28 93 4 22 21 25 31 20 67 -3 23 -12 92 -20 152
-9 61 -18 137 -22 170 -7 73 -22 115 -40 115 -8 0 -15 -1 -15 -2z m40 -217 c7
-35 10 -66 7 -69 -3 -3 -6 0 -6 6 0 7 -7 12 -15 12 -12 0 -15 14 -15 67 0 79
11 73 29 -16z m19 -161 c2 -14 8 -37 14 -53 14 -36 -4 -57 -48 -57 l-34 0 1
53 c1 75 6 86 37 84 21 -2 28 -8 30 -27z"/>
<path d="M2061 1248 c-11 -30 -41 -251 -41 -306 0 -24 -7 -57 -16 -74 -43 -82
59 -173 115 -102 25 32 26 52 5 124 -11 37 -18 105 -20 210 -1 85 -3 158 -3
163 -2 17 -32 5 -40 -15z m29 -171 c0 -44 -5 -59 -26 -83 l-26 -29 7 30 c3 17
11 54 17 83 6 28 15 52 20 52 4 0 8 -24 8 -53z m5 -169 c4 -3 7 -33 8 -65 l2
-58 -40 0 -40 0 3 45 c4 77 10 91 37 87 13 -1 27 -6 30 -9z"/>
<path d="M707 1103 c-3 -91 -11 -165 -21 -193 -28 -85 -29 -113 -6 -143 29
-36 60 -34 100 6 28 28 31 37 26 72 -3 22 -13 99 -21 170 -19 158 -36 229 -57
233 -13 2 -16 -20 -21 -145z m47 13 c5 -36 3 -63 -5 -77 -6 -13 -16 -34 -20
-48 -7 -20 -8 -17 -4 14 3 22 5 68 5 103 0 76 15 81 24 8z m18 -206 c0 -3 2
-16 3 -30 1 -14 5 -35 9 -48 6 -16 3 -24 -11 -29 -10 -3 -26 -13 -35 -21 -10
-8 -25 -12 -34 -8 -13 5 -15 14 -9 44 4 20 8 46 9 58 2 11 5 25 9 30 5 9 56
13 59 4z"/>
<path d="M2222 1233 c-10 -17 -29 -131 -51 -303 -5 -41 -13 -85 -17 -98 -5
-18 1 -30 30 -57 43 -40 67 -44 96 -15 24 24 26 67 4 135 -10 31 -19 107 -23
199 -6 148 -16 183 -39 139z m20 -161 c3 -79 2 -81 -14 -60 -18 23 -23 91 -12
136 12 42 22 9 26 -76z m15 -165 c2 -2 6 -22 8 -43 3 -22 8 -46 10 -55 3 -9
-1 -22 -10 -29 -13 -10 -19 -10 -33 2 -9 8 -25 18 -35 21 -14 5 -16 14 -11 49
9 66 11 69 40 64 15 -3 28 -7 31 -9z"/>
<path d="M534 1160 c7 -44 -1 -93 -14 -85 -5 3 -11 28 -15 55 -4 27 -11 53
-17 56 -23 14 -26 -15 -12 -96 16 -94 12 -148 -17 -198 -26 -46 -25 -106 3
-132 13 -12 29 -18 38 -14 18 8 35 8 70 -1 18 -5 34 0 53 15 29 23 34 52 15
97 -7 17 -12 87 -12 175 -1 93 -5 147 -11 145 -5 -1 -11 -40 -12 -87 -5 -162
-2 -153 -51 -163 -52 -10 -59 -5 -44 28 7 15 10 45 7 68 l-6 42 23 -37 c13
-21 25 -38 28 -38 3 0 12 23 22 50 9 28 13 50 8 50 -4 0 -11 17 -15 37 -8 46
-22 73 -37 73 -7 0 -8 -14 -4 -40z m41 -99 c-3 -10 -12 -18 -21 -18 -12 0 -14
7 -10 30 3 16 6 39 7 51 0 17 4 14 15 -12 8 -19 12 -42 9 -51z m-25 -171 c0
-6 12 -9 28 -8 23 3 27 -1 30 -27 2 -16 9 -36 15 -44 9 -10 7 -16 -7 -27 -16
-11 -24 -11 -50 0 -27 11 -35 11 -54 -2 -28 -19 -57 0 -47 32 3 12 8 29 10 40
2 10 9 24 16 32 13 16 59 19 59 4z"/>
<path d="M2393 1140 c-20 -57 -20 -62 -4 -105 9 -25 19 -45 22 -45 4 0 12 14
19 30 20 49 30 45 27 -12 -1 -29 2 -61 7 -71 8 -17 5 -18 -40 -12 -27 4 -51 9
-54 12 -2 2 -4 58 -3 124 0 65 -3 122 -7 124 -4 3 -13 -2 -20 -11 -10 -12 -11
-43 -4 -144 7 -100 6 -136 -4 -161 -19 -47 -12 -89 20 -112 23 -17 32 -19 53
-9 17 8 33 8 50 2 22 -8 30 -6 51 15 31 31 31 76 2 124 -25 40 -30 124 -14
239 7 54 7 62 -8 62 -15 0 -19 -10 -31 -83 -10 -62 -28 -33 -22 34 7 79 -12
78 -40 -1z m27 -32 c0 -13 3 -33 6 -45 5 -17 2 -23 -9 -23 -23 0 -30 17 -23
56 8 38 26 46 26 12z m47 -216 c6 -4 18 -26 26 -50 13 -37 13 -44 0 -57 -18
-19 -27 -19 -43 0 -11 13 -15 13 -41 -1 -39 -19 -74 -3 -64 29 3 12 7 33 8 47
2 20 7 25 29 25 14 0 30 3 34 8 9 9 36 9 51 -1z"/>
<path d="M280 1161 c0 -11 8 -27 18 -37 15 -16 17 -16 20 -1 4 19 -15 57 -28
57 -6 0 -10 -9 -10 -19z"/>
<path d="M2651 1144 c-6 -21 -9 -39 -8 -40 7 -8 36 26 39 45 5 40 -20 35 -31
-5z"/>
<path d="M336 1118 c3 -29 12 -73 20 -98 19 -63 22 -122 6 -127 -8 -3 -16 4
-19 16 -7 27 -21 27 -50 -1 l-23 -21 0 27 c0 15 7 41 16 57 11 22 13 43 9 72
-10 66 -26 108 -38 104 -8 -2 -12 -42 -12 -125 0 -83 -4 -125 -12 -133 -16
-16 -16 -65 1 -104 11 -26 18 -30 52 -31 21 -1 52 -5 67 -9 41 -11 67 17 67
71 0 24 -4 45 -9 48 -4 3 -10 52 -13 108 -6 104 -21 162 -51 186 -15 13 -16 9
-11 -40z m11 -244 c24 -5 33 -14 41 -42 16 -52 2 -63 -61 -51 -76 14 -114 74
-57 90 34 10 43 10 77 3z"/>
<path d="M2613 1147 c-30 -32 -43 -89 -43 -189 0 -48 -4 -90 -10 -93 -5 -3
-10 -29 -10 -56 0 -43 3 -51 25 -61 20 -9 34 -9 60 1 18 6 45 9 58 5 19 -4 28
-1 36 13 16 30 16 105 0 133 -10 18 -13 56 -12 138 2 69 -1 112 -8 112 -5 0
-12 -8 -15 -17 -3 -10 -9 -25 -14 -33 -13 -27 -10 -103 6 -147 21 -55 15 -74
-14 -45 -27 27 -38 28 -45 2 -7 -27 -37 -26 -37 2 0 12 6 49 14 82 25 109 36
169 33 172 -2 2 -13 -6 -24 -19z m76 -273 c34 -7 41 -34 18 -66 -15 -19 -117
-41 -131 -28 -17 17 12 88 37 93 37 7 43 7 76 1z"/>
<path d="M63 1142 c-17 -13 -20 -24 -16 -47 5 -26 7 -27 14 -10 9 24 4 -124
-6 -178 -4 -20 -11 -40 -16 -43 -16 -9 -10 -81 9 -104 16 -19 20 -20 45 -9 21
10 30 10 39 1 23 -23 49 -13 64 25 15 34 14 39 -5 82 -23 48 -51 167 -51 214
0 34 -26 87 -43 87 -6 0 -22 -8 -34 -18z m44 -49 c11 -26 34 -142 37 -188 1
-16 -5 -20 -29 -20 l-30 0 0 117 c0 65 2 118 5 118 3 0 11 -12 17 -27z m-9
-245 c9 -9 17 -9 36 1 35 19 48 6 40 -37 -8 -47 -9 -48 -38 -32 -14 7 -33 10
-43 6 -20 -8 -29 -5 -25 7 1 4 -2 17 -8 28 -18 33 11 54 38 27z"/>
<path d="M2846 1138 c-7 -13 -19 -61 -26 -108 -6 -47 -23 -114 -37 -149 -20
-49 -23 -70 -17 -94 12 -41 37 -56 65 -38 18 10 26 10 45 0 19 -10 26 -9 38 0
26 21 31 79 11 120 -12 25 -18 66 -20 141 -2 64 0 95 5 80 7 -23 8 -23 9 9 2
55 -46 80 -73 39z m30 -94 c-4 -50 -3 -87 6 -110 14 -39 11 -44 -31 -49 -36
-5 -36 -7 -17 100 26 145 53 183 42 59z m-46 -195 c0 -6 8 -9 18 -6 70 22 65
24 57 -24 -9 -53 -10 -55 -30 -39 -13 11 -20 11 -40 0 -14 -7 -28 -10 -32 -6
-9 8 -13 67 -6 79 7 11 33 8 33 -4z"/>
<path d="M150 670 c-8 -5 -33 -6 -55 -3 -70 9 -71 5 -49 -201 4 -42 1 -74 -11
-112 -14 -43 -15 -58 -5 -69 19 -23 39 -18 75 18 25 25 35 47 44 92 6 33 23
88 36 123 25 62 31 108 17 127 -17 23 -38 34 -52 25z m36 -42 c4 -4 2 -13 -4
-20 -6 -7 -12 -29 -14 -48 -3 -35 -3 -35 -51 -34 -51 0 -75 18 -56 41 6 7 8
25 4 41 l-6 29 60 -1 c32 0 63 -4 67 -8z m-39 -142 c9 -7 -43 -134 -62 -154
-32 -31 -44 -21 -25 21 8 18 13 58 13 90 l-2 58 37 -7 c20 -4 38 -7 39 -8z"/>
<path d="M375 670 c-11 -5 -39 -6 -62 -3 -33 4 -45 1 -63 -17 -19 -19 -21 -29
-16 -69 17 -115 17 -153 2 -254 -9 -60 -14 -113 -10 -118 11 -19 24 -7 34 34
20 80 62 177 76 177 8 0 14 -6 15 -12 3 -33 -3 -87 -13 -130 -14 -56 -4 -72
22 -38 29 37 48 104 61 205 21 175 22 201 4 218 -18 19 -22 19 -50 7z m37 -75
c10 -71 1 -81 -70 -79 -32 0 -63 4 -69 7 -6 4 -10 30 -9 59 l1 53 42 -3 c23
-2 50 1 60 7 29 16 38 8 45 -44z m-92 -115 c0 -14 37 -13 42 2 8 22 28 -4 27
-35 0 -34 -17 -85 -18 -56 -1 8 -8 24 -16 35 -15 18 -16 18 -45 -16 l-30 -34
0 57 c0 50 2 57 20 57 11 0 20 -4 20 -10z"/>
<path d="M483 665 c-19 -14 -23 -25 -23 -73 1 -31 7 -68 15 -82 20 -34 18 -74
-6 -175 -21 -89 -22 -166 -3 -172 13 -4 40 55 54 120 11 53 43 121 61 133 7 4
20 -2 31 -16 10 -12 18 -18 18 -12 0 13 -28 42 -40 42 -21 0 -53 -40 -75 -95
-26 -64 -34 -57 -10 10 8 22 14 61 15 86 0 55 5 61 36 47 18 -9 30 -8 49 2 39
21 49 4 35 -61 -6 -30 -15 -81 -19 -114 -4 -34 -13 -70 -19 -82 -7 -12 -12
-29 -12 -38 0 -14 2 -14 24 0 40 26 58 88 67 225 5 69 11 151 15 182 8 73 -4
92 -55 83 -51 -8 -72 -9 -106 -1 -21 5 -37 2 -52 -9z m88 -32 c15 -3 30 0 33
6 4 6 17 11 30 11 17 0 24 -9 33 -42 15 -57 -1 -94 -38 -90 -14 2 -36 -1 -50
-6 -14 -5 -38 -5 -57 0 -30 8 -33 12 -31 46 2 21 -1 44 -5 50 -12 20 14 44 38
37 12 -4 33 -9 47 -12z"/>
<path d="M763 668 c-12 -6 -29 -26 -38 -44 -15 -32 -14 -39 12 -131 23 -82 28
-119 29 -226 0 -70 4 -130 7 -133 3 -4 15 8 26 26 21 35 23 47 47 260 9 74 18
151 21 171 4 31 0 39 -27 62 -34 29 -44 31 -77 15z m75 -40 c7 -7 8 -17 1 -29
-5 -11 -9 -34 -7 -52 3 -44 -7 -57 -42 -57 -36 0 -37 2 -41 75 l-4 60 35 6
c19 4 37 7 41 8 3 0 10 -4 17 -11z m-17 -235 c-6 -21 -11 -56 -11 -78 0 -22
-4 -51 -8 -65 -5 -19 -8 -7 -13 45 -3 39 -2 79 2 90 4 11 11 33 14 50 6 25 8
27 16 12 7 -11 6 -30 0 -54z"/>
<path d="M913 656 c-25 -22 -28 -30 -26 -84 1 -33 9 -79 18 -103 20 -59 38
-202 32 -255 -6 -58 7 -77 33 -44 22 28 27 58 35 218 3 63 10 125 16 139 17
46 11 108 -14 131 -30 29 -59 28 -94 -2z m91 -24 c5 -9 -8 -129 -16 -137 -12
-13 -57 -14 -64 -3 -12 18 -12 121 -1 136 10 13 73 17 81 4z m-21 -269 c-2
-43 -6 -89 -10 -103 -5 -23 -6 -24 -13 -5 -19 45 -2 203 20 190 3 -2 5 -39 3
-82z"/>
<path d="M1083 654 c-39 -30 -42 -57 -17 -179 11 -52 18 -142 19 -255 2 -111
7 -176 13 -178 32 -10 67 121 82 314 5 71 12 158 16 194 4 55 2 70 -15 98 -25
39 -54 41 -98 6z m87 -35 c8 -13 7 -25 0 -39 -6 -11 -10 -37 -9 -58 3 -45 -15
-82 -41 -82 -23 0 -34 31 -31 87 1 23 -3 44 -9 48 -5 3 -10 12 -10 20 0 41 81
60 100 24z m-19 -351 c-6 -55 -15 -107 -21 -117 -5 -9 -10 -14 -10 -11 0 3 -2
39 -4 80 -2 41 -6 94 -11 116 -5 27 -3 44 4 48 7 4 11 -1 11 -13 0 -11 5 -23
10 -26 6 -3 10 4 10 18 0 29 14 45 18 22 2 -9 -1 -61 -7 -117z"/>
<path d="M1258 673 c-49 -5 -54 -26 -33 -123 28 -128 36 -224 26 -312 -6 -48
-6 -87 -1 -92 15 -15 37 11 49 59 14 56 43 373 39 428 -3 46 -7 48 -80 40z
m54 -59 c-2 -16 -3 -50 -3 -76 1 -53 -13 -69 -38 -42 -14 16 -47 124 -39 128
17 9 65 23 73 21 6 -1 9 -15 7 -31z m-13 -275 c-13 -113 -34 -150 -26 -44 5
68 24 151 32 143 3 -2 0 -47 -6 -99z"/>
<path d="M1363 664 c-3 -8 -3 -41 1 -72 14 -118 23 -314 16 -359 -9 -58 -4
-70 20 -48 30 27 49 148 67 423 l5 72 -52 0 c-37 0 -52 -4 -57 -16z m83 -53
c-3 -20 -6 -51 -6 -68 0 -23 -5 -33 -15 -33 -8 0 -15 -5 -15 -12 0 -7 -3 -8
-9 -2 -5 5 -11 41 -14 79 l-5 70 35 1 c35 1 35 0 29 -35z m-20 -295 c-9 -57
-26 -70 -26 -19 0 53 10 87 23 74 5 -5 7 -29 3 -55z"/>
<path d="M1499 668 c-3 -27 3 -133 7 -140 3 -4 9 -66 14 -137 6 -93 14 -142
28 -175 32 -72 42 -58 35 52 -3 61 1 151 11 245 9 81 14 152 11 157 -9 15
-105 13 -106 -2z m85 -34 c0 -5 -4 -36 -8 -69 -7 -49 -12 -61 -27 -62 -16 -2
-19 5 -19 37 0 21 -5 51 -10 65 -6 15 -8 30 -6 33 6 10 71 6 70 -4z m-24 -311
c0 -41 -3 -54 -10 -43 -13 20 -13 100 0 100 6 0 10 -26 10 -57z"/>
<path d="M1630 624 c0 -90 19 -322 32 -387 12 -64 40 -109 57 -92 7 7 7 24 0
55 -15 60 -5 223 20 339 21 99 17 131 -17 131 -9 0 -34 3 -54 6 l-38 7 0 -59z
m55 16 c3 -5 17 -10 31 -10 29 0 29 1 7 -69 -34 -110 -63 -105 -68 13 -2 59 0
76 10 76 8 0 17 -4 20 -10z m-9 -235 c10 -43 15 -186 5 -155 -9 29 -24 197
-17 189 3 -2 8 -18 12 -34z"/>
<path d="M1791 654 c-24 -31 -24 -29 -11 -222 11 -163 24 -254 46 -324 15 -46
39 -77 51 -65 3 4 5 66 4 139 -1 129 6 213 29 348 14 81 8 106 -33 130 -43 27
-62 25 -86 -6z m95 -35 c9 -7 12 -19 8 -28 -4 -9 -10 -43 -13 -75 -7 -74 -31
-95 -62 -57 -12 15 -18 33 -15 46 3 12 1 38 -5 58 -16 58 -5 79 37 74 19 -3
41 -11 50 -18z m-58 -239 c-1 -19 3 -30 12 -30 6 0 9 3 9 8 -3 17 2 32 10 32
5 0 7 -15 4 -32 -2 -18 -6 -77 -10 -132 -8 -142 -19 -112 -48 132 -5 47 -4 52
9 40 8 -7 14 -15 14 -18z"/>
<path d="M1962 660 c-29 -28 -37 -65 -22 -109 6 -20 17 -106 24 -192 9 -116
17 -164 30 -183 9 -15 21 -24 25 -22 4 3 11 58 14 123 4 76 13 141 26 183 30
94 28 157 -6 192 -32 33 -61 36 -91 8z m86 -32 c6 -8 7 -39 3 -78 -6 -63 -7
-65 -34 -65 -15 -1 -32 4 -36 10 -11 14 -23 129 -15 138 12 12 71 8 82 -5z
m-36 -239 c12 -8 1 -149 -12 -149 -9 0 -20 191 -11 205 3 6 8 -3 9 -20 2 -16
8 -33 14 -36z"/>
<path d="M2145 668 c-51 -29 -50 -24 -21 -283 20 -177 29 -216 56 -240 11 -10
20 -16 20 -14 0 2 2 69 4 149 2 115 7 158 24 210 30 91 29 125 -7 161 -32 31
-45 35 -76 17z m77 -52 c4 -5 4 -14 1 -19 -3 -4 -5 -25 -5 -45 0 -44 -12 -62
-43 -62 -29 0 -47 22 -44 52 2 13 -1 33 -5 46 -12 35 8 52 52 45 20 -3 40 -11
44 -17z m-62 -191 c0 -13 5 -27 10 -30 6 -3 10 -43 10 -88 -1 -103 -14 -85
-29 38 -13 111 -14 118 -1 110 6 -3 10 -17 10 -30z"/>
<path d="M2281 666 c-9 -11 -11 -34 -7 -78 3 -35 9 -121 14 -193 8 -133 19
-172 60 -208 27 -24 35 -7 18 34 -21 52 -30 153 -16 181 10 19 10 21 -1 11 -7
-7 -16 -32 -19 -55 -5 -32 -7 -21 -7 45 0 75 3 87 17 87 9 0 20 -3 24 -7 4 -5
24 -8 44 -8 l37 0 7 -60 c3 -33 11 -76 17 -95 19 -60 12 -58 -14 4 -13 33 -34
69 -45 80 -19 19 -19 16 4 -29 14 -27 30 -74 36 -102 12 -64 37 -116 53 -110
16 5 11 113 -8 188 -18 67 -19 141 -4 156 6 6 13 37 16 69 6 75 -9 99 -61 96
-58 -4 -79 -3 -117 3 -25 5 -39 2 -48 -9z m114 -28 c17 0 41 2 55 4 24 3 25 1
27 -54 1 -37 -3 -61 -12 -68 -15 -12 -150 -8 -163 4 -9 10 -9 86 1 110 6 14
13 17 35 11 15 -4 41 -7 57 -7z"/>
<path d="M2546 667 c-13 -10 -17 -27 -17 -70 0 -31 3 -62 7 -69 4 -6 11 -50
14 -98 8 -86 37 -177 66 -201 24 -20 26 -3 9 68 -9 38 -15 80 -13 93 9 65 53
7 86 -116 21 -75 42 -96 42 -42 0 19 -7 85 -16 148 -12 84 -13 120 -5 137 18
39 14 117 -7 136 -20 19 -49 22 -71 8 -8 -5 -24 -3 -40 5 -32 17 -33 17 -55 1z
m109 -32 c44 0 50 -2 47 -20 -5 -33 -5 -39 2 -55 11 -28 -10 -41 -76 -45 -77
-5 -83 1 -72 74 8 58 12 64 33 55 9 -5 39 -8 66 -9z m-10 -155 c33 18 39 10
40 -54 l1 -54 -24 34 c-28 41 -50 44 -58 7 -3 -16 -7 -32 -9 -38 -1 -5 -6 11
-10 37 -9 60 -1 86 20 68 13 -11 20 -10 40 0z"/>
<path d="M2774 655 c-28 -28 -27 -55 6 -130 9 -23 25 -75 34 -116 19 -85 61
-143 100 -137 28 4 31 31 11 97 -14 48 -15 65 -5 111 33 152 21 198 -48 186
-19 -3 -43 -1 -53 5 -15 8 -25 4 -45 -16z m132 -75 c1 -27 2 -50 1 -51 -1 0
-21 -2 -45 -5 -52 -7 -74 8 -66 43 4 16 2 28 -6 33 -7 5 -10 15 -6 25 5 13 14
16 39 11 17 -3 39 -1 47 4 23 14 33 -3 36 -60z m-12 -89 c3 -5 1 -22 -5 -39
-8 -25 -6 -39 12 -81 12 -29 19 -54 16 -57 -14 -14 -56 34 -68 76 -6 25 -16
49 -20 55 -19 20 -9 44 19 48 15 2 30 5 34 6 4 0 9 -3 12 -8z"/>
</g>
</svg>
