<?xml version="1.0" standalone="no"?>
<!DOCTYPE svg PUBLIC "-//W3C//DTD SVG 20010904//EN"
 "http://www.w3.org/TR/2001/REC-SVG-20010904/DTD/svg10.dtd">
<svg version="1.0" xmlns="http://www.w3.org/2000/svg"
 width="300.000000pt" height="135.000000pt" viewBox="0 0 300.000000 135.000000"
 preserveAspectRatio="xMidYMid meet">
<metadata>
Created by potrace 1.10, written by Peter Selinger 2001-2011
</metadata>
<g transform="translate(0.000000,135.000000) scale(0.100000,-0.100000)"
fill="#000000" stroke="none">
<path d="M1027 1337 c-3 -7 -3 -25 0 -39 3 -14 -2 -80 -11 -147 -9 -68 -16
-155 -16 -193 0 -39 -5 -88 -12 -109 l-11 -39 -17 37 c-9 21 -18 65 -19 98 -4
115 -35 287 -54 299 -32 21 -39 -6 -41 -170 -2 -98 -8 -177 -16 -206 -25 -84
-29 -72 -55 140 -21 170 -34 217 -60 217 -19 0 -20 -10 -26 -135 -7 -146 -14
-196 -37 -250 l-14 -34 -15 34 c-8 20 -12 49 -8 70 11 74 9 228 -4 244 -17 21
-31 11 -32 -22 0 -24 -2 -23 -15 12 -32 88 -54 87 -54 -5 0 -44 -4 -68 -10
-64 -5 3 -10 21 -10 38 0 42 -13 62 -35 53 -15 -5 -16 -14 -9 -64 5 -31 9 -91
9 -132 0 -63 -5 -82 -27 -119 -24 -39 -27 -41 -33 -22 -4 12 -10 68 -14 125
-8 114 -33 181 -67 181 -10 0 -25 7 -31 15 -12 13 -15 13 -27 -2 -7 -10 -18
-18 -25 -18 -14 0 -14 0 -15 -135 -1 -79 -6 -120 -18 -145 l-17 -35 -17 40
c-9 22 -24 85 -34 140 -10 55 -21 108 -25 117 -10 26 -41 31 -70 12 -29 -19
-31 -40 -10 -110 13 -43 12 -57 -1 -114 -24 -100 -26 -133 -15 -164 10 -26 15
-28 48 -23 20 4 44 2 55 -4 27 -14 53 -3 67 28 12 26 13 27 23 8 15 -26 28
-34 45 -28 8 3 34 0 58 -7 39 -11 48 -10 70 4 14 9 25 26 25 39 1 21 2 20 16
-5 16 -30 50 -44 83 -33 11 3 29 1 40 -4 23 -13 69 1 88 25 9 13 14 12 37 -10
34 -35 59 -33 104 8 l38 35 27 -35 c37 -45 69 -45 112 0 l32 35 11 -24 c6 -13
23 -32 37 -41 33 -21 67 -8 94 36 l19 31 6 -24 c10 -40 104 -53 128 -18 14 20
14 20 26 0 10 -16 24 -19 90 -19 47 0 83 5 90 12 16 16 15 67 -3 117 -8 23
-24 111 -35 194 -12 84 -23 166 -26 182 -6 39 -37 80 -56 72 -11 -4 -17 -31
-22 -109 -9 -140 -26 -264 -42 -312 -8 -21 -14 -50 -15 -65 -1 -14 -7 3 -15
39 -35 166 -54 296 -53 351 2 66 -3 78 -26 59 -27 -22 -35 -82 -35 -257 0
-276 -24 -226 -55 117 -15 164 -32 240 -54 240 -5 0 -11 -6 -14 -13z m49 -188
c7 -90 16 -174 19 -186 5 -20 2 -22 -23 -17 -19 4 -32 1 -42 -10 -12 -15 -10
-16 12 -7 38 14 59 -6 68 -65 5 -27 11 -56 14 -65 4 -8 -4 -31 -17 -50 -58
-87 -147 -6 -106 98 6 15 11 58 10 95 -1 36 6 115 14 174 8 59 15 132 15 163
0 39 3 52 11 44 6 -6 17 -84 25 -174z m329 26 c3 -33 10 -85 16 -115 5 -30 11
-75 13 -100 3 -25 14 -74 25 -110 37 -115 29 -130 -70 -130 -59 0 -70 3 -83
22 -21 30 -20 56 5 140 25 80 49 100 96 79 23 -11 25 -10 13 3 -15 19 -61 21
-79 4 -11 -11 -12 -6 -7 27 3 22 9 85 12 140 3 55 8 111 10 125 l6 25 18 -25
c11 -14 21 -50 25 -85z m-505 1 c0 -17 7 -66 15 -109 8 -43 15 -96 15 -117 0
-37 -1 -38 -41 -42 -39 -4 -40 -3 -33 22 4 14 8 86 9 160 1 74 3 140 4 145 4
22 31 -31 31 -59z m300 -5 c0 -38 7 -105 15 -148 8 -43 15 -80 15 -83 0 -3
-16 -5 -36 -6 l-37 -1 6 131 c3 72 9 141 13 154 13 43 24 21 24 -47z m-460
-14 c6 -30 17 -101 24 -160 12 -103 12 -106 -7 -96 -10 6 -29 8 -41 5 l-23 -6
4 148 c3 81 6 153 9 160 8 25 23 2 34 -51z m-177 -77 c0 -19 -3 -46 -7 -60
l-7 -25 15 25 c8 14 18 49 22 77 3 29 10 50 15 47 11 -6 12 -81 2 -189 l-6
-77 -36 6 c-20 3 -53 1 -73 -3 -34 -8 -37 -7 -28 9 13 25 13 118 -1 197 -10
59 -8 85 7 70 4 -3 10 -26 15 -50 4 -25 14 -60 22 -78 l14 -34 1 40 c1 22 2
69 3 105 l2 65 20 -45 c11 -25 21 -61 20 -80z m-274 32 c6 -15 13 -51 14 -80
1 -28 6 -52 11 -52 4 0 7 33 4 74 -2 41 1 72 5 69 21 -13 37 -79 43 -172 7
-99 7 -101 -15 -101 -12 0 -30 6 -41 12 -14 9 -27 10 -47 2 -43 -16 -54 -9
-41 28 7 19 8 67 5 123 -4 51 -3 96 1 99 4 4 15 -10 24 -31 l18 -38 -6 48 c-7
53 7 63 25 19z m-190 -25 c5 -18 12 -59 16 -92 4 -33 14 -80 22 -103 8 -24 13
-45 11 -47 -8 -7 -56 -8 -86 -1 -26 6 -32 12 -26 24 3 10 9 67 11 127 2 61 6
116 8 122 7 21 34 3 44 -30z m-60 -24 c0 -36 -3 -43 -9 -28 -12 28 -12 75 0
75 6 0 10 -21 9 -47z m1185 -149 c16 -16 18 -19 37 -118 9 -48 8 -60 -3 -68
-17 -11 -90 -1 -100 15 -9 15 1 145 14 170 11 21 32 22 52 1z m-466 -31 c10
-10 25 -33 32 -51 16 -41 4 -67 -45 -101 -33 -22 -36 -22 -59 -7 -32 20 -39
47 -26 93 12 43 28 67 50 76 24 9 27 8 48 -10z m182 -23 c29 -57 26 -93 -11
-124 -38 -32 -50 -32 -77 -3 -49 52 -19 167 44 167 17 0 29 -10 44 -40z m-364
10 c18 0 27 -9 39 -36 34 -83 9 -112 -95 -110 -58 1 -74 5 -86 21 -19 26 -18
69 4 93 18 22 77 43 100 36 8 -2 24 -4 38 -4z m-273 -22 c12 -7 36 -12 52 -12
28 -1 30 -4 33 -44 4 -59 -11 -75 -62 -68 -23 4 -54 7 -70 7 -38 0 -55 24 -56
77 0 39 2 43 20 37 11 -3 28 -2 37 4 23 13 20 13 46 -1z m-189 -22 c55 -1 73
-18 62 -59 -10 -40 -33 -59 -58 -46 -11 6 -35 8 -54 5 -37 -7 -54 11 -54 58 0
43 10 58 34 50 11 -4 43 -7 70 -8z"/>
<path d="M1926 1327 c-10 -15 -21 -81 -31 -192 -18 -202 -35 -315 -46 -315 -5
0 -9 75 -9 168 0 176 -8 234 -35 261 -23 23 -33 2 -28 -57 4 -43 -16 -179 -51
-352 -12 -61 -13 -63 -18 -30 -3 19 -13 67 -22 105 -8 39 -21 137 -28 219 -8
103 -16 150 -25 153 -20 8 -51 -37 -57 -82 -30 -218 -48 -328 -61 -370 -18
-60 -19 -97 -3 -113 7 -7 43 -12 90 -12 66 0 80 3 90 19 12 20 12 20 26 0 25
-37 132 -19 132 22 0 6 11 -3 25 -20 14 -16 34 -33 45 -36 26 -8 64 19 84 58
8 18 16 25 16 16 0 -22 52 -69 77 -69 32 0 73 38 73 68 l1 27 13 -25 c18 -32
69 -70 95 -70 10 0 31 14 45 30 24 29 26 29 35 11 13 -24 60 -41 86 -30 11 4
36 5 56 2 30 -4 39 -1 56 20 l20 26 23 -31 c20 -27 26 -30 59 -23 20 4 54 10
76 13 28 5 43 14 50 30 13 29 18 28 32 -8 13 -35 38 -48 63 -32 10 6 34 8 54
5 34 -5 37 -4 52 32 14 34 14 41 -1 83 -25 76 -29 141 -11 203 19 66 16 80
-25 98 -49 21 -66 -4 -84 -120 -14 -93 -24 -131 -47 -176 -11 -22 -12 -20 -30
30 -16 43 -19 69 -14 148 5 95 5 95 -24 123 -16 15 -34 25 -40 21 -14 -9 -12
-25 3 -20 9 4 12 -7 10 -42 -3 -47 -1 -46 20 7 8 23 10 23 16 6 4 -10 3 -46
-2 -80 -6 -41 -6 -77 2 -109 13 -59 8 -70 -25 -55 -19 9 -33 9 -58 0 -62 -23
-62 -23 -55 90 7 107 16 145 42 166 13 11 14 8 6 -29 -5 -22 -6 -57 -2 -77 7
-37 7 -36 16 23 14 96 14 100 -8 100 -35 0 -61 -70 -69 -185 -10 -149 -18
-159 -55 -78 -21 46 -23 60 -17 137 12 157 12 155 -7 159 -19 4 -22 -3 -32
-63 -7 -37 -8 -38 -16 -16 -6 14 -8 45 -7 69 4 61 -15 64 -38 8 -16 -39 -20
-42 -24 -24 -8 32 -29 33 -41 1 -7 -19 -8 -67 -2 -148 7 -96 5 -128 -6 -158
l-15 -39 -19 59 c-14 42 -20 99 -24 205 -3 80 -9 152 -13 159 -13 21 -38 2
-49 -38 -6 -21 -18 -96 -27 -168 -9 -71 -21 -150 -27 -175 l-11 -44 -19 79
c-13 58 -19 119 -19 223 0 120 -3 145 -16 149 -24 10 -52 -33 -52 -81 0 -22
-7 -77 -15 -121 -8 -44 -15 -102 -15 -130 0 -27 -7 -61 -15 -75 l-13 -25 -11
28 c-6 16 -11 61 -11 100 0 40 -7 117 -15 172 -8 55 -15 130 -15 168 0 70 -9
82 -34 44z m33 -187 c6 -52 13 -123 16 -158 l6 -63 -25 16 c-16 11 -33 14 -47
10 -20 -7 -21 -5 -16 26 4 19 11 93 17 164 6 72 16 148 23 170 l12 40 2 -55
c1 -30 7 -98 12 -150z m-315 3 c3 -62 9 -125 12 -142 6 -29 6 -29 -33 -24 -29
4 -42 1 -53 -12 -12 -15 -11 -15 13 -4 47 21 71 1 96 -79 25 -84 26 -110 5
-140 -13 -19 -24 -22 -83 -22 -98 0 -106 14 -70 125 11 36 22 79 24 97 17 190
57 362 76 326 3 -7 9 -63 13 -125z m177 30 c4 -26 8 -91 8 -144 l1 -96 -35 1
c-19 1 -35 4 -35 8 0 3 7 42 15 85 8 43 15 109 15 148 0 80 18 79 31 -2z m304
-91 c1 -81 4 -154 8 -162 6 -13 -1 -15 -36 -15 l-44 0 4 45 c2 25 11 85 19
134 8 49 14 99 14 111 0 22 20 49 29 39 3 -2 5 -71 6 -152z m169 -124 l7 -57
-34 6 c-22 3 -37 1 -42 -7 -5 -9 -2 -10 13 -6 45 15 92 -41 92 -106 0 -39 -7
-51 -38 -67 -20 -11 -28 -9 -58 14 -45 35 -50 47 -34 98 7 23 14 65 16 93 5
88 33 253 46 277 11 19 14 9 19 -83 3 -58 9 -131 13 -162z m169 193 c-3 -22 0
-54 6 -71 7 -22 7 -38 0 -51 -5 -10 -6 -19 -1 -19 13 0 32 47 39 97 6 43 17
61 27 45 3 -5 -2 -46 -10 -92 -13 -75 -12 -119 2 -172 4 -15 1 -16 -27 -8 -18
5 -49 7 -69 4 -37 -6 -37 -6 -43 32 -10 58 -8 234 2 234 4 0 11 -24 14 -54 5
-50 23 -103 32 -94 3 2 -1 20 -7 39 -8 28 -7 48 6 92 19 65 37 76 29 18z m480
-133 c4 -62 10 -125 13 -139 5 -23 2 -27 -23 -34 -24 -7 -83 -7 -90 -1 -1 1 5
21 13 45 8 24 19 78 24 119 9 71 30 122 49 122 4 0 11 -51 14 -112z m18 12
c-10 -25 -10 -25 -10 5 -1 17 3 41 7 55 7 25 7 24 10 -5 2 -17 -1 -42 -7 -55z
m-979 -166 c23 -64 23 -96 -3 -128 -28 -35 -61 -33 -93 5 -29 35 -29 33 -12
113 21 103 73 108 108 10z m-168 50 c9 -8 16 -32 16 -52 0 -20 3 -53 5 -72 7
-46 -2 -58 -50 -65 -61 -9 -69 1 -56 71 19 99 21 102 37 118 19 20 29 20 48 0z
m322 -35 c13 -15 19 -36 19 -76 0 -48 -3 -58 -26 -75 -25 -19 -28 -19 -57 -4
-17 9 -34 29 -41 47 -9 26 -7 38 14 80 29 55 58 65 91 28z m364 -13 c66 -19
88 -71 51 -117 -15 -19 -29 -23 -82 -25 -102 -3 -129 28 -95 111 12 27 21 34
48 38 18 2 33 4 33 5 0 1 20 -4 45 -12z m271 -24 c19 4 23 -50 6 -82 -8 -17
-22 -26 -42 -28 -17 -1 -51 -5 -77 -8 l-47 -6 -11 40 c-15 49 0 87 31 79 11
-3 31 1 45 8 19 9 34 10 54 4 15 -6 33 -9 41 -7z m207 -50 c4 -56 -11 -74 -54
-66 -21 4 -40 2 -49 -6 -19 -16 -38 -2 -55 39 -9 22 -9 34 0 51 10 19 17 21
53 16 23 -3 49 -1 57 4 29 19 45 7 48 -38z"/>
<path d="M126 641 c-3 -5 -25 -6 -48 -4 -80 9 -91 -28 -58 -191 11 -51 10 -67
-5 -114 -22 -70 -14 -102 23 -102 46 0 82 47 103 135 10 43 28 102 41 133 l23
55 9 -39 c13 -59 12 -109 -3 -225 -15 -113 -11 -154 13 -128 8 8 21 40 30 71
22 78 53 148 66 148 15 0 12 -79 -5 -135 -19 -66 -7 -89 28 -51 34 37 55 102
66 206 9 86 29 160 30 113 1 -12 9 -35 18 -51 16 -27 16 -34 -2 -118 -23 -107
-30 -213 -17 -226 18 -18 51 33 67 104 16 70 46 141 64 153 6 3 17 -5 25 -17
17 -26 8 -129 -15 -185 -16 -39 -7 -51 26 -33 42 23 59 74 67 205 3 66 10 138
14 159 l7 39 14 -39 c36 -101 55 -227 48 -322 -6 -87 -5 -93 12 -90 34 6 53
69 73 247 11 95 24 180 29 189 9 14 10 13 11 -8 0 -14 11 -70 25 -124 17 -68
25 -126 25 -187 0 -96 10 -114 42 -81 18 17 23 43 34 175 7 85 18 174 26 198
l13 44 7 -45 c27 -168 39 -304 34 -392 -3 -55 -1 -100 4 -103 11 -7 7 351 -4
376 -6 13 -1 15 24 11 23 -3 38 2 56 19 l26 24 -6 -25 c-3 -14 -8 -63 -11
-110 -8 -109 -32 -236 -52 -273 -9 -18 -10 -26 -3 -22 18 11 37 62 49 130 9
47 37 329 42 415 0 8 10 -19 21 -60 16 -59 21 -109 22 -235 1 -135 4 -160 16
-157 36 7 53 69 70 262 6 63 14 140 18 170 7 52 8 47 21 -82 7 -76 12 -177 10
-225 -3 -73 -1 -88 11 -88 26 0 49 67 60 176 6 57 16 140 21 184 6 44 9 96 8
115 -4 34 -5 35 -52 38 -28 2 -55 -2 -64 -9 -12 -10 -16 -10 -23 1 -6 9 -22
11 -60 7 -56 -7 -80 -20 -80 -46 0 -9 -8 -3 -20 17 -15 24 -27 32 -49 32 -34
0 -91 -43 -91 -68 0 -10 -6 -5 -15 13 -34 65 -87 74 -131 23 l-28 -33 -32 33
c-41 41 -76 42 -114 3 l-29 -28 -5 23 c-7 27 -43 40 -84 29 -35 -8 -50 -8 -94
0 -31 6 -40 4 -62 -18 -23 -23 -26 -24 -31 -7 -8 24 -36 33 -67 21 -13 -5 -45
-7 -70 -4 -39 5 -48 2 -63 -18 l-18 -24 -28 27 c-28 29 -44 34 -53 19z m543
-10 c15 -10 18 -76 6 -130 -5 -26 -11 -30 -53 -35 -79 -10 -151 -2 -164 18 -4
6 -8 39 -8 73 0 59 2 63 25 69 14 3 44 3 68 0 23 -3 49 -2 57 4 19 12 51 13
69 1z m162 -19 c30 -26 31 -32 25 -74 -9 -59 -52 -104 -91 -94 -28 7 -44 37
-52 98 -5 32 -1 42 25 68 38 37 53 38 93 2z m174 3 c27 -26 34 -80 15 -114
-14 -27 -18 -60 -26 -194 -6 -113 -23 -187 -44 -187 -4 0 -7 42 -8 93 0 83
-10 154 -28 200 -5 14 -1 16 22 11 19 -3 36 0 49 11 20 17 20 17 0 9 -27 -10
-65 -8 -77 4 -5 5 -12 37 -15 71 -6 58 -4 64 22 91 35 36 58 38 90 5z m174 -1
c35 -44 23 -141 -23 -192 -45 -50 -85 -6 -93 103 -5 59 -4 62 27 88 40 34 63
34 89 1z m167 11 c4 -9 3 -44 -1 -80 -5 -47 -13 -70 -30 -89 -31 -33 -41 -33
-59 2 -18 34 -37 137 -30 157 4 8 24 15 52 18 26 2 51 4 55 5 4 1 10 -5 13
-13z m133 -37 c0 -29 -6 -73 -12 -98 -10 -37 -16 -46 -38 -48 -34 -4 -39 10
-46 116 l-6 82 52 0 51 0 -1 -52z m-1301 28 c16 -10 15 -60 -3 -102 l-15 -36
-67 7 c-38 4 -69 8 -70 9 -1 1 -5 24 -8 52 -10 70 4 82 88 79 35 -1 69 -5 75
-9z m147 3 c6 1 28 3 50 4 l40 2 3 -45 c2 -25 -1 -61 -7 -80 -10 -34 -12 -35
-58 -35 -26 0 -54 4 -61 8 -7 5 -21 6 -31 2 -26 -8 -41 21 -41 79 0 53 28 81
70 70 14 -4 30 -6 35 -5z m-214 -149 l36 -10 -17 -73 c-18 -80 -23 -91 -53
-124 -23 -26 -55 -30 -63 -8 -3 8 2 37 11 66 11 32 16 69 13 100 -6 60 5 68
73 49z m223 -16 c12 3 31 3 43 0 19 -5 21 -11 16 -62 -6 -74 -29 -151 -54
-182 l-21 -25 6 30 c3 17 11 54 17 83 12 62 5 92 -21 92 -21 0 -50 -56 -76
-149 -25 -85 -37 -88 -29 -6 3 39 11 88 16 110 4 22 9 57 9 77 0 40 19 52 53
35 11 -5 29 -6 41 -3z m255 -5 c11 6 31 11 45 11 26 0 26 0 26 -85 0 -100 -14
-171 -40 -205 -27 -35 -34 -20 -16 34 31 90 15 186 -30 186 -21 0 -61 -79 -78
-153 -18 -77 -31 -107 -48 -107 -14 0 -4 113 17 190 8 30 15 74 15 96 l0 42
44 -10 c30 -6 51 -6 65 1z m235 -125 c-17 -146 -28 -197 -48 -213 -11 -9 -12
4 -9 81 5 82 -3 156 -22 224 -6 18 -3 20 27 16 23 -2 39 2 47 12 8 9 15 15 17
13 2 -2 -3 -61 -12 -133z m496 -22 c-6 -64 -17 -132 -23 -151 -24 -71 -32 -43
-32 117 0 139 2 158 16 155 8 -3 22 3 30 13 13 16 14 16 17 -1 2 -10 -1 -70
-8 -133z m130 24 c-11 -109 -30 -176 -50 -176 -8 0 -9 8 -3 23 4 12 7 75 5
140 -2 113 -1 118 17 112 11 -3 22 -1 26 5 14 22 15 2 5 -104z"/>
<path d="M1503 634 c-3 -8 -3 -41 1 -72 3 -31 13 -120 21 -197 18 -173 37
-235 69 -235 8 0 12 39 12 133 0 72 6 182 13 243 8 61 11 119 8 128 -9 23
-115 23 -124 0z m109 -65 c-4 -91 -14 -123 -39 -127 -30 -4 -43 19 -55 97 -14
94 -10 103 49 99 l48 -3 -3 -66z m-33 -142 c14 4 16 -13 16 -141 0 -107 -3
-142 -11 -135 -16 13 -32 80 -39 164 -3 39 -8 83 -10 98 -4 23 -2 26 12 19 9
-5 23 -8 32 -5z"/>
<path d="M1643 635 c-9 -25 14 -364 31 -443 14 -68 47 -115 67 -95 7 7 7 32 0
87 -12 82 -2 216 22 311 l13 50 12 -59 c7 -33 12 -85 12 -117 0 -64 15 -188
32 -264 15 -72 35 -105 60 -105 20 0 21 3 15 81 -9 114 22 421 43 434 14 9 29
-75 36 -200 4 -72 13 -145 20 -163 12 -30 38 -51 50 -39 3 2 7 51 9 108 3 91
40 277 58 296 6 5 12 -32 32 -212 17 -142 37 -208 66 -213 14 -2 16 13 15 120
0 108 3 136 29 226 28 99 30 102 39 70 4 -18 11 -89 15 -158 4 -71 13 -136 20
-150 19 -36 52 -70 68 -70 17 0 16 15 -2 65 -29 82 -12 216 22 173 21 -26 43
-78 53 -124 14 -64 39 -121 57 -128 34 -13 34 71 -1 230 -15 66 -14 74 3 124
10 29 22 47 25 41 4 -6 14 -60 22 -118 14 -110 49 -205 80 -217 24 -9 27 18
10 87 -18 73 -20 103 -6 112 13 8 43 -54 70 -143 14 -46 27 -72 36 -72 24 0
26 23 10 123 -19 116 -20 153 -4 228 9 45 9 63 -2 88 -14 34 -32 41 -95 39
-22 -1 -50 2 -62 6 -15 6 -27 2 -42 -13 l-21 -21 -30 22 c-27 20 -35 21 -72
11 -28 -8 -48 -8 -61 -2 -33 18 -81 7 -95 -23 l-12 -26 -29 29 c-38 38 -74 38
-112 0 l-29 -29 -29 29 c-42 42 -81 39 -120 -8 -20 -25 -31 -32 -31 -21 0 23
-64 60 -97 56 -20 -2 -33 -13 -45 -38 -17 -34 -18 -34 -18 -8 0 34 -8 38 -75
45 -47 5 -56 3 -62 -12z m125 -29 c6 -32 -20 -136 -39 -159 l-19 -22 -30 33
c-27 29 -30 39 -30 100 0 38 2 71 4 73 3 3 29 2 58 -1 42 -4 54 -9 56 -24z
m123 19 c42 -22 52 -55 38 -129 -22 -123 -83 -130 -124 -16 -18 50 -14 99 10
136 18 28 35 30 76 9z m191 -15 c28 -29 30 -34 24 -81 -9 -64 -14 -77 -37 -90
-26 -14 -70 8 -87 44 -27 56 -26 91 3 125 34 40 58 40 97 2z m170 0 c27 -28
30 -36 25 -75 -6 -57 -30 -95 -60 -95 -36 0 -76 49 -83 101 -6 42 -4 47 26 72
40 34 55 34 92 -3z m210 20 c59 1 68 -1 78 -20 12 -22 6 -105 -8 -126 -7 -11
-73 -27 -102 -25 -8 0 -34 4 -58 7 -51 7 -62 27 -62 109 0 59 8 67 55 59 17
-3 60 -5 97 -4z m305 -27 c16 -21 16 -46 2 -96 -9 -32 -13 -36 -34 -31 -13 3
-30 2 -37 -2 -7 -5 -34 -9 -59 -10 -46 -1 -47 0 -58 36 -14 48 -14 103 0 117
7 7 41 10 92 8 63 -3 85 -8 94 -22z m-3 -261 c10 -65 16 -131 14 -147 -3 -25
-8 -18 -27 45 -32 103 -58 152 -79 148 -29 -5 -27 -102 4 -182 12 -31 -13 -15
-33 22 -24 42 -43 124 -43 181 0 44 14 54 59 45 16 -4 37 -2 47 4 10 5 23 8
29 5 7 -2 20 -57 29 -121z m-544 90 c16 3 30 3 30 2 0 -2 -7 -33 -16 -71 -12
-49 -15 -95 -11 -166 4 -83 3 -96 -9 -86 -19 16 -32 67 -44 184 -6 55 -13 116
-16 135 -6 34 -6 35 15 16 13 -12 30 -17 51 -14z m238 17 l52 1 0 -33 c0 -18
7 -60 16 -92 20 -77 30 -195 17 -195 -13 0 -40 64 -48 114 -8 51 -51 135 -72
143 -10 4 -23 -2 -35 -16 -23 -30 -23 -99 1 -168 10 -29 15 -53 12 -53 -38 1
-63 76 -69 204 l-5 109 39 -8 c22 -3 63 -6 92 -6z m-740 -27 c17 5 18 1 9 -51
-8 -49 -5 -208 5 -236 2 -6 -1 -12 -7 -14 -24 -9 -43 72 -60 263 -6 70 -6 70
14 52 11 -10 29 -16 39 -14z m298 7 c3 -6 19 -9 35 -7 16 3 29 4 29 4 0 -1 -7
-33 -15 -71 -8 -39 -15 -108 -15 -154 0 -73 -2 -82 -15 -71 -22 18 -32 71 -39
198 -5 103 0 132 20 101z m-131 -37 c25 5 25 5 17 -51 -4 -31 -7 -118 -7 -194
0 -75 -4 -137 -8 -137 -24 0 -59 156 -72 324 l-8 88 27 -17 c15 -10 37 -15 51
-13z"/>
<path d="M2826 629 c-33 -26 -34 -69 -2 -147 13 -31 29 -85 36 -119 17 -82 59
-135 104 -131 39 4 44 24 21 98 -15 50 -16 66 -5 116 33 163 22 200 -58 191
-23 -2 -45 -1 -48 4 -8 14 -19 11 -48 -12z m155 -19 c8 -12 4 -110 -4 -116 -1
-1 -32 -5 -70 -9 l-67 -7 -15 36 c-19 46 -19 93 1 104 26 14 144 8 155 -8z
m-28 -135 c10 -5 13 -18 9 -54 -3 -31 2 -68 13 -100 9 -29 14 -58 11 -66 -8
-22 -40 -18 -63 8 -30 33 -35 44 -53 124 l-17 73 31 9 c39 11 51 12 69 6z"/>
</g>
</svg>
